<?xml version="1.0" standalone="no"?>
<!DOCTYPE svg PUBLIC "-//W3C//DTD SVG 20010904//EN"
 "http://www.w3.org/TR/2001/REC-SVG-20010904/DTD/svg10.dtd">
<svg version="1.0" xmlns="http://www.w3.org/2000/svg"
 width="1280.000000pt" viewBox="0 0 1280.000000 233.000000"
 preserveAspectRatio="xMidYMid meet">
<metadata>
Created by potrace 1.14, written by Peter Selinger 2001-2017
</metadata>
<g transform="translate(0.000000,233.000000) scale(0.100000,-0.100000)"
fill="#4aa6e1" stroke="none">
<path d="M9680 2150 c0 -7 3 -10 7 -7 3 4 3 10 0 14 -4 3 -7 0 -7 -7z M9590
2130 c-1 -24 -1 -24 -15 -7 -13 18 -14 18 -25 -2 -13 -24 -30 -28 -30 -6 0 8
-4 15 -9 15 -15 0 -23 -18 -11 -25 18 -11 11 -23 -10 -18 -11 3 -20 0 -20 -6
0 -6 -4 -11 -10 -11 -5 0 -7 7 -4 15 4 8 1 15 -5 15 -6 0 -8 7 -5 15 4 8 1 15
-4 15 -17 0 -25 -21 -13 -33 18 -18 13 -25 -16 -29 -21 -2 -34 -14 -52 -48
-14 -25 -31 -51 -39 -59 -28 -28 5 -36 55 -13 27 11 62 24 79 27 28 5 32 4 32
-17 0 -13 4 -53 8 -91 6 -57 4 -70 -11 -87 -16 -18 -16 -20 -2 -20 22 0 22
-16 0 -22 -26 -7 -43 1 -43 20 0 8 -7 23 -16 33 -15 17 -15 19 1 36 16 15 45
73 45 88 0 3 -17 5 -38 5 -44 0 -82 -23 -82 -51 0 -30 32 -23 62 13 34 41 40
13 7 -34 -32 -45 -37 -113 -10 -130 11 -7 21 -16 21 -20 0 -4 -40 -28 -90 -54
-49 -25 -90 -49 -90 -53 0 -4 13 -20 29 -35 29 -28 30 -28 73 -13 127 46 170
65 178 76 4 7 8 99 9 203 l2 191 -75 -7 c-116 -10 -112 28 6 44 46 7 67 15 77
30 7 11 21 20 31 20 21 0 35 29 20 44 -7 7 -10 2 -10 -14z m-60 -155 c0 -8 -4
-15 -9 -15 -13 0 -22 16 -14 24 11 11 23 6 23 -9z m-150 0 c0 -3 -2 -5 -5 -5
-3 0 -5 2 -5 5 0 3 2 5 5 5 3 0 5 -2 5 -5z m82 -270 c0 -5 -5 -11 -11 -13 -6
-2 -11 4 -11 13 0 9 5 15 11 13 6 -2 11 -8 11 -13z m56 -4 c3 -8 -1 -12 -9 -9
-7 2 -15 10 -17 17 -3 8 1 12 9 9 7 -2 15 -10 17 -17z m-1 -38 c4 -11 -24 -24
-106 -47 -116 -34 -138 -11 -28 28 106 37 127 40 134 19z m-187 -99 c0 -16
-16 -19 -25 -4 -8 13 4 32 16 25 5 -4 9 -13 9 -21z m32 11 c0 -5 -5 -11 -11
-13 -6 -2 -11 4 -11 13 0 9 5 15 11 13 6 -2 11 -8 11 -13z M9705 2139 c-10
-15 3 -25 16 -12 7 7 7 13 1 17 -6 3 -14 1 -17 -5z M9735 2115 c-25 -31 -75
-45 -75 -21 0 21 -17 20 -29 -1 -8 -16 -14 -74 -40 -411 -5 -63 -12 -116 -14
-119 -3 -2 -14 1 -25 8 -24 15 -154 -45 -249 -116 -34 -26 -67 -44 -72 -41 -5
4 -12 2 -16 -4 -9 -14 -37 -12 -32 3 2 6 12 12 21 12 21 0 49 60 41 85 -3 10
-14 25 -25 35 -18 16 -20 16 -35 1 -25 -25 -38 -20 -31 12 21 83 28 102 41
102 7 0 15 -6 17 -12 6 -16 77 15 112 47 27 25 25 75 -3 75 -55 0 -291 -164
-291 -201 0 -5 25 -24 55 -45 54 -35 56 -36 81 -19 14 9 30 15 35 13 21 -7
-86 -178 -112 -178 -14 0 -11 27 7 61 8 17 13 38 11 47 -5 23 -46 -64 -47 -99
0 -44 74 -57 89 -16 9 23 51 57 71 57 6 0 5 -12 -5 -29 -8 -16 -24 -81 -36
-143 -11 -62 -23 -123 -25 -135 -5 -25 -24 -32 -24 -9 0 8 -9 24 -19 37 -30
37 -45 14 -30 -43 7 -25 9 -53 5 -64 -7 -18 -8 -18 -27 5 -10 13 -19 37 -20
55 0 17 -4 40 -9 51 -15 38 -23 -11 -11 -76 13 -79 55 -130 63 -79 6 38 23 24
60 -51 58 -117 48 -146 -21 -59 -41 52 -68 52 -32 1 12 -16 21 -33 21 -38 0
-5 15 -24 34 -42 l35 -34 61 52 c64 53 84 61 93 37 3 -7 40 -31 82 -52 42 -21
81 -44 87 -51 19 -23 -17 -26 -69 -5 -130 53 -153 60 -153 41 0 -13 133 -75
183 -84 34 -7 38 -10 33 -30 -5 -19 -3 -22 14 -18 16 4 19 2 14 -11 -7 -18
-16 -20 -30 -7 -5 5 -28 12 -51 16 -38 6 -43 5 -43 -13 0 -15 9 -21 42 -26 82
-13 96 -52 15 -43 -39 5 -59 3 -75 -9 -34 -23 -28 -44 12 -44 44 0 89 -17 81
-30 -3 -5 -35 -10 -70 -10 -68 0 -85 -12 -85 -58 0 -20 42 -42 81 -42 10 0 24
-9 31 -19 15 -21 46 -30 65 -18 6 4 14 3 17 -2 10 -15 -5 -41 -23 -41 -14 0
-14 -2 -1 -10 11 -7 12 -12 3 -21 -8 -8 -19 -2 -44 25 -20 22 -48 41 -73 47
-80 22 -226 84 -226 97 0 22 31 26 66 7 38 -20 64 -14 64 15 0 11 11 47 25 80
14 33 25 62 25 65 0 3 -11 3 -25 -1 -19 -5 -25 -2 -25 11 0 14 -3 15 -15 5 -8
-7 -15 -19 -15 -26 0 -8 7 -14 15 -14 8 0 15 -4 15 -9 0 -10 -54 -31 -81 -31
-12 0 -19 -7 -19 -20 0 -10 -9 -24 -21 -30 -27 -15 -65 -9 -62 10 2 8 -14 25
-36 37 -37 22 -39 22 -55 4 -19 -21 -32 -82 -22 -108 6 -15 8 -15 16 -3 7 12
11 10 17 -8 5 -13 20 -29 33 -37 59 -34 144 -74 149 -70 6 6 10 2 -79 62 -41
28 -86 62 -98 76 -24 25 -24 25 -3 32 24 7 28 25 6 25 -8 0 -15 5 -15 10 0 23
32 7 51 -25 12 -19 51 -58 87 -87 72 -55 142 -119 142 -128 0 -8 -597 -6 -606
3 -4 4 -15 0 -24 -8 -15 -13 -21 -13 -58 5 -51 25 -51 25 -45 -1 6 -20 5 -20
-23 -6 -23 12 -47 13 -124 6 -131 -11 -1048 -4 -1080 8 -17 7 -59 7 -125 1
-127 -12 -1528 -26 -1536 -15 -3 4 -17 4 -30 -1 -13 -5 -91 -8 -174 -6 -153 2
-189 -1 -180 -16 7 -11 1438 -12 2835 -1 602 5 1099 7 1103 4 8 -5 121 -6 263
-4 l51 1 -1 212 c0 167 3 219 14 242 30 60 35 34 38 -211 l2 -243 48 7 c54 7
266 63 331 87 24 9 59 28 77 43 37 28 58 25 31 -5 -10 -10 -17 -24 -17 -31 0
-15 -91 -57 -159 -74 -28 -6 -51 -14 -51 -17 0 -3 613 -7 1363 -9 l1362 -3
-46 48 c-62 65 -76 92 -52 100 43 14 63 24 63 34 0 16 -38 11 -48 -6 -12 -22
-32 -9 -32 20 0 44 -22 59 -79 54 -61 -6 -57 -2 -64 -59 l-6 -47 55 -7 c35 -4
54 -11 51 -18 -6 -19 -72 -31 -109 -21 -29 9 -33 14 -36 49 -4 56 -10 71 -24
57 -8 -8 -19 -7 -41 4 -27 15 -30 14 -48 -5 -33 -35 -51 -23 -29 20 8 13 7 19
0 19 -6 0 -13 -7 -17 -15 -3 -9 -22 -24 -42 -35 -33 -18 -34 -19 -11 -20 14 0
40 -9 58 -20 l33 -20 21 36 c27 45 46 32 27 -20 -15 -42 -6 -57 35 -59 35 -3
33 -23 -4 -42 -39 -20 -77 -21 -61 -1 8 10 9 16 1 21 -15 9 -50 -4 -50 -19 0
-28 -30 -41 -48 -22 -16 16 -16 18 6 36 24 20 29 49 10 68 -25 25 -37 13 -40
-40 l-3 -53 -90 -9 c-99 -11 -921 8 -990 22 -22 5 -54 4 -70 -1 -21 -6 -813
-27 -832 -22 -7 2 20 75 30 82 6 4 36 10 66 14 31 5 58 14 63 22 4 8 20 18 35
22 28 7 28 7 6 16 -13 4 -23 15 -23 24 0 17 25 21 35 5 9 -15 25 -2 25 21 0
10 5 19 10 19 6 0 10 -4 10 -10 0 -5 5 -10 11 -10 6 0 9 9 6 20 -4 17 -2 20
14 15 13 -4 19 -2 19 9 0 8 9 24 20 34 14 13 23 37 26 73 7 55 26 99 45 99 6
0 8 -9 4 -20 -4 -11 -2 -20 4 -20 6 0 12 7 12 15 1 8 3 20 4 25 1 6 3 19 4 30
1 13 6 17 16 14 12 -5 15 2 15 28 0 18 7 44 16 56 14 21 24 64 26 112 1 8 -3
23 -7 33 -7 16 -4 17 21 11 29 -7 29 -7 11 14 -17 19 -18 22 -2 46 9 14 15 31
13 38 -9 27 -39 -42 -69 -157 -33 -131 -57 -193 -82 -214 -15 -12 -17 -11 -17
8 0 11 7 38 15 58 8 21 26 92 41 158 14 66 33 135 40 154 17 40 17 39 -24 47
-31 6 -32 6 -32 -30 0 -82 -67 -322 -96 -347 -23 -19 -29 20 -11 70 10 25 19
50 20 55 1 4 -22 16 -50 26 -61 20 -57 22 -101 -65 l-30 -60 34 -38 c58 -62
39 -89 -30 -42 l-36 24 -14 -34 c-10 -24 -22 -35 -35 -35 -23 0 -25 4 -12 28
4 9 11 33 15 53 5 31 3 37 -17 46 -21 10 -28 5 -71 -44 -63 -71 -154 -139
-167 -126 -7 7 18 40 76 101 47 51 85 99 85 109 0 14 -3 13 -23 -5 -13 -12
-31 -22 -40 -22 -18 0 -23 25 -7 35 6 3 7 30 3 64 -3 36 -1 72 6 93 7 18 17
87 22 153 10 120 21 154 39 125 5 -8 10 -25 10 -36 0 -12 7 -27 15 -34 13 -10
15 -9 15 9 0 29 35 28 45 -1 16 -48 17 41 1 96 -21 73 -21 73 23 95 21 11 48
33 60 48 17 23 22 25 30 14 8 -12 16 -13 48 -3 80 24 80 26 -7 142 -78 103
-102 122 -123 101 -18 -18 -43 -13 -76 15 -35 29 -40 54 -11 54 13 0 20 -7 20
-20 0 -20 44 -40 57 -26 9 9 -43 61 -83 82 -33 18 -36 18 -45 2 -11 -20 -49
-25 -49 -7 0 7 8 18 18 26 15 13 15 14 -11 10 -18 -3 -26 0 -24 7 6 18 77 19
123 1 49 -19 218 -187 277 -277 46 -71 49 -72 87 -53 34 18 35 21 14 55 l-15
25 6 -32 c5 -26 3 -33 -9 -33 -29 0 -37 34 -17 71 29 53 35 80 18 73 -9 -3
-22 7 -35 28 -27 44 -176 188 -229 221 -23 14 -44 31 -48 37 -3 6 -24 19 -46
30 -73 38 -44 -5 52 -75 168 -123 327 -305 268 -305 -7 0 -57 44 -113 99 -119
116 -193 175 -241 192 -19 7 -35 19 -35 26 0 7 -7 13 -15 13 -18 0 -19 5 -3
30 17 27 -29 75 -80 85 -21 4 -42 11 -47 15 -6 5 -31 10 -55 12 -42 3 -45 5
-42 31 3 32 3 32 -23 2z m-65 -64 c0 -5 -7 -12 -16 -15 -22 -9 -24 -8 -24 9 0
8 9 15 20 15 11 0 20 -4 20 -9z m220 -23 c57 -20 65 -27 68 -51 4 -30 -4 -34
-27 -14 -9 8 -56 22 -106 32 -115 23 -135 31 -135 51 0 24 112 14 200 -18z
m-210 -6 c0 -13 -12 -22 -22 -16 -10 6 -1 24 13 24 5 0 9 -4 9 -8z m80 -52
c65 -13 158 -41 184 -56 22 -13 13 -34 -14 -34 -24 0 -53 -42 -44 -64 5 -13
14 -16 30 -12 16 4 24 2 24 -6 0 -7 45 -52 100 -101 98 -85 100 -86 100 -58 0
36 13 46 40 31 26 -14 26 -34 0 -27 -11 3 -18 1 -14 -4 3 -5 15 -9 28 -9 22 0
43 -17 61 -49 6 -11 2 -13 -18 -7 -20 5 -29 2 -37 -13 -13 -25 -13 -54 0 -46
6 3 10 15 10 26 0 23 18 26 26 4 9 -22 -14 -45 -46 -45 -21 0 -30 -7 -40 -30
-19 -46 -34 -54 -69 -36 -44 23 -51 41 -13 33 33 -7 38 -2 23 23 -13 20 -2 34
15 19 18 -15 17 1 -1 25 -8 11 -15 29 -15 41 0 12 -10 31 -23 43 l-23 22 -24
-25 c-30 -32 -18 -58 29 -63 36 -4 36 -5 15 -37 -21 -32 -49 -32 -70 0 -20 31
-31 31 -68 2 l-29 -23 37 -53 c34 -50 48 -101 27 -101 -5 0 -26 22 -46 50 -42
58 -142 127 -237 165 -79 31 -79 45 -2 45 40 0 54 4 51 13 -2 6 -15 12 -28 12
-17 0 -25 7 -27 23 -5 32 32 29 122 -12 41 -19 84 -37 96 -41 35 -11 15 12
-31 35 -21 11 -39 27 -39 35 0 25 44 17 90 -16 l42 -31 29 28 c35 33 29 44
-55 89 l-55 30 -33 -31 c-18 -17 -40 -32 -48 -32 -8 0 -31 -4 -50 -7 -40 -8
-116 18 -105 35 9 15 86 12 118 -5 27 -14 28 -13 42 22 20 48 20 50 -22 56
-44 8 -48 5 -34 -22 7 -11 7 -22 2 -25 -12 -8 -81 88 -81 112 0 26 25 56 39
48 9 -6 8 -13 -5 -27 -19 -21 -19 -21 61 -39 78 -17 78 -17 86 15 11 38 -4 54
-32 37 -22 -14 -39 -8 -39 14 0 10 -14 14 -55 14 -51 0 -55 2 -55 23 0 29 9
39 29 33 9 -3 41 -10 71 -16z m60 10 c0 -5 -4 -10 -10 -10 -5 0 -10 5 -10 10
0 6 5 10 10 10 6 0 10 -4 10 -10z m-172 -87 c-4 -22 -22 -20 -26 1 -2 10 3 16
13 16 10 0 15 -7 13 -17z m357 -3 c3 -5 -3 -10 -15 -10 -12 0 -18 5 -15 10 3
6 10 10 15 10 5 0 12 -4 15 -10z m-245 -4 c0 -3 -4 -8 -10 -11 -5 -3 -10 -1
-10 4 0 6 5 11 10 11 6 0 10 -2 10 -4z m-90 -110 c-27 -34 -63 5 -46 51 6 15
10 13 33 -10 22 -22 24 -28 13 -41z m250 59 c0 -3 -2 -5 -5 -5 -3 0 -5 2 -5 5
0 3 2 5 5 5 3 0 5 -2 5 -5z m108 -66 c-2 -6 -8 -10 -13 -10 -5 0 -11 4 -13 10
-2 6 4 11 13 11 9 0 15 -5 13 -11z m-740 -41 c-3 -7 -15 -15 -28 -16 -21 -3
-22 -2 -11 12 16 19 44 21 39 4z m602 -20 c0 -5 -7 -8 -15 -8 -15 0 -20 21 -8
33 7 7 23 -11 23 -25z m-560 18 c0 -3 -4 -8 -10 -11 -5 -3 -10 -1 -10 4 0 6 5
11 10 11 6 0 10 -2 10 -4z m630 -57 c0 -5 -5 -9 -11 -9 -5 0 -7 5 -4 10 3 6
-1 10 -9 10 -19 0 -29 16 -20 32 7 11 44 -24 44 -43z m-680 23 c0 -13 -12 -22
-22 -16 -10 6 -1 24 13 24 5 0 9 -4 9 -8z m370 -23 c0 -11 -4 -17 -10 -14 -5
3 -10 15 -10 26 0 11 5 17 10 14 6 -3 10 -15 10 -26z m-420 11 c0 -5 -4 -10
-10 -10 -5 0 -10 5 -10 10 0 6 5 10 10 10 6 0 10 -4 10 -10z m570 0 c0 -5 -4
-10 -10 -10 -5 0 -10 5 -10 10 0 6 5 10 10 10 6 0 10 -4 10 -10z m320 -15 c0
-3 -2 -5 -5 -5 -3 0 -5 2 -5 5 0 3 2 5 5 5 3 0 5 -2 5 -5z m-480 -35 c0 -5 -4
-10 -10 -10 -5 0 -10 5 -10 10 0 6 5 10 10 10 6 0 10 -4 10 -10z m-510 -28 c0
-25 -25 -58 -34 -44 -7 12 13 62 26 62 4 0 8 -8 8 -18z m935 -10 c0 -18 -20
-15 -23 4 -3 10 1 15 10 12 7 -3 13 -10 13 -16z m209 -73 c-7 -8 -14 -21 -14
-27 0 -7 -5 -12 -11 -12 -13 0 -3 48 13 68 9 10 13 10 19 0 5 -7 2 -19 -7 -29z
m-530 -20 c79 -40 129 -81 167 -140 18 -27 35 -49 39 -49 3 0 12 -38 19 -84
19 -124 -4 -219 -76 -319 -35 -50 -38 -74 -5 -44 10 10 26 17 35 17 24 0 21
-31 -3 -37 -25 -7 -25 -14 -1 -54 26 -43 16 -60 -59 -100 -58 -31 -61 -34 -54
-63 14 -68 32 -96 60 -96 24 0 26 -3 19 -27 -4 -16 -8 -50 -9 -78 -1 -44 1
-50 19 -50 13 0 21 8 23 22 2 16 -2 23 -12 23 -17 0 -22 15 -8 24 5 3 16 -4
25 -15 21 -24 48 -24 96 1 68 34 74 45 51 90 -11 22 -20 46 -20 55 0 27 37 16
65 -21 l27 -35 22 20 c22 21 56 28 56 12 0 -4 -9 -20 -21 -35 -23 -30 -18 -61
11 -69 28 -7 25 -25 -12 -58 -20 -20 -40 -29 -55 -27 -33 4 -32 20 3 43 l31
21 -24 17 c-22 17 -24 17 -61 -13 -45 -36 -232 -120 -267 -120 -29 0 -31 7 -8
32 15 17 15 23 2 66 l-15 47 -63 -4 c-57 -3 -63 -1 -59 15 2 13 17 22 46 28
46 11 49 18 32 76 -17 61 -22 64 -71 47 -76 -26 -79 20 -3 49 63 24 56 37 -26
46 -28 3 -30 21 -3 27 10 2 56 21 103 43 91 43 99 64 9 25 -174 -76 -315 -59
-443 54 -173 153 -168 432 10 589 103 90 280 111 408 49z m-604 21 c0 -5 -5
-10 -11 -10 -5 0 -7 5 -4 10 3 6 8 10 11 10 2 0 4 -4 4 -10z m829 -42 c1 -5
-3 -8 -8 -8 -11 0 -21 37 -13 45 6 5 20 -19 21 -37z m328 5 c-4 -3 -10 -3 -14
0 -3 4 0 7 7 7 7 0 10 -3 7 -7z m-107 -12 c0 -12 -20 -25 -27 -18 -7 7 6 27
18 27 5 0 9 -4 9 -9z m-151 -27 c42 -54 65 -169 33 -169 -13 0 -81 153 -82
183 0 21 28 13 49 -14z m-69 6 c0 -5 -2 -10 -4 -10 -3 0 -8 5 -11 10 -3 6 -1
10 4 10 6 0 11 -4 11 -10z m47 -107 c-4 -3 -10 -3 -14 0 -3 4 0 7 7 7 7 0 10
-3 7 -7z m-2 -31 c0 -18 -20 -15 -23 4 -3 10 1 15 10 12 7 -3 13 -10 13 -16z
m485 -212 c0 -5 -5 -10 -11 -10 -5 0 -7 5 -4 10 3 6 8 10 11 10 2 0 4 -4 4
-10z m-1390 -35 c0 -3 -2 -5 -5 -5 -3 0 -5 2 -5 5 0 3 2 5 5 5 3 0 5 -2 5 -5z
m30 -25 c0 -5 -4 -10 -10 -10 -5 0 -10 5 -10 10 0 6 5 10 10 10 6 0 10 -4 10
-10z m74 -81 c46 -78 53 -115 21 -103 -19 8 -85 124 -85 151 0 16 8 33 15 33
1 0 23 -36 49 -81z m1086 -69 c0 -5 -4 -10 -10 -10 -5 0 -10 5 -10 10 0 6 5
10 10 10 6 0 10 -4 10 -10z m25 -21 c4 -5 -1 -19 -11 -30 -9 -10 -12 -19 -6
-19 6 0 12 6 15 13 2 6 8 9 12 5 4 -4 0 -17 -8 -29 -18 -25 -12 -45 21 -76 22
-21 26 -21 36 -7 25 33 34 -6 18 -73 -24 -99 -142 -233 -142 -161 0 14 13 37
31 54 35 33 69 94 69 123 0 29 -11 51 -24 51 -7 0 -25 14 -40 31 -17 19 -33
28 -43 25 -12 -5 -13 -2 -8 11 5 10 8 28 8 41 -1 15 5 22 17 22 10 0 20 7 24
15 6 17 22 20 31 4z m-1087 -40 c-2 -6 -8 -10 -13 -10 -5 0 -11 4 -13 10 -2 6
4 11 13 11 9 0 15 -5 13 -11z m1202 -23 c-14 -14 -22 -2 -14 18 5 14 9 15 15
4 4 -7 4 -17 -1 -22z m-1240 -21 c0 -3 -2 -5 -5 -5 -3 0 -5 2 -5 5 0 3 2 5 5
5 3 0 5 -2 5 -5z m900 -24 c0 -19 -12 -41 -23 -41 -8 0 -8 3 0 11 6 6 9 18 6
25 -3 8 0 14 6 14 6 0 11 -4 11 -9z m320 4 c0 -3 -2 -5 -5 -5 -3 0 -5 2 -5 5
0 3 2 5 5 5 3 0 5 -2 5 -5z m-850 -32 c0 -5 -11 -13 -25 -20 -20 -9 -25 -8
-25 2 0 13 14 23 38 24 6 1 12 -2 12 -6z m505 -54 c6 -24 2 -36 -17 -56 -24
-27 -135 -103 -150 -103 -24 0 -1 34 52 75 33 25 60 50 60 56 0 5 7 9 16 9 12
0 15 6 10 24 -6 24 1 39 15 31 4 -3 10 -19 14 -36z m265 7 c0 -20 -45 -71 -83
-94 -48 -29 -132 -18 -132 18 0 18 6 26 23 28 15 2 22 -2 22 -14 0 -13 3 -14
15 -4 12 10 18 10 30 0 9 -7 17 -11 18 -9 42 59 72 89 88 89 10 0 19 -6 19
-14z m-702 -17 c-2 -6 -8 -10 -13 -10 -5 0 -11 4 -13 10 -2 6 4 11 13 11 9 0
15 -5 13 -11z m577 1 c8 -13 -20 -24 -42 -16 -15 6 -15 8 -3 16 20 13 37 12
45 0z m-215 -24 c0 -3 -4 -8 -10 -11 -5 -3 -10 -1 -10 4 0 6 5 11 10 11 6 0
10 -2 10 -4z m100 -21 c0 -3 -2 -5 -5 -5 -3 0 -5 2 -5 5 0 3 2 5 5 5 3 0 5 -2
5 -5z m-194 -52 c-15 -13 -31 -23 -37 -23 -18 0 -8 19 24 44 40 32 52 13 13
-21z m-46 17 c0 -5 -4 -10 -10 -10 -5 0 -10 5 -10 10 0 6 5 10 10 10 6 0 10
-4 10 -10z m450 5 c0 -3 -2 -5 -5 -5 -3 0 -5 2 -5 5 0 3 2 5 5 5 3 0 5 -2 5
-5z m-590 -26 c0 -22 -79 -109 -99 -109 -18 0 -13 18 11 34 21 15 21 16 4 35
-23 25 -13 41 25 41 16 0 29 5 29 10 0 6 7 10 15 10 9 0 15 -9 15 -21z m20
-34 c0 -3 -2 -5 -5 -5 -3 0 -5 2 -5 5 0 3 2 5 5 5 3 0 5 -2 5 -5z m499 -36
c-12 -21 -14 -22 -17 -6 -6 28 6 53 19 40 8 -8 7 -18 -2 -34z m-259 10 c0 -5
-7 -9 -15 -9 -15 0 -20 12 -9 23 8 8 24 -1 24 -14z m70 7 c0 -15 -45 -56 -61
-56 -14 0 -11 23 7 48 17 25 54 30 54 8z m-590 0 c0 -11 -19 -15 -25 -6 -3 5
1 10 9 10 9 0 16 -2 16 -4z m-200 -13 c0 -10 -42 -53 -52 -53 -17 0 -7 29 14
44 24 17 38 20 38 9z m257 -8 c-4 -8 -2 -17 3 -20 15 -9 12 -27 -2 -22 -7 2
-13 9 -13 15 0 5 -3 14 -7 18 -13 12 -9 24 8 24 10 0 14 -6 11 -15z m431 -20
c6 -14 17 -25 24 -25 8 0 9 -3 2 -10 -20 -20 -74 26 -59 50 10 16 21 11 33
-15z m-668 -1 c0 -8 -5 -12 -10 -9 -6 4 -8 11 -5 16 9 14 15 11 15 -7z m780 6
c0 -5 -5 -10 -11 -10 -5 0 -7 5 -4 10 3 6 8 10 11 10 2 0 4 -4 4 -10z m-390
-45 c11 -28 41 -33 60 -10 30 36 50 8 50 -73 0 -57 -29 -87 -94 -96 -26 -4
-51 -5 -54 -1 -12 12 -6 149 6 153 7 2 12 15 12 28 0 31 8 31 20 -1z m2765 -6
c15 -48 -53 -82 -86 -43 -11 14 -9 20 19 45 34 30 57 30 67 -2z m-3185 11 c0
-5 -4 -10 -10 -10 -5 0 -10 5 -10 10 0 6 5 10 10 10 6 0 10 -4 10 -10z m245 0
c3 -5 -1 -10 -9 -10 -9 0 -16 5 -16 10 0 6 4 10 9 10 6 0 13 -4 16 -10z m3
-32 c22 -9 23 -12 10 -15 -21 -5 -24 -19 -5 -26 29 -10 -6 -18 -52 -12 -51 7
-66 20 -33 28 9 3 2 5 -15 6 -33 1 -47 24 -20 34 18 6 84 -2 115 -15z m-138 4
c0 -13 -12 -22 -22 -16 -10 6 -1 24 13 24 5 0 9 -4 9 -8z m2897 -34 c-3 -8 -6
-5 -6 6 -1 11 2 17 5 13 3 -3 4 -12 1 -19z m-17 -22 c0 -17 -14 -29 -23 -20
-8 8 3 34 14 34 5 0 9 -6 9 -14z m-2238 -11 c0 -5 -5 -11 -11 -13 -6 -2 -11 4
-11 13 0 9 5 15 11 13 6 -2 11 -8 11 -13z m2453 -15 c-5 -8 -11 -8 -17 -2 -6
6 -7 16 -3 22 5 8 11 8 17 2 6 -6 7 -16 3 -22z m-375 0 c0 -5 -2 -10 -4 -10
-3 0 -8 5 -11 10 -3 6 -1 10 4 10 6 0 11 -4 11 -10z m388 -69 c3 -19 -1 -21
-47 -21 -69 0 -75 16 -21 53 29 20 63 4 68 -32z m-160 27 c-6 -18 -28 -21 -28
-4 0 9 7 16 16 16 9 0 14 -5 12 -12z m-2924 -17 c76 -27 74 -46 -5 -37 -69 8
-85 16 -76 40 8 20 19 19 81 -3z m2976 11 c0 -17 -25 -32 -54 -31 -30 0 -30 1
-8 11 12 6 22 15 22 20 0 4 9 8 20 8 11 0 20 -4 20 -8z m-2310 -27 c0 -8 -7
-15 -15 -15 -8 0 -15 7 -15 15 0 8 7 15 15 15 8 0 15 -7 15 -15z M9780 1583
c1 -24 66 -74 86 -66 22 8 17 20 -23 48 -37 25 -63 32 -63 18z M10155 1583
c-46 -9 -51 -14 -31 -29 26 -19 33 -18 46 7 14 24 12 27 -15 22z M9640 1795
c0 -3 2 -5 5 -5 3 0 5 2 5 5 0 3 -2 5 -5 5 -3 0 -5 -2 -5 -5z M9505 1481 c-86
-16 -186 -98 -230 -187 -23 -48 -28 -69 -28 -147 -1 -96 16 -147 73 -217 20
-24 21 -24 35 -6 8 10 16 24 18 30 2 6 8 8 12 4 4 -4 2 -22 -5 -39 -13 -30
-12 -33 16 -55 33 -27 97 -50 164 -58 89 -12 230 42 267 102 10 15 27 38 40
50 30 32 61 114 45 120 -7 2 -12 8 -12 14 0 6 6 8 13 5 9 -3 11 13 9 67 -8
214 -197 358 -417 317z m10 -21 c-3 -5 -10 -10 -16 -10 -5 0 -9 5 -9 10 0 6 7
10 16 10 8 0 12 -4 9 -10z m140 -12 c15 -21 17 -22 26 -5 12 21 29 22 29 2 0
-8 4 -15 10 -15 16 0 51 -33 67 -65 9 -17 18 -25 20 -17 4 10 33 18 33 8 0 -2
14 -42 31 -90 17 -49 27 -91 22 -98 -4 -7 -6 -38 -5 -68 3 -52 0 -59 -45 -122
-26 -37 -54 -68 -60 -68 -7 0 -13 -7 -13 -15 0 -8 -8 -15 -18 -15 -10 0 -26
-9 -36 -21 -15 -18 -24 -20 -62 -14 -30 4 -50 2 -60 -6 -16 -13 -54 13 -54 38
0 19 -13 16 -28 -7 -15 -24 -32 -26 -32 -4 0 12 -6 15 -25 10 -14 -4 -25 -2
-25 4 0 5 7 10 15 10 8 0 15 5 15 10 0 15 -26 12 -40 -5 -20 -25 -29 -17 -20
17 5 17 7 41 4 53 -5 20 -9 22 -34 12 -17 -6 -26 -16 -23 -24 3 -7 1 -13 -4
-13 -18 0 -22 12 -11 30 10 15 7 25 -15 53 -16 21 -27 48 -27 67 0 17 -5 40
-11 51 -7 15 -7 24 2 35 9 11 8 14 -5 14 -21 0 -22 -2 21 81 27 51 50 80 80
100 23 16 48 35 56 43 8 8 28 18 43 21 16 4 38 11 49 16 11 4 38 10 60 12 22
2 43 4 47 5 4 1 14 -8 23 -20z m165 -68 c0 -5 -4 -10 -9 -10 -6 0 -13 5 -16
10 -3 6 1 10 9 10 9 0 16 -4 16 -10z m-540 -265 c0 -8 -4 -15 -10 -15 -5 0
-10 7 -10 15 0 8 5 15 10 15 6 0 10 -7 10 -15z m256 -274 c-8 -13 -36 -15 -36
-3 0 4 5 13 12 20 14 14 34 0 24 -17z M9316 1251 c-4 -7 -5 -15 -2 -18 9 -9
19 4 14 18 -4 11 -6 11 -12 0z M9550 1252 c0 -7 -7 -12 -15 -12 -8 0 -15 -8
-15 -19 0 -10 -7 -35 -16 -56 -14 -34 -14 -39 2 -63 11 -16 19 -22 22 -14 3 9
15 11 38 6 49 -9 82 15 90 66 4 22 11 43 15 46 5 3 9 10 9 16 0 6 -6 6 -15 -2
-13 -10 -19 -10 -33 4 -10 9 -27 16 -38 16 -11 0 -25 5 -32 12 -9 9 -12 9 -12
0z m71 -63 c21 -40 -3 -69 -57 -69 -45 0 -46 1 -40 28 13 55 75 81 97 41z
M9453 1223 c4 -3 10 -3 14 0 3 4 0 7 -7 7 -7 0 -10 -3 -7 -7z M9475 1209 c-10
-15 3 -25 16 -12 7 7 7 13 1 17 -6 3 -14 1 -17 -5z M9680 1175 c0 -3 2 -5 5
-5 3 0 5 2 5 5 0 3 -2 5 -5 5 -3 0 -5 -2 -5 -5z M9860 1125 c0 -3 2 -5 5 -5 3
0 5 2 5 5 0 3 -2 5 -5 5 -3 0 -5 -2 -5 -5z M9860 1055 c0 -3 2 -5 5 -5 3 0 5
2 5 5 0 3 -2 5 -5 5 -3 0 -5 -2 -5 -5z M9430 975 c0 -3 2 -5 5 -5 3 0 5 2 5 5
0 3 -2 5 -5 5 -3 0 -5 -2 -5 -5z M9495 970 c3 -5 12 -10 20 -10 8 0 17 5 20
10 4 6 -5 10 -20 10 -15 0 -24 -4 -20 -10z M9460 950 c0 -7 3 -10 7 -7 3 4 3
10 0 14 -4 3 -7 0 -7 -7z M9505 929 c-12 -19 5 -23 22 -6 16 16 16 17 1 17 -9
0 -20 -5 -23 -11z M9803 754 c-36 -28 -40 -39 -19 -47 16 -6 96 47 96 63 0 19
-45 10 -77 -16z M9703 283 c4 -3 10 -3 14 0 3 4 0 7 -7 7 -7 0 -10 -3 -7 -7z
M12410 270 c0 -5 5 -10 10 -10 6 0 10 5 10 10 0 6 -4 10 -10 10 -5 0 -10 -4
-10 -10z M9360 2095 c0 -3 2 -5 5 -5 3 0 5 2 5 5 0 3 -2 5 -5 5 -3 0 -5 -2 -5
-5z M9315 2060 c-10 -11 -28 -20 -40 -20 -13 0 -28 -6 -34 -14 -7 -8 -27 -18
-44 -22 -18 -3 -44 -21 -60 -40 -30 -36 -47 -37 -47 -3 0 11 -4 17 -10 14 -5
-3 -10 -14 -10 -24 0 -23 -56 -76 -64 -62 -4 6 -4 16 -1 21 10 16 -28 12 -53
-6 -22 -15 -22 -17 -7 -41 21 -31 4 -57 -32 -48 -25 6 -32 -9 -8 -19 24 -9 19
-39 -6 -33 -15 4 -19 2 -15 -10 4 -9 -1 -17 -14 -20 -12 -3 -20 -14 -20 -27
-1 -21 -1 -21 -21 3 -23 28 -36 22 -20 -8 13 -23 -7 -64 -34 -75 -8 -3 -12
-12 -9 -20 8 -20 -11 -29 -26 -11 -7 8 -17 15 -23 15 -5 0 -2 -9 7 -19 20 -22
14 -43 -9 -34 -9 3 -15 -1 -15 -11 0 -9 -4 -16 -10 -16 -16 0 -12 -27 5 -34
22 -8 19 -39 -2 -34 -16 4 -18 -4 -20 -66 -4 -176 -11 -216 -39 -216 -18 0
-17 -1 15 -52 12 -21 29 -38 37 -38 7 0 18 -17 23 -37 6 -21 18 -64 26 -97 18
-65 14 -78 -15 -51 -11 10 -20 14 -20 8 0 -15 34 -43 53 -43 10 0 17 -8 17
-17 0 -28 76 -172 126 -238 47 -63 60 -95 50 -121 -8 -21 -26 -7 -68 53 -79
115 -144 257 -131 288 3 9 -1 15 -11 15 -22 0 -50 -46 -41 -67 8 -17 8 -17 12
-1 6 26 20 22 27 -8 4 -16 2 -32 -6 -41 -11 -13 -9 -18 10 -31 12 -8 22 -21
22 -29 0 -17 18 -36 42 -46 10 -3 15 -12 12 -21 -3 -8 -1 -17 5 -21 6 -3 11
-17 11 -31 0 -15 6 -24 16 -24 10 0 14 -6 10 -15 -4 -10 1 -15 14 -15 23 0 26
-10 8 -28 -14 -14 1 -16 22 -2 9 6 17 5 22 -3 6 -9 14 -5 29 13 21 24 23 71 5
113 -12 25 16 22 40 -4 21 -24 83 -55 99 -50 6 2 33 4 60 5 49 1 50 2 55 36 6
41 41 111 47 93 2 -7 0 -21 -6 -32 -17 -30 -14 -33 20 -15 24 12 37 13 54 6
12 -6 28 -6 36 -2 16 11 18 9 -53 49 l-56 32 -44 -41 c-24 -22 -48 -40 -54
-40 -17 0 -25 29 -14 50 10 19 -15 55 -102 148 -50 53 -92 41 -56 -16 l21 -35
-38 -35 c-39 -36 -64 -30 -31 7 33 36 9 71 -48 71 -37 0 -42 -18 -12 -49 32
-33 46 -91 23 -91 -24 0 -59 69 -112 213 -45 128 -48 154 -19 178 21 17 24 10
35 -72 10 -71 31 -129 47 -129 14 0 32 24 32 42 0 9 -14 52 -30 94 -17 42 -29
79 -26 81 6 6 63 -72 82 -114 9 -17 24 -39 34 -48 21 -19 55 -13 47 8 -2 6
-10 45 -17 85 -7 40 -20 77 -27 84 -19 15 -165 23 -190 10 -15 -9 -28 -6 -61
14 -23 14 -42 29 -42 33 0 12 63 21 141 21 l65 0 3 43 c4 79 39 197 58 197 4
0 16 -14 25 -30 28 -49 55 -36 96 46 l21 41 -28 21 c-28 21 -29 21 -46 2 -10
-11 -26 -22 -37 -26 -13 -4 -17 -9 -10 -16 7 -7 19 -4 36 7 26 17 26 17 26 -8
0 -52 -51 -56 -95 -7 -19 21 -19 22 -1 32 34 19 57 49 54 71 -5 38 -35 32 -58
-13 -31 -61 -80 -199 -90 -252 -10 -57 -16 -68 -37 -68 -32 0 7 151 72 280 44
87 102 167 183 252 74 77 96 90 120 66 20 -20 14 -33 -21 -46 -38 -14 -177
-137 -177 -158 0 -29 37 -12 121 54 47 37 118 87 157 110 51 30 72 49 72 63 0
28 -24 34 -69 16 -45 -18 -50 -15 -76 46 -19 45 -19 47 0 47 8 0 15 7 15 15 0
8 14 17 38 21 60 11 142 60 142 86 0 14 -16 9 -35 -12z m-175 -157 c0 -16
-187 -156 -202 -151 -16 6 63 90 120 128 43 28 82 39 82 23z m-150 -11 c0 -14
-11 -21 -26 -15 -8 3 -11 9 -8 14 7 11 34 12 34 1z m160 -42 c0 -5 -2 -10 -4
-10 -3 0 -8 5 -11 10 -3 6 -1 10 4 10 6 0 11 -4 11 -10z m42 -35 c0 -5 -5 -11
-11 -13 -6 -2 -11 4 -11 13 0 9 5 15 11 13 6 -2 11 -8 11 -13z m53 5 c3 -6 -1
-13 -10 -16 -19 -8 -30 0 -20 15 8 14 22 14 30 1z m-285 -105 c0 -8 -7 -15
-15 -15 -16 0 -20 12 -8 23 11 12 23 8 23 -8z m140 5 c0 -5 -4 -10 -10 -10 -5
0 -10 5 -10 10 0 6 5 10 10 10 6 0 10 -4 10 -10z m-224 -87 c-43 -70 -111
-239 -133 -331 -18 -78 -25 -94 -41 -100 -24 -8 -24 31 -3 121 39 163 95 287
162 357 56 59 65 33 15 -47z m55 -116 c-13 -13 -26 -3 -16 12 3 6 11 8 17 5 6
-4 6 -10 -1 -17z m-201 -13 c0 -14 -4 -23 -10 -19 -5 3 -10 15 -10 26 0 10 5
19 10 19 6 0 10 -12 10 -26z m150 -94 c0 -5 -5 -10 -11 -10 -5 0 -7 5 -4 10 3
6 8 10 11 10 2 0 4 -4 4 -10z m-30 -110 c0 -5 -4 -10 -10 -10 -5 0 -10 5 -10
10 0 6 5 10 10 10 6 0 10 -4 10 -10z m-4 -64 c-3 -14 -13 -26 -21 -26 -18 0
-19 9 -5 46 14 35 36 17 26 -20z m-46 -136 c0 -5 -4 -10 -10 -10 -5 0 -10 5
-10 10 0 6 5 10 10 10 6 0 10 -4 10 -10z m95 -30 c10 -11 15 -23 12 -27 -8 -7
-47 25 -47 39 0 14 16 9 35 -12z m47 -65 c0 -5 -5 -11 -11 -13 -6 -2 -11 4
-11 13 0 9 5 15 11 13 6 -2 11 -8 11 -13z m-82 -85 c0 -5 -4 -10 -10 -10 -5 0
-10 5 -10 10 0 6 5 10 10 10 6 0 10 -4 10 -10z m60 -124 c0 -11 -19 -15 -25
-6 -3 5 1 10 9 10 9 0 16 -2 16 -4z m120 -12 c0 -8 -4 -12 -10 -9 -5 3 -10 10
-10 16 0 5 5 9 10 9 6 0 10 -7 10 -16z m-110 -24 c0 -5 -4 -10 -10 -10 -5 0
-10 5 -10 10 0 6 5 10 10 10 6 0 10 -4 10 -10z m141 -11 c-2 -8 -5 -21 -7 -29
-2 -8 23 -44 56 -80 64 -69 70 -80 42 -80 -24 0 -152 106 -152 127 0 24 41 85
54 80 6 -3 9 -11 7 -18z m-81 -24 c0 -8 -4 -15 -9 -15 -13 0 -22 16 -14 24 11
11 23 6 23 -9z m130 -31 c0 -9 -5 -14 -12 -12 -18 6 -21 28 -4 28 9 0 16 -7
16 -16z m-130 -24 c15 -28 5 -40 -35 -40 -42 0 -53 15 -29 41 22 25 50 24 64
-1z m30 -55 c0 -8 -4 -15 -10 -15 -5 0 -10 7 -10 15 0 8 5 15 10 15 6 0 10 -7
10 -15z m51 -16 c23 -12 16 -29 -12 -29 -12 0 -19 7 -19 20 0 23 4 24 31 9z
M8940 655 c0 -3 2 -5 5 -5 3 0 5 2 5 5 0 3 -2 5 -5 5 -3 0 -5 -2 -5 -5z M9005
1940 c3 -5 10 -10 16 -10 5 0 9 5 9 10 0 6 -7 10 -16 10 -8 0 -12 -4 -9 -10z
M9207 1924 c-15 -8 -25 -19 -22 -24 11 -17 43 -11 72 15 l28 24 -25 0 c-14 0
-38 -7 -53 -15z M9470 1850 c0 -7 3 -10 7 -7 3 4 3 10 0 14 -4 3 -7 0 -7 -7z
M8770 1695 c0 -3 2 -5 5 -5 3 0 5 2 5 5 0 3 -2 5 -5 5 -3 0 -5 -2 -5 -5z
M10482 1516 c7 -33 -14 -56 -49 -56 -22 0 -24 -3 -19 -22 23 -80 30 -128 18
-140 -14 -14 -42 45 -42 91 0 42 -14 46 -63 19 -38 -21 -42 -28 -47 -70 -6
-46 -19 -73 -26 -53 -15 40 -46 75 -67 75 -23 0 -23 0 -14 -77 5 -43 14 -81
20 -85 18 -12 186 -9 208 2 10 6 19 17 19 25 0 24 20 18 50 -15 19 -20 38 -30
58 -30 25 0 30 -5 36 -32 6 -30 8 -31 18 -14 8 14 7 25 -6 46 -20 35 -20 44
-1 36 12 -4 14 0 9 22 -4 15 -11 32 -15 38 -5 6 -13 42 -18 80 -13 84 -43 176
-61 182 -9 3 -11 -3 -8 -22z m22 -88 c22 -54 41 -207 28 -220 -6 -6 -14 -9
-17 -6 -18 17 -59 233 -49 250 10 17 25 7 38 -24z m-159 -48 c-3 -5 1 -10 11
-10 12 0 15 -6 12 -24 -4 -18 0 -26 14 -30 14 -3 18 -10 14 -23 -5 -15 0 -18
24 -18 33 0 44 -18 14 -24 -10 -1 -27 -10 -36 -18 -18 -16 -52 -10 -80 15 -20
16 -26 102 -8 102 6 0 10 9 10 20 0 11 7 20 16 20 8 0 12 -4 9 -10z m-117 -94
c3 -12 -1 -17 -10 -14 -7 3 -15 13 -16 22 -3 12 1 17 10 14 7 -3 15 -13 16
-22z m57 -36 c4 -6 -6 -10 -24 -10 -16 0 -33 5 -36 10 -4 6 6 10 24 10 16 0
33 -4 36 -10z m-37 -31 c-2 -6 -8 -10 -13 -10 -5 0 -11 4 -13 10 -2 6 4 11 13
11 9 0 15 -5 13 -11z m62 7 c0 -3 -5 -8 -12 -12 -7 -4 -8 -3 -4 4 7 12 16 16
16 8z M8650 1400 c0 -7 3 -10 7 -7 3 4 3 10 0 14 -4 3 -7 0 -7 -7z M8906 1298
c-3 -18 -7 -54 -10 -80 l-6 -48 53 0 c67 0 78 8 93 67 15 60 11 66 -17 19 -26
-45 -45 -46 -54 -3 -15 76 -50 103 -59 45z m44 -28 c0 -5 -4 -10 -10 -10 -5 0
-10 5 -10 10 0 6 5 10 10 10 6 0 10 -4 10 -10z m-2 -42 c-6 -18 -28 -21 -28
-4 0 9 7 16 16 16 9 0 14 -5 12 -12z M9084 1235 c-19 -29 -12 -58 13 -53 27 5
38 78 12 78 -5 0 -16 -11 -25 -25z M10298 1139 c-103 -9 -104 -9 -112 -53 -15
-77 -62 -71 -52 6 5 39 4 49 -6 46 -18 -6 -29 -99 -13 -116 7 -8 39 -16 72
-19 66 -6 73 0 73 70 0 18 4 27 13 25 7 -3 13 -28 15 -66 l3 -62 51 -15 c28
-8 52 -14 53 -12 4 5 35 173 35 190 0 19 4 19 -132 6z m-61 -45 c-9 -9 -28 6
-21 18 4 6 10 6 17 -1 6 -6 8 -13 4 -17z m103 0 c0 -31 -23 -28 -28 4 -2 15 2
22 12 22 11 0 16 -9 16 -26z m32 -44 c-28 -57 -48 -66 -38 -18 6 33 43 81 56
73 4 -2 -4 -27 -18 -55z m-152 15 c0 -8 -4 -15 -10 -15 -5 0 -10 7 -10 15 0 8
5 15 10 15 6 0 10 -7 10 -15z m-20 -30 c0 -3 -2 -5 -5 -5 -3 0 -5 2 -5 5 0 3
2 5 5 5 3 0 5 -2 5 -5z m195 -14 c3 -5 1 -12 -5 -16 -5 -3 -10 1 -10 9 0 18 6
21 15 7z m-25 -36 c0 -8 -4 -15 -9 -15 -13 0 -22 16 -14 24 11 11 23 6 23 -9z
M10033 1070 c-13 -41 -25 -97 -28 -125 l-5 -50 25 50 c27 55 38 111 33 165 -3
32 -5 28 -25 -40z M8610 1120 c0 -7 3 -10 7 -7 3 4 3 10 0 14 -4 3 -7 0 -7 -7z
M8633 1083 c4 -3 10 -3 14 0 3 4 0 7 -7 7 -7 0 -10 -3 -7 -7z M8645 1051 c-4
-7 -16 -10 -27 -8 -18 5 -19 4 -4 -12 20 -22 20 -31 -1 -47 -10 -7 -15 -16
-11 -20 4 -4 15 -1 23 6 26 22 41 -2 25 -40 -9 -22 -10 -34 -2 -42 29 -29 52
117 24 152 -14 17 -21 20 -27 11z m25 -47 c0 -14 -4 -23 -10 -19 -5 3 -10 15
-10 26 0 10 5 19 10 19 6 0 10 -12 10 -26z M8580 1005 c0 -3 2 -5 5 -5 3 0 5
2 5 5 0 3 -2 5 -5 5 -3 0 -5 -2 -5 -5z M10084 973 c-3 -10 -12 -33 -20 -51
-17 -41 -18 -46 -5 -50 12 -4 50 72 51 101 0 9 -5 17 -10 17 -6 0 -13 -8 -16
-17z M10156 938 c-8 -13 -17 -33 -21 -45 -3 -13 -11 -23 -16 -23 -16 0 -10
-30 9 -37 9 -4 21 -13 26 -21 7 -12 15 -3 37 39 33 64 35 85 10 99 -27 14 -29
13 -45 -12z m54 -12 c0 -11 -19 -15 -25 -6 -3 5 1 10 9 10 9 0 16 -2 16 -4z
m-22 -48 c-6 -18 -28 -21 -28 -4 0 9 7 16 16 16 9 0 14 -5 12 -12z M8610 910
c0 -5 5 -10 11 -10 5 0 7 5 4 10 -3 6 -8 10 -11 10 -2 0 -4 -4 -4 -10z M9000
895 c0 -3 2 -5 5 -5 3 0 5 2 5 5 0 3 -2 5 -5 5 -3 0 -5 -2 -5 -5z M8675 870
c-3 -5 -1 -10 4 -10 6 0 11 5 11 10 0 6 -2 10 -4 10 -3 0 -8 -4 -11 -10z
M10540 780 c0 -7 3 -10 7 -7 3 4 3 10 0 14 -4 3 -7 0 -7 -7z M12290 445 c0 -3
2 -5 5 -5 3 0 5 2 5 5 0 3 -2 5 -5 5 -3 0 -5 -2 -5 -5z M12045 430 c4 -6 11
-8 16 -5 14 9 11 15 -7 15 -8 0 -12 -5 -9 -10z M12574 358 c4 -13 10 -31 13
-40 5 -16 2 -17 -26 -7 -43 15 -51 4 -12 -15 17 -9 38 -30 46 -46 34 -66 41
-8 10 78 -19 50 -44 75 -31 30z M12020 365 c0 -3 2 -5 5 -5 3 0 5 2 5 5 0 3
-2 5 -5 5 -3 0 -5 -2 -5 -5z M10260 355 c0 -3 2 -5 5 -5 3 0 5 2 5 5 0 3 -2 5
-5 5 -3 0 -5 -2 -5 -5z M12520 350 c0 -5 5 -10 10 -10 6 0 10 5 10 10 0 6 -4
10 -10 10 -5 0 -10 -4 -10 -10z M12610 355 c0 -3 2 -5 5 -5 3 0 5 2 5 5 0 3
-2 5 -5 5 -3 0 -5 -2 -5 -5z M10200 285 c0 -3 2 -5 5 -5 3 0 5 2 5 5 0 3 -2 5
-5 5 -3 0 -5 -2 -5 -5z M10220 280 c0 -5 5 -10 10 -10 6 0 10 5 10 10 0 6 -4
10 -10 10 -5 0 -10 -4 -10 -10z M10260 285 c0 -3 2 -5 5 -5 3 0 5 2 5 5 0 3
-2 5 -5 5 -3 0 -5 -2 -5 -5z M10823 283 c4 -3 10 -3 14 0 3 4 0 7 -7 7 -7 0
-10 -3 -7 -7z M10160 275 c0 -3 2 -5 5 -5 3 0 5 2 5 5 0 3 -2 5 -5 5 -3 0 -5
-2 -5 -5z M2003 253 c4 -3 10 -3 14 0 3 4 0 7 -7 7 -7 0 -10 -3 -7 -7z M2103
253 c4 -3 10 -3 14 0 3 4 0 7 -7 7 -7 0 -10 -3 -7 -7z M2895 251 c-3 -6 -15
-11 -26 -11 -22 0 -23 -4 -9 -31 13 -23 48 -25 76 -4 17 13 17 14 2 15 -9 0
-20 -4 -23 -10 -3 -5 -13 -10 -22 -10 -13 0 -13 3 2 26 9 14 14 28 12 31 -3 2
-8 0 -12 -6z M2950 252 c0 -6 5 -14 10 -17 6 -3 10 -15 10 -26 0 -18 8 -19
125 -19 83 0 125 4 125 11 0 6 -15 9 -37 7 -26 -2 -38 1 -38 10 0 19 -18 16
-25 -4 -6 -16 -9 -15 -30 9 l-23 26 -29 -24 c-42 -36 -70 -28 -33 9 21 21 19
28 -4 14 -15 -9 -23 -9 -35 1 -10 8 -16 9 -16 3z m122 -37 c0 -5 -5 -11 -11
-13 -6 -2 -11 4 -11 13 0 9 5 15 11 13 6 -2 11 -8 11 -13z M3460 250 c0 -5 5
-10 10 -10 6 0 10 5 10 10 0 6 -4 10 -10 10 -5 0 -10 -4 -10 -10z M3651 234
c-29 -37 -26 -55 4 -21 23 25 32 47 21 47 -3 0 -14 -12 -25 -26z M1430 245 c0
-3 2 -5 5 -5 3 0 5 2 5 5 0 3 -2 5 -5 5 -3 0 -5 -2 -5 -5z M3746 233 c-14 -14
-20 -15 -23 -5 -4 10 -8 10 -19 1 -21 -17 -17 -29 9 -29 27 1 61 24 55 40 -2
6 -10 4 -22 -7z M3802 233 l-13 -23 188 -1 c103 -1 256 -2 338 -1 444 1 475 2
475 13 0 8 -16 10 -47 6 -27 -3 -56 -1 -65 4 -12 6 -18 6 -18 -1 0 -5 -7 -10
-15 -10 -9 0 -12 6 -9 15 4 9 0 15 -10 15 -9 0 -16 -4 -16 -10 0 -5 -9 -10
-20 -10 -11 0 -20 5 -20 10 0 6 -4 10 -10 10 -5 0 -10 -6 -10 -12 0 -15 -156
-18 -178 -4 -8 4 -23 1 -38 -8 -19 -13 -32 -15 -62 -7 -20 5 -96 9 -168 9 -72
-1 -136 2 -142 6 -6 3 -13 2 -16 -3 -6 -10 -56 -8 -74 3 -6 3 -13 2 -17 -4
-10 -16 -33 -12 -37 8 -3 15 -6 14 -16 -5z M4834 239 c-20 -34 110 -48 289
-32 86 8 88 8 73 28 -12 15 -18 17 -24 7 -6 -8 -35 -12 -98 -10 -50 1 -96 -2
-102 -6 -7 -4 -19 -2 -27 4 -12 10 -18 10 -30 0 -11 -9 -19 -8 -37 4 -27 19
-34 20 -44 5z m23 -16 c-4 -3 -7 0 -7 7 0 7 3 10 7 7 3 -4 3 -10 0 -14z M2008
229 c-16 -4 -211 -8 -435 -8 -225 -1 -435 -5 -468 -10 -50 -7 -35 -9 95 -10
85 -1 317 -4 515 -6 198 -2 352 -2 342 1 -11 3 -16 12 -13 20 7 18 -4 23 -36
13z M2151 231 c-68 -5 -73 -7 -56 -21 13 -11 45 -15 115 -16 53 0 102 -4 108
-8 8 -5 12 1 12 18 0 23 -4 26 -32 26 -18 0 -42 2 -53 4 -11 1 -53 0 -94 -3z
m93 -22 c-3 -5 -10 -7 -15 -3 -5 3 -7 10 -3 15 3 5 10 7 15 3 5 -3 7 -10 3
-15z m-94 7 c0 -3 -4 -8 -10 -11 -5 -3 -10 -1 -10 4 0 6 5 11 10 11 6 0 10 -2
10 -4z M2380 210 c0 -28 2 -30 28 -24 47 11 92 33 92 43 0 15 -6 14 -25 -6
-12 -12 -19 -13 -24 -5 -5 9 -12 8 -27 -3 -27 -20 -36 -19 -29 5 4 11 2 20 -4
20 -6 0 -11 -14 -11 -30z M2522 220 c-16 -26 -15 -30 3 -30 19 0 31 28 19 40
-6 6 -14 2 -22 -10z M2636 225 c-6 -17 -46 -21 -46 -5 0 6 -4 10 -10 10 -25 0
-7 -28 21 -34 51 -10 189 -7 189 4 0 6 -9 10 -20 10 -12 0 -20 7 -20 17 0 14
-4 13 -23 -5 -24 -23 -40 -21 -30 4 3 8 1 14 -5 14 -6 0 -12 -6 -15 -12 -3
-10 -7 -10 -19 0 -13 10 -17 10 -22 -3z M2815 220 c9 -31 25 -50 25 -30 0 8
-8 24 -16 35 -16 19 -16 19 -9 -5z M3273 233 c4 -3 10 -3 14 0 3 4 0 7 -7 7
-7 0 -10 -3 -7 -7z M3495 231 c-6 -6 -56 -14 -113 -19 -57 -5 -109 -15 -115
-21 -9 -10 -4 -11 23 -7 19 3 69 8 111 11 42 4 88 13 103 20 24 13 26 12 26
-6 0 -10 4 -19 9 -19 9 0 21 24 21 41 0 12 -53 12 -65 0z M3596 225 c-3 -8 -1
-15 3 -15 5 0 11 7 15 15 3 8 1 15 -3 15 -5 0 -11 -7 -15 -15z M5235 229 c-4
-6 -5 -13 -2 -16 7 -7 27 6 27 18 0 12 -17 12 -25 -2z M426 223 c-2 -2 -63 -5
-137 -8 -74 -2 -145 -8 -159 -14 -18 -7 52 -10 240 -10 302 1 553 9 545 18 -7
6 -91 13 -145 11 -53 -1 -84 -1 -218 3 -67 2 -124 2 -126 0z M9533 193 c4 -3
10 -3 14 0 3 4 0 7 -7 7 -7 0 -10 -3 -7 -7z"/>
</g>
</svg>
