<?xml version="1.0" standalone="no"?>
<!DOCTYPE svg PUBLIC "-//W3C//DTD SVG 20010904//EN"
 "http://www.w3.org/TR/2001/REC-SVG-20010904/DTD/svg10.dtd">
<svg version="1.0" xmlns="http://www.w3.org/2000/svg"
 width="349.000000pt" height="538.000000pt" viewBox="0 0 349.000000 538.000000"
 preserveAspectRatio="xMidYMid meet">
<metadata>
Created by potrace 1.14, written by Peter Selinger 2001-2017
</metadata>
<g transform="translate(0.000000,538.000000) scale(0.100000,-0.100000)"
fill="#000000" stroke="none">
<path d="M1104 5171 c-102 -28 -154 -55 -206 -109 -69 -70 -88 -142 -97 -357
-9 -222 -24 -251 -237 -457 -63 -61 -138 -143 -166 -182 -29 -39 -56 -73 -60
-76 -25 -19 -69 -148 -89 -261 -20 -119 -21 -130 -6 -222 14 -86 19 -101 54
-142 l38 -46 21 26 c16 20 23 47 28 105 15 183 64 305 182 450 85 105 112 132
203 205 65 52 141 138 141 160 0 8 6 15 13 18 6 2 8 8 4 13 -8 8 -30 -14 -92
-95 -16 -21 -43 -47 -58 -56 -101 -61 -357 -370 -357 -432 0 -6 -14 -51 -30
-100 -17 -48 -34 -119 -37 -156 -5 -62 -21 -97 -31 -69 -2 7 -9 18 -15 25 -7
7 -13 19 -15 27 -18 81 -24 122 -25 160 -2 78 31 252 57 302 33 63 88 137 103
138 7 0 10 7 6 17 -5 12 -2 15 10 10 11 -4 17 -1 18 8 2 27 4 29 43 73 35 37
67 58 52 33 -4 -5 2 -8 11 -7 11 2 19 13 21 27 2 15 32 53 73 94 94 93 156
187 168 250 5 28 9 115 10 195 0 171 17 233 83 300 44 45 69 60 143 84 63 20
245 30 245 13 0 -8 3 -7 9 2 6 10 13 11 29 2 11 -6 29 -11 40 -11 26 0 122
-40 122 -51 0 -5 4 -9 9 -9 15 0 100 -54 101 -63 0 -10 41 -46 53 -47 9 0 45
-38 73 -76 10 -14 24 -31 30 -38 5 -6 30 -40 54 -76 58 -85 144 -169 206 -200
27 -14 51 -28 54 -32 3 -4 26 -7 50 -6 25 1 61 -2 80 -6 35 -7 37 -6 108 73
59 68 75 92 91 149 11 37 33 93 48 124 28 55 29 56 50 40 22 -18 55 -76 47
-84 -2 -3 3 -22 12 -43 8 -21 17 -61 19 -89 4 -58 31 -98 101 -147 71 -49 146
-170 181 -293 7 -23 30 -40 119 -90 157 -87 206 -126 159 -126 -8 0 -15 -3
-15 -7 0 -5 -18 -9 -40 -11 -22 -1 -40 1 -40 5 0 13 -181 15 -212 2 -41 -17
-25 -29 39 -29 30 0 79 -7 109 -16 52 -15 58 -14 150 9 52 14 98 28 101 31 17
17 -100 104 -242 180 -92 50 -98 56 -119 123 -34 107 -97 199 -183 263 -66 51
-69 55 -82 169 -18 144 -70 242 -120 226 -32 -10 -87 -127 -112 -240 -11 -51
-20 -67 -59 -102 -26 -23 -55 -58 -65 -77 l-18 -34 -27 20 c-16 11 -53 23 -86
27 -33 4 -72 14 -89 23 -38 20 -141 127 -185 193 -125 186 -296 324 -455 368
-98 27 -218 30 -301 8z m1426 -246 c0 -3 -2 -5 -5 -5 -3 0 -5 2 -5 5 0 3 2 5
5 5 3 0 5 -2 5 -5z m-1953 -742 c-4 -3 -7 0 -7 7 0 7 3 10 7 7 3 -4 3 -10 0
-14z M1030 5075 c0 -3 2 -5 5 -5 3 0 5 2 5 5 0 3 -2 5 -5 5 -3 0 -5 -2 -5 -5z
M930 4985 c0 -3 2 -5 5 -5 3 0 5 2 5 5 0 3 -2 5 -5 5 -3 0 -5 -2 -5 -5z M2490
4905 c0 -3 2 -5 5 -5 3 0 5 2 5 5 0 3 -2 5 -5 5 -3 0 -5 -2 -5 -5z M880 4895
c0 -3 2 -5 5 -5 3 0 5 2 5 5 0 3 -2 5 -5 5 -3 0 -5 -2 -5 -5z M1300 4843 c8
-3 34 -13 57 -24 24 -10 49 -19 56 -19 7 0 19 -6 26 -12 10 -11 11 -9 5 5 -9
24 -85 57 -127 56 -18 0 -25 -3 -17 -6z M1480 4735 c0 -3 2 -5 5 -5 3 0 5 2 5
5 0 3 -2 5 -5 5 -3 0 -5 -2 -5 -5z M1498 4626 c-7 -39 -4 -55 8 -44 3 3 4 23
2 44 l-3 39 -7 -39z M1478 4523 c-21 -25 4 -45 93 -76 96 -33 155 -45 145 -29
-3 5 -18 13 -33 17 -15 3 -45 15 -67 26 -22 10 -46 19 -54 19 -7 0 -27 13 -42
29 -25 25 -31 27 -42 14z M2207 4487 c-11 -29 -9 -43 4 -30 6 6 9 19 7 29 -3
18 -4 18 -11 1z M2271 4385 c-1 -45 30 -105 54 -105 20 0 19 20 -2 50 -10 14
-26 41 -35 60 l-16 35 -1 -40z M1785 4400 c3 -5 8 -10 11 -10 2 0 4 5 4 10 0
6 -5 10 -11 10 -5 0 -7 -4 -4 -10z M1840 4370 c14 -11 29 -20 34 -20 6 0 46
-23 90 -52 86 -55 177 -142 198 -189 7 -16 19 -29 26 -29 17 0 -10 53 -51 99
-73 85 -256 211 -303 211 -16 0 -16 -3 6 -20z M2185 4355 c-6 -11 -10 -47 -9
-80 2 -110 115 -266 245 -335 77 -41 101 -34 27 8 -76 44 -185 155 -217 222
-18 38 -28 78 -31 130 -5 58 -8 70 -15 55z M941 4350 c-7 -4 -13 -11 -13 -15
1 -17 74 -55 137 -71 63 -16 71 -16 137 0 39 9 92 29 119 43 42 21 56 24 101
18 108 -15 299 -74 343 -106 6 -4 59 -32 119 -64 60 -31 123 -67 139 -81 15
-13 33 -24 38 -24 14 0 22 -3 49 -17 20 -10 27 -10 42 4 22 20 23 34 3 27 -25
-10 -85 6 -107 28 -23 23 -36 31 -218 125 -149 78 -283 120 -440 138 -56 6
-71 2 -130 -37 -14 -8 -49 -22 -78 -29 -49 -12 -59 -11 -122 10 -38 13 -78 32
-88 41 -11 11 -24 15 -31 10z m349 -25 c0 -3 -2 -5 -5 -5 -3 0 -5 2 -5 5 0 3
2 5 5 5 3 0 5 -2 5 -5z M610 4215 c0 -3 2 -5 5 -5 3 0 5 2 5 5 0 3 -2 5 -5 5
-3 0 -5 -2 -5 -5z M720 4165 c0 -3 2 -5 5 -5 3 0 5 2 5 5 0 3 -2 5 -5 5 -3 0
-5 -2 -5 -5z M536 4144 c-22 -21 -20 -27 4 -12 11 7 20 16 20 20 0 12 -7 10
-24 -8z M2344 4115 c-9 -22 23 -65 47 -65 30 0 35 28 9 56 -27 27 -48 31 -56
9z M3050 4115 c0 -3 2 -5 5 -5 3 0 5 2 5 5 0 3 -2 5 -5 5 -3 0 -5 -2 -5 -5z
M480 4105 c0 -3 2 -5 5 -5 3 0 5 2 5 5 0 3 -2 5 -5 5 -3 0 -5 -2 -5 -5z M2550
4034 c0 -40 111 -88 139 -59 13 13 12 15 -5 20 -10 4 -38 15 -62 26 -42 19
-72 24 -72 13z M573 4013 c4 -3 10 -3 14 0 3 4 0 7 -7 7 -7 0 -10 -3 -7 -7z
M2787 3966 c-30 -39 -74 -62 -137 -71 -55 -8 -60 -13 -37 -30 16 -11 24 -11
52 1 19 8 45 14 59 14 29 0 106 74 106 101 0 28 -14 23 -43 -15z M2539 3889
c13 -11 27 -17 30 -13 7 7 -28 34 -43 34 -6 -1 0 -10 13 -21z M2790 3884 c0
-9 16 -34 35 -57 19 -22 35 -46 35 -52 0 -7 11 -21 25 -31 14 -10 25 -29 25
-41 0 -13 5 -23 10 -23 6 0 10 -7 10 -15 0 -9 9 -33 19 -53 12 -24 22 -71 27
-128 3 -49 8 -98 9 -109 1 -11 3 -25 4 -32 0 -6 9 -19 19 -29 35 -36 25 -353
-17 -515 -28 -106 -62 -203 -75 -211 -6 -4 -7 -8 -3 -8 14 0 -74 -157 -128
-229 -50 -66 -203 -203 -218 -194 -6 3 -7 1 -3 -5 4 -7 -4 -17 -21 -24 -15 -7
-40 -20 -55 -31 -16 -10 -33 -15 -39 -11 -8 4 -9 3 -5 -4 4 -7 0 -12 -10 -12
-10 0 -14 -3 -11 -7 12 -11 -98 -60 -263 -116 -36 -12 -67 -24 -70 -27 -3 -3
-9 -6 -15 -6 -5 -1 -25 -4 -43 -8 -25 -4 -31 -3 -26 7 4 6 -4 3 -17 -9 -23
-20 -71 -36 -149 -49 -19 -3 -47 -18 -63 -33 -21 -20 -30 -23 -36 -14 -4 7
-15 10 -24 6 -10 -3 -17 -1 -17 5 0 6 -14 11 -30 11 l-30 0 0 -768 c0 -422 3
-833 7 -914 l6 -148 25 0 24 0 -5 103 c-3 57 -2 110 3 117 5 7 3 21 -2 30 -8
13 -7 25 4 48 12 23 13 32 4 35 -11 4 -20 81 -17 142 1 11 0 63 -1 115 -6 193
-1 335 11 332 15 -3 14 15 -1 21 -19 7 -13 235 6 250 8 6 7 10 -1 14 -16 6
-17 64 -2 61 21 -5 21 23 1 29 -12 3 -18 11 -16 18 3 7 14 11 25 8 23 -6 25 3
4 23 -11 11 -15 12 -15 3 0 -10 -3 -10 -13 0 -9 10 -9 15 -1 18 7 2 9 13 7 25
-4 11 0 24 8 29 12 8 11 11 -2 19 -18 10 -10 109 11 135 7 9 8 15 0 20 -15 9
-12 52 5 59 8 3 15 15 15 26 0 12 -4 19 -8 16 -4 -2 -9 9 -10 26 -2 27 -1 28
13 15 18 -19 28 -284 10 -291 -6 -2 -6 -8 3 -17 18 -19 16 -55 -2 -40 -9 8
-16 8 -20 2 -4 -5 2 -12 12 -15 18 -6 19 -23 20 -254 3 -422 2 -487 -8 -490
-13 -5 -13 -32 -1 -32 6 0 6 -12 1 -29 -4 -17 -5 -31 0 -33 11 -4 16 -90 7
-105 -4 -6 -3 -14 2 -17 5 -3 7 -93 5 -211 l-5 -205 27 0 26 0 -7 902 c-4 497
-9 906 -12 911 -2 4 11 7 30 7 101 0 428 95 570 166 322 161 546 435 632 771
36 144 65 541 39 536 -15 -3 -22 33 -38 182 -11 105 -18 132 -53 205 -54 114
-173 255 -173 204z m-1030 -2099 c0 -3 -2 -5 -5 -5 -3 0 -5 2 -5 5 0 3 2 5 5
5 3 0 5 -2 5 -5z M2730 3820 c0 -5 5 -10 11 -10 5 0 7 5 4 10 -3 6 -8 10 -11
10 -2 0 -4 -4 -4 -10z M2640 3805 c0 -8 7 -15 15 -15 8 0 15 7 15 15 0 8 -7
15 -15 15 -8 0 -15 -7 -15 -15z M2762 3755 c-1 -24 3 -35 13 -35 21 0 29 38
11 55 -21 21 -23 19 -24 -20z M2670 3775 c0 -3 2 -5 5 -5 3 0 5 2 5 5 0 3 -2
5 -5 5 -3 0 -5 -2 -5 -5z M2680 3730 c0 -5 7 -10 15 -10 8 0 15 5 15 10 0 6
-7 10 -15 10 -8 0 -15 -4 -15 -10z M2890 3705 c0 -3 2 -5 5 -5 3 0 5 2 5 5 0
3 -2 5 -5 5 -3 0 -5 -2 -5 -5z M2950 3555 c0 -3 2 -5 5 -5 3 0 5 2 5 5 0 3 -2
5 -5 5 -3 0 -5 -2 -5 -5z M333 3260 c0 -25 2 -35 4 -22 2 12 2 32 0 45 -2 12
-4 2 -4 -23z M330 3138 c0 -46 26 -174 51 -258 22 -69 25 -78 58 -152 12 -26
21 -50 21 -53 0 -21 64 -135 77 -135 8 0 13 3 11 8 -2 4 -21 42 -42 86 -21 43
-42 92 -46 110 -19 73 -44 151 -51 156 -10 7 -26 73 -34 140 -11 81 -12 88
-29 112 -16 22 -16 22 -16 -14z M540 2520 c0 -9 47 -103 73 -145 123 -201 330
-364 592 -465 118 -45 316 -90 394 -90 34 1 35 2 17 15 -11 8 -30 15 -43 15
-29 0 -220 50 -328 87 -96 31 -298 134 -351 177 -75 62 -206 191 -220 217 -7
15 -20 34 -29 42 -8 9 -16 25 -18 37 -2 12 -16 34 -30 50 -15 15 -27 38 -27
49 0 12 -6 21 -15 21 -8 0 -15 -4 -15 -10z M860 2165 c0 -3 2 -5 5 -5 3 0 5 2
5 5 0 3 -2 5 -5 5 -3 0 -5 -2 -5 -5z M1610 1855 c0 -3 2 -5 5 -5 3 0 5 2 5 5
0 3 -2 5 -5 5 -3 0 -5 -2 -5 -5z M1710 1155 c0 -3 2 -5 5 -5 3 0 5 2 5 5 0 3
-2 5 -5 5 -3 0 -5 -2 -5 -5z M1720 1135 c0 -3 2 -5 5 -5 3 0 5 2 5 5 0 3 -2 5
-5 5 -3 0 -5 -2 -5 -5z M1695 1060 c3 -5 8 -10 11 -10 2 0 4 5 4 10 0 6 -5 10
-11 10 -5 0 -7 -4 -4 -10z M1720 960 c0 -7 3 -10 7 -7 3 4 3 10 0 14 -4 3 -7
0 -7 -7z M1720 490 c0 -7 3 -10 7 -7 3 4 3 10 0 14 -4 3 -7 0 -7 -7z M1710
430 c0 -7 3 -10 7 -7 3 4 3 10 0 14 -4 3 -7 0 -7 -7z"/>
</g>
</svg>
