<?xml version="1.0" standalone="no"?>
<!DOCTYPE svg PUBLIC "-//W3C//DTD SVG 20010904//EN"
 "http://www.w3.org/TR/2001/REC-SVG-20010904/DTD/svg10.dtd">
<svg version="1.0" xmlns="http://www.w3.org/2000/svg"
 width="349.000000pt" height="538.000000pt" viewBox="0 0 349.000000 538.000000"
 preserveAspectRatio="xMidYMid meet">
<metadata>
Created by potrace 1.14, written by Peter Selinger 2001-2017
</metadata>
<g transform="translate(0.000000,538.000000) scale(0.100000,-0.100000)"
fill="#000000" stroke="none">
<path d="M1114 5175 c-234 -54 -313 -177 -314 -490 -1 -187 -10 -205 -231
-430 -231 -237 -285 -324 -320 -525 -21 -120 -22 -128 -7 -222 14 -83 21 -103
49 -137 57 -69 83 -47 94 78 15 188 62 305 181 451 86 106 101 121 198 200 37
30 82 73 100 95 37 45 71 105 59 105 -13 -1 -63 -48 -63 -59 0 -6 -32 -41 -72
-78 -106 -100 -215 -212 -257 -263 -20 -25 -42 -51 -49 -58 -39 -42 -122 -272
-131 -364 -7 -77 -11 -84 -34 -58 -9 11 -15 20 -13 20 2 0 -3 28 -10 63 -17
81 -17 192 1 242 8 22 15 52 15 67 0 15 5 30 10 33 6 3 10 19 10 34 0 25 29
68 30 45 1 -5 7 6 15 24 8 18 19 31 25 27 6 -4 10 -3 9 2 -3 19 14 53 27 53 8
0 14 6 14 13 0 9 3 9 9 -1 6 -10 10 -7 15 12 3 14 23 37 44 51 20 13 46 38 57
55 11 16 26 28 32 25 7 -2 12 -1 12 3 -5 31 7 56 46 96 130 136 185 238 183
344 -1 90 12 232 22 232 16 0 21 34 5 42 -8 5 -15 17 -15 26 0 15 2 15 11 2 9
-13 10 -12 5 3 -8 24 21 80 36 71 7 -5 9 -2 5 8 -5 16 33 58 53 58 6 0 10 5
10 11 0 6 7 9 15 5 8 -3 15 -2 15 3 0 24 109 42 216 36 112 -6 304 -51 312
-74 2 -6 11 -11 19 -11 10 0 13 -6 9 -16 -4 -11 -1 -14 11 -12 31 6 161 -120
231 -222 28 -42 72 -97 97 -124 25 -27 45 -53 45 -57 0 -5 6 -9 13 -9 8 0 34
-16 60 -36 39 -30 54 -36 100 -37 30 -1 53 -5 51 -8 -2 -3 15 -5 37 -3 41 3
109 40 109 60 0 6 10 19 22 30 11 10 34 39 50 64 16 25 32 44 35 42 4 -2 11 6
15 18 5 13 4 19 -2 15 -17 -10 -11 7 8 22 9 8 11 11 4 8 -10 -5 -13 -1 -10 16
2 13 8 23 14 22 5 -1 15 7 22 18 7 10 8 19 3 19 -5 0 -4 11 2 25 22 46 48 28
72 -51 8 -27 12 -58 9 -69 -3 -12 -2 -15 3 -8 5 7 9 -13 10 -49 1 -64 15 -83
113 -157 53 -39 64 -51 102 -111 48 -74 71 -127 63 -141 -4 -6 -4 -14 1 -18 5
-3 14 -19 19 -36 6 -16 19 -32 30 -35 26 -7 80 -39 114 -67 15 -12 40 -25 54
-29 26 -6 47 -30 47 -53 0 -7 -42 -9 -126 -6 -125 4 -151 0 -181 -31 -7 -7
-13 -16 -13 -21 -2 -33 -87 -87 -157 -98 -48 -8 -52 -13 -23 -38 19 -16 22
-16 36 -2 9 8 27 15 41 15 39 0 88 35 120 85 17 27 36 45 48 46 44 2 82 -3
128 -18 46 -14 54 -14 143 8 51 12 99 26 106 30 27 17 -80 99 -237 183 -92 50
-98 56 -119 123 -36 115 -95 195 -207 285 l-46 36 -12 102 c-17 151 -68 252
-120 235 -32 -10 -87 -129 -111 -240 -11 -51 -20 -66 -59 -101 -26 -23 -55
-58 -66 -77 l-18 -35 -27 20 c-16 11 -53 23 -87 27 -32 4 -75 17 -94 29 -45
27 -135 122 -179 187 -128 190 -299 328 -458 370 -87 22 -216 27 -288 10z
m-240 -283 c2 -4 -4 -13 -15 -20 -21 -13 -22 -12 -13 12 7 17 20 21 28 8z
m-407 -829 c-4 -3 -7 0 -7 7 0 7 3 10 7 7 3 -4 3 -10 0 -14z M930 4985 c0 -3
2 -5 5 -5 3 0 5 2 5 5 0 3 -2 5 -5 5 -3 0 -5 -2 -5 -5z M1295 4850 c-18 -6
-18 -8 5 -14 63 -19 137 -53 152 -71 10 -11 17 -15 18 -9 0 6 -15 27 -32 48
-35 38 -103 60 -143 46z M1483 4733 c4 -3 10 -3 14 0 3 4 0 7 -7 7 -7 0 -10
-3 -7 -7z M1490 4680 c0 -7 3 -10 7 -7 3 4 3 10 0 14 -4 3 -7 0 -7 -7z M2410
4675 c0 -3 2 -5 5 -5 3 0 5 2 5 5 0 3 -2 5 -5 5 -3 0 -5 -2 -5 -5z M1495 4648
c-2 -7 -6 -35 -9 -63 -3 -27 -6 -63 -8 -79 -3 -27 0 -29 82 -58 104 -36 141
-46 158 -41 16 6 5 23 -14 23 -8 0 -44 14 -79 30 -35 17 -69 30 -74 30 -6 0
-19 9 -29 21 -17 17 -19 30 -14 85 4 58 -2 84 -13 52z M2376 4632 c-2 -4 -1
-14 3 -21 6 -9 10 -7 14 8 5 20 -7 29 -17 13z M2380 4585 c0 -3 2 -5 5 -5 3 0
5 2 5 5 0 3 -2 5 -5 5 -3 0 -5 -2 -5 -5z M2200 4474 c0 -28 15 -25 23 6 3 13
0 20 -9 20 -8 0 -14 -10 -14 -26z M2267 4406 c-13 -32 29 -126 55 -126 24 0
23 7 -13 78 -33 68 -34 69 -42 48z M1780 4400 c0 -5 5 -10 10 -10 6 0 10 5 10
10 0 6 -4 10 -10 10 -5 0 -10 -4 -10 -10z M1820 4384 c0 -5 14 -15 31 -23 17
-7 52 -27 77 -45 26 -17 61 -38 77 -46 67 -35 179 -170 157 -192 -16 -16 -100
0 -120 23 -9 10 -20 19 -24 19 -5 0 -25 11 -46 23 -158 100 -366 187 -449 189
-5 0 -16 4 -25 9 -9 5 -40 11 -67 14 -28 3 -60 10 -71 17 -16 10 -23 9 -42 -8
-36 -32 -69 -49 -129 -68 -56 -17 -56 -17 -125 9 -38 14 -79 33 -92 41 -24 16
-52 13 -52 -6 0 -18 79 -60 143 -77 76 -19 148 -8 246 39 62 29 66 30 130 19
126 -21 294 -74 331 -105 8 -7 59 -35 114 -61 54 -27 111 -59 127 -73 16 -13
52 -32 79 -43 l49 -19 26 35 c18 23 25 41 20 54 -16 51 -139 168 -251 239 -51
32 -114 52 -114 36z M2174 4335 c-8 -46 0 -135 13 -144 6 -3 21 -28 34 -56 36
-79 167 -194 249 -220 36 -12 21 10 -28 37 -46 26 -92 67 -161 142 -47 52 -80
138 -81 208 0 66 -16 85 -26 33z M2830 4265 c0 -3 2 -5 5 -5 3 0 5 2 5 5 0 3
-2 5 -5 5 -3 0 -5 -2 -5 -5z M2920 4185 c0 -3 2 -5 5 -5 3 0 5 2 5 5 0 3 -2 5
-5 5 -3 0 -5 -2 -5 -5z M2347 4123 c-22 -21 12 -73 47 -73 27 0 31 29 6 56
-23 24 -41 30 -53 17z M2555 4040 c-12 -20 16 -49 66 -65 47 -16 52 -16 67 -1
14 14 12 17 -24 31 -21 9 -50 21 -64 27 -14 7 -28 13 -32 15 -4 2 -9 -1 -13
-7z M2530 3901 c0 -6 9 -15 20 -21 13 -7 20 -7 20 -1 0 6 -9 15 -20 21 -13 7
-20 7 -20 1z M2790 3877 c0 -15 48 -87 58 -87 4 0 8 -9 9 -21 2 -24 22 -51 32
-44 4 2 8 -9 8 -26 0 -16 9 -39 21 -52 12 -13 23 -41 26 -67 5 -40 19 -139 32
-227 3 -18 11 -39 18 -46 21 -21 32 -74 30 -147 -4 -150 -13 -250 -30 -315
-27 -107 -112 -334 -144 -385 -6 -8 -18 -31 -29 -51 -31 -56 -180 -203 -257
-252 -40 -26 -79 -54 -88 -62 -9 -9 -20 -13 -26 -10 -5 3 -10 2 -10 -4 0 -6
-7 -7 -17 -4 -9 4 -14 2 -10 -3 6 -10 -89 -64 -112 -64 -6 0 -30 -9 -52 -20
-22 -12 -59 -25 -82 -30 -45 -9 -142 -38 -217 -64 -25 -8 -71 -21 -102 -27
-32 -7 -55 -16 -52 -21 3 -4 0 -8 -5 -8 -6 0 -11 -4 -11 -10 0 -46 423 66 613
161 315 159 537 432 622 766 37 148 66 541 39 536 -14 -3 -30 80 -39 197 -11
132 -66 252 -163 355 -45 46 -62 55 -62 32z M2644 3815 c-9 -22 26 -72 37 -54
5 8 5 15 0 17 -5 2 -7 11 -4 21 6 23 -25 37 -33 16z M2730 3821 c0 -5 5 -13
10 -16 6 -3 10 -2 10 4 0 5 -4 13 -10 16 -5 3 -10 2 -10 -4z M2755 3777 c-13
-50 16 -76 45 -41 11 13 9 19 -13 41 l-26 26 -6 -26z M2680 3730 c0 -5 7 -10
15 -10 8 0 15 5 15 10 0 6 -7 10 -15 10 -8 0 -15 -4 -15 -10z M332 3245 c0
-16 2 -22 5 -12 2 9 2 23 0 30 -3 6 -5 -1 -5 -18z M330 3138 c0 -71 78 -380
100 -398 3 -3 17 -32 30 -65 28 -71 82 -175 158 -305 113 -191 322 -356 584
-459 114 -45 317 -91 400 -91 l38 0 2 -742 c1 -409 2 -772 3 -808 0 -36 2
-111 3 -167 l2 -103 30 0 31 0 -4 93 c-2 50 0 104 6 120 6 17 6 32 0 40 -6 7
-7 25 -1 44 18 69 27 29 26 -119 0 -84 0 -159 1 -165 0 -8 15 -13 32 -13 l31
0 -7 903 c-7 865 -10 938 -36 921 -5 -3 -36 -2 -70 2 -48 5 -63 11 -66 25 -3
10 -13 17 -22 16 -93 -11 -366 64 -517 143 -139 73 -231 139 -216 156 4 4 1 4
-6 0 -14 -8 -175 142 -166 155 2 4 -4 13 -13 20 -9 8 -25 32 -35 54 -22 46
-51 98 -58 105 -3 3 -12 19 -20 35 -8 17 -18 32 -21 35 -9 8 -69 137 -69 149
0 6 -3 11 -7 11 -5 0 -9 14 -10 32 -1 17 -6 34 -11 37 -4 3 -9 17 -9 30 -2 25
-13 58 -40 119 -8 18 -20 69 -27 113 -14 90 -46 143 -46 77z m1400 -1529 c0
-5 -4 -9 -10 -9 -5 0 -10 7 -10 16 0 8 5 12 10 9 6 -3 10 -10 10 -16z m-5 -59
c3 -5 1 -10 -4 -10 -6 0 -11 5 -11 10 0 6 2 10 4 10 3 0 8 -4 11 -10z m5 -86
c0 -8 -6 -14 -14 -14 -9 0 -12 7 -9 20 6 22 23 18 23 -6z m0 -48 c0 -8 -7 -16
-15 -20 -13 -4 -14 -2 -5 14 13 23 20 26 20 6z m0 -62 c0 -8 -4 -12 -10 -9 -5
3 -10 13 -10 21 0 8 5 12 10 9 6 -3 10 -13 10 -21z m-5 -54 c3 -5 4 -10 1 -10
-3 0 -8 5 -11 10 -3 6 -4 10 -1 10 3 0 8 -4 11 -10z m9 -84 c-5 -13 -10 -14
-20 -5 -10 8 -11 16 -3 32 10 18 13 18 20 4 5 -8 6 -23 3 -31z m-4 -46 c0 -5
-2 -10 -4 -10 -3 0 -8 5 -11 10 -3 6 -1 10 4 10 6 0 11 -4 11 -10z m4 -120
c-5 -67 -17 -100 -37 -100 -9 0 0 40 16 63 15 24 15 27 -1 47 -12 15 -16 34
-14 57 l4 35 18 -27 c12 -19 17 -41 14 -75z m1 -149 c-10 -22 -13 -141 -4
-146 14 -9 -4 -115 -20 -115 -17 0 -19 50 -2 60 10 6 12 13 6 17 -12 10 -14
183 -2 201 12 17 30 4 22 -17z m-15 -319 c2 -85 -2 -128 -11 -136 -12 -13 -12
-26 1 -26 6 0 10 7 10 15 0 8 4 15 8 15 5 0 8 -24 8 -52 -1 -40 -5 -53 -16
-53 -10 0 -14 8 -12 25 1 14 -3 35 -9 47 -7 14 -9 35 -4 60 5 21 7 64 6 97 -2
39 0 56 8 52 6 -4 11 -23 11 -44z"/>
</g>
</svg>
