<?xml version="1.0" standalone="no"?>
<!DOCTYPE svg PUBLIC "-//W3C//DTD SVG 20010904//EN"
 "http://www.w3.org/TR/2001/REC-SVG-20010904/DTD/svg10.dtd">
<svg version="1.0" xmlns="http://www.w3.org/2000/svg"
 width="341.000000pt" height="288.000000pt" viewBox="0 0 341.000000 288.000000"
 preserveAspectRatio="xMidYMid meet">
<metadata>
Created by potrace 1.14, written by Peter Selinger 2001-2017
</metadata>
<g transform="translate(0.000000,288.000000) scale(0.100000,-0.100000)"
fill="#000000" stroke="none">
<path d="M2578 2390 c-142 -30 -284 -80 -460 -164 -54 -25 -110 -46 -126 -46
-16 0 -37 -9 -47 -20 -20 -22 -13 -39 8 -22 8 7 18 8 22 4 5 -4 5 -2 1 5 -4 7
0 12 11 11 10 0 25 2 34 6 17 7 44 -37 34 -55 -4 -5 -1 -9 6 -9 7 0 9 11 5 35
-6 32 -5 35 34 55 22 11 40 19 40 17 0 -16 -68 -125 -75 -120 -4 5 -5 3 -2 -3
11 -19 -64 -136 -79 -122 -10 10 26 76 44 80 10 3 19 12 19 21 0 14 -5 13 -29
-4 -18 -13 -28 -16 -26 -8 2 7 -1 14 -7 14 -5 1 -18 5 -28 10 -17 7 -17 9 5
34 12 14 16 21 9 14 -9 -8 -20 -9 -30 -3 -12 6 -50 -12 -139 -66 -68 -41 -131
-74 -140 -74 -9 0 -29 -14 -44 -32 -22 -28 -33 -33 -70 -33 -41 0 -43 -1 -46
-32 -3 -33 -9 -37 -49 -34 -21 2 -57 -35 -47 -50 4 -6 -161 -147 -203 -172 -7
-5 -21 1 -33 13 -26 26 -81 27 -103 2 -23 -25 -21 -78 2 -101 19 -19 18 -21
-67 -103 -270 -260 -453 -518 -502 -706 -97 -367 323 -391 968 -56 79 41 151
74 161 74 20 0 71 36 71 51 0 5 -7 9 -15 9 -8 0 -15 -6 -15 -14 0 -19 -21 -25
-45 -13 -18 9 -18 8 -7 -6 11 -13 10 -15 -7 -10 -11 3 -26 21 -34 40 -8 20
-17 32 -20 26 -3 -5 1 -22 9 -38 16 -31 16 -32 -40 -65 -26 -16 -38 -19 -33
-9 3 8 19 46 35 84 41 96 57 124 79 140 17 12 20 12 20 -1 0 -8 -4 -14 -9 -14
-4 0 -8 -6 -8 -13 0 -7 -9 -18 -20 -25 -11 -7 -20 -17 -20 -22 0 -6 11 -4 24
5 22 15 56 12 56 -5 0 -4 7 -10 15 -14 9 -3 15 0 15 10 0 9 -9 18 -21 21 -29
8 -17 70 19 100 26 22 26 22 5 23 -29 0 -37 15 -17 34 21 21 27 20 21 -3 -3
-14 -1 -18 9 -14 19 7 18 42 -2 50 -45 17 -86 -44 -44 -67 18 -9 12 -15 -56
-50 -85 -45 -84 -45 -84 -26 0 41 -93 61 -123 28 -19 -21 -22 -73 -6 -89 14
-14 -155 -68 -243 -78 -59 -7 -143 9 -133 25 3 6 -1 7 -9 4 -21 -8 -56 52 -56
97 0 73 59 196 150 314 65 83 207 228 221 223 17 -6 20 -36 3 -42 -8 -3 -13
-2 -13 2 3 19 -2 23 -16 12 -20 -17 -9 -30 25 -30 23 0 31 5 36 24 7 29 -1 46
-21 46 -13 0 11 24 103 104 l22 20 -6 -33 c-13 -64 69 -108 116 -61 11 11 21
26 21 33 5 53 -20 87 -65 87 l-31 0 29 24 c29 23 30 23 50 5 49 -46 131 13
113 82 -6 20 25 63 37 52 3 -4 6 -1 6 7 0 10 3 10 15 0 8 -7 13 -16 10 -20 -3
-4 2 -13 10 -20 8 -7 12 -17 8 -24 -3 -6 -2 -7 2 -3 13 12 15 37 2 34 -6 -1
-11 3 -12 10 0 6 -3 15 -7 19 -13 13 -9 36 5 28 6 -4 9 -4 5 1 -4 4 -2 17 4
29 7 11 11 33 9 47 -2 20 3 28 20 32 13 4 20 9 16 13 -4 4 -2 13 4 20 26 31
-20 61 -49 32 -8 -8 -12 -9 -12 -1 0 11 59 53 74 53 3 0 5 -12 4 -27 -1 -16 2
-39 6 -53 6 -19 5 -21 -3 -10 -6 8 -11 13 -12 10 0 -3 -3 -25 -5 -50 -5 -41
-12 -53 -39 -64 -5 -2 5 -20 24 -40 32 -33 33 -38 22 -60 -8 -13 -23 -27 -34
-30 -23 -6 -57 18 -57 41 0 15 -16 18 -24 4 -8 -12 30 -58 54 -66 28 -9 79 21
86 52 8 32 -14 78 -38 78 -19 0 -34 12 -16 12 7 0 40 16 74 36 33 20 101 54
152 76 l91 40 30 -29 c52 -53 121 -28 121 44 0 32 2 34 46 40 111 15 176 -2
212 -55 31 -44 26 -109 -14 -196 -28 -60 -29 -62 -66 -60 -64 2 -99 -56 -68
-114 9 -16 5 -27 -25 -64 -32 -38 -40 -43 -68 -39 -39 7 -68 -26 -46 -53 13
-15 -20 -52 -166 -183 -28 -25 -49 -52 -47 -60 4 -23 -56 -25 -79 -4 -35 32
-17 84 31 91 11 1 22 -2 26 -9 4 -7 3 -8 -4 -4 -8 5 -10 2 -6 -9 6 -14 8 -14
20 2 9 11 13 13 12 4 -2 -7 3 -16 10 -18 20 -7 14 14 -10 37 -29 27 -64 25
-93 -5 -30 -29 -32 -68 -5 -95 12 -12 18 -24 16 -29 -3 -4 -58 -43 -123 -86
-64 -43 -111 -81 -105 -83 7 -2 12 -8 12 -13 0 -6 -4 -8 -9 -5 -12 8 -21 -29
-21 -87 0 -30 4 -46 10 -42 6 3 11 0 11 -7 2 -25 18 67 18 108 1 24 7 47 16
54 13 11 15 8 15 -14 0 -19 5 -26 19 -26 17 0 31 -33 31 -71 0 -5 -27 -27 -60
-48 -34 -22 -56 -42 -51 -46 6 -3 21 1 34 10 23 15 23 14 19 -14 -10 -68 85
-108 127 -55 32 41 19 93 -28 118 -20 11 -17 15 56 66 200 138 456 346 446
363 -4 6 0 8 10 4 10 -3 17 -2 17 4 0 6 5 7 10 4 6 -3 10 0 10 8 0 14 83 77
101 77 4 0 11 9 14 20 4 12 53 72 109 134 518 574 497 951 -46 836z m153 -7
c-5 -10 -29 -36 -53 -57 -23 -22 -91 -86 -149 -143 -58 -56 -112 -103 -120
-103 -8 0 51 65 131 145 80 80 150 145 156 145 6 0 17 7 24 15 17 20 23 19 11
-2z m-208 -152 c-82 -83 -155 -151 -162 -151 -12 0 200 234 245 271 20 17 58
37 63 33 2 -2 -64 -71 -146 -153z m274 152 c-4 -3 -10 -3 -14 0 -3 4 0 7 7 7
7 0 10 -3 7 -7z m30 0 c-4 -3 -10 -3 -14 0 -3 4 0 7 7 7 7 0 10 -3 7 -7z
m-323 -115 c-61 -62 -128 -132 -149 -155 -21 -24 -45 -43 -52 -43 -18 0 243
284 266 288 9 2 20 8 26 13 5 5 11 9 14 9 3 0 -44 -51 -105 -112z m353 105
c-4 -3 -10 -3 -14 0 -3 4 0 7 7 7 7 0 10 -3 7 -7z m-93 -31 c-149 -130 -301
-272 -296 -276 9 -9 34 -7 28 2 -10 16 312 294 336 290 18 -2 6 -16 -66 -73
-48 -38 -93 -75 -99 -81 -7 -5 -45 -38 -84 -73 -40 -34 -73 -66 -73 -72 0 -6
26 12 58 40 175 151 294 241 308 233 10 -6 -34 -44 -171 -147 -102 -77 -181
-141 -176 -143 6 -2 43 21 83 52 40 30 76 52 81 49 9 -5 -116 -103 -133 -103
-5 0 -10 -5 -10 -11 0 -18 19 -7 196 121 188 136 190 138 183 145 -3 2 -54
-31 -114 -75 -59 -43 -112 -77 -117 -74 -17 10 207 175 227 167 8 -3 15 0 15
6 0 6 -3 10 -7 10 -23 -4 -35 3 -29 16 4 13 2 13 -14 5 -11 -6 -21 -6 -25 -1
-3 5 -2 11 2 13 46 23 105 -48 111 -131 6 -88 -13 -108 -224 -230 -96 -56
-179 -99 -184 -96 -4 3 -7 13 -5 23 1 9 -6 33 -16 53 -10 20 -16 39 -13 42 3
3 -3 4 -13 4 -10 -1 -17 4 -16 11 2 6 -4 12 -13 12 -8 0 -25 5 -36 11 -19 10
-9 22 133 160 114 110 160 148 179 148 l25 0 -31 -27z m-374 -137 c-72 -80
-136 -145 -141 -145 -5 0 -7 -11 -5 -25 3 -14 1 -25 -4 -25 -5 0 -7 -6 -5 -12
8 -21 -10 -38 -42 -42 -30 -4 -50 13 -44 37 1 5 -3 6 -9 2 -5 -3 -10 -2 -10 4
0 6 -8 7 -17 4 -16 -6 -17 -5 -3 13 8 10 22 25 30 32 8 8 10 11 4 8 -6 -3 21
44 60 104 63 96 96 130 126 130 10 0 -101 -150 -149 -202 -20 -23 -22 -28 -8
-28 10 0 55 52 109 124 71 94 101 126 125 134 29 9 27 4 -44 -79 -42 -49 -80
-89 -84 -89 -5 0 -9 -6 -9 -13 0 -7 -13 -26 -30 -42 -30 -29 -38 -45 -21 -45
5 0 62 63 127 140 102 122 158 175 173 164 2 -2 -56 -69 -129 -149z m-230 -76
c-68 -104 -110 -156 -110 -136 0 24 132 235 156 248 16 9 30 15 32 14 2 -1
-33 -58 -78 -126z m-210 -24 c0 -3 -2 -5 -5 -5 -3 0 -5 2 -5 5 0 3 2 5 5 5 3
0 5 -2 5 -5z m1010 0 c0 -3 -2 -5 -5 -5 -3 0 -5 2 -5 5 0 3 2 5 5 5 3 0 5 -2
5 -5z m-1030 -24 c0 -29 -21 -84 -41 -106 -11 -12 -16 -30 -13 -45 4 -20 -1
-29 -27 -43 -21 -12 -28 -13 -21 -4 7 8 8 18 4 22 -4 5 -2 5 5 2 8 -5 13 16
18 70 6 64 12 80 33 100 30 28 42 29 42 4z m1005 -12 c-6 -15 -26 -27 -240
-139 -77 -41 -134 -66 -127 -57 8 9 23 19 35 23 11 3 25 11 31 16 15 14 300
176 304 173 1 -1 0 -8 -3 -16z m25 16 c0 -3 -2 -5 -5 -5 -3 0 -5 2 -5 5 0 3 2
5 5 5 3 0 5 -2 5 -5z m-984 -35 c11 10 10 3 -2 -34 -9 -25 -20 -48 -24 -51 -5
-3 -7 -13 -4 -23 4 -12 3 -14 -3 -4 -8 10 -12 10 -23 -3 -16 -19 -27 -19 -27
0 0 9 11 18 24 21 13 4 23 11 22 18 -3 21 15 101 19 83 3 -14 7 -16 18 -7z
m-126 5 c0 -3 -2 -5 -5 -5 -3 0 -5 2 -5 5 0 3 2 5 5 5 3 0 5 -2 5 -5z m1097
-12 c-4 -3 -7 0 -7 7 0 7 3 10 7 7 3 -4 3 -10 0 -14z m-37 -33 c-6 -11 -87
-59 -183 -107 -201 -103 -198 -101 -172 -75 15 16 347 200 363 202 1 0 -2 -9
-8 -20z m30 15 c0 -3 -2 -5 -5 -5 -3 0 -5 2 -5 5 0 3 2 5 5 5 3 0 5 -2 5 -5z
m-900 -40 c0 -3 -2 -5 -5 -5 -3 0 -5 2 -5 5 0 3 2 5 5 5 3 0 5 -2 5 -5z m-316
-170 c-28 -21 -35 -15 -54 43 -14 43 -15 52 -3 52 8 0 21 17 30 38 l17 37 14
-78 c13 -74 13 -79 -4 -92z m86 155 c0 -4 -8 -14 -17 -22 -22 -19 -56 -20 -49
-1 3 7 1 13 -4 13 -6 0 -10 3 -10 8 0 4 18 7 40 8 22 1 40 -2 40 -6z m110 5
c0 -3 -2 -5 -5 -5 -3 0 -5 2 -5 5 0 3 2 5 5 5 3 0 5 -2 5 -5z m-269 -47 c-35
-31 -36 -51 -5 -125 7 -20 9 -35 3 -38 -5 -4 -9 -2 -9 2 0 5 -12 10 -27 11
-16 1 -29 7 -31 12 -2 5 -12 20 -22 32 -18 22 -17 23 44 84 33 33 65 59 70 56
5 -3 -5 -18 -23 -34z m1225 10 c-10 -16 -71 -50 -173 -97 -192 -89 -193 -90
-171 -65 16 17 349 192 356 188 2 -1 -4 -13 -12 -26z m34 27 c0 -3 -2 -5 -5
-5 -3 0 -5 2 -5 5 0 3 2 5 5 5 3 0 5 -2 5 -5z m-940 -10 c0 -3 -2 -5 -5 -5 -3
0 -5 2 -5 5 0 3 2 5 5 5 3 0 5 -2 5 -5z m-220 -40 c0 -3 -2 -5 -5 -5 -3 0 -5
2 -5 5 0 3 2 5 5 5 3 0 5 -2 5 -5z m-195 -24 c3 -6 -1 -13 -9 -18 -7 -4 -16
-17 -19 -28 -3 -12 -5 -4 -6 18 -1 36 18 52 34 28z m85 4 c0 -3 -2 -5 -5 -5
-3 0 -5 2 -5 5 0 3 2 5 5 5 3 0 5 -2 5 -5z m1195 -29 c-14 -21 -61 -43 -299
-141 -25 -11 -37 -12 -34 -4 3 8 307 156 346 168 1 1 -5 -10 -13 -23z m-1308
-73 c13 -24 19 -48 16 -64 -3 -15 0 -30 6 -33 11 -7 16 17 13 59 -2 16 0 17 8
5 8 -13 10 -13 10 0 0 11 3 11 12 2 7 -7 22 -12 34 -12 25 0 35 -19 29 -52
-11 -57 -75 -50 -152 16 -23 20 -47 34 -55 31 -22 -8 -44 11 -30 28 7 7 8 18
4 22 -4 5 -1 4 7 0 10 -6 13 -4 9 7 -4 9 0 15 8 15 12 0 12 -4 -1 -23 -17 -27
-19 -44 -5 -44 5 0 7 7 4 15 -4 10 0 15 10 15 9 0 21 11 26 25 13 34 23 31 47
-12z m133 32 c0 -3 -2 -5 -5 -5 -3 0 -5 2 -5 5 0 3 2 5 5 5 3 0 5 -2 5 -5z
m-120 -10 c0 -3 -2 -5 -5 -5 -3 0 -5 2 -5 5 0 3 2 5 5 5 3 0 5 -2 5 -5z m130
-10 c0 -3 -2 -5 -5 -5 -3 0 -5 2 -5 5 0 3 2 5 5 5 3 0 5 -2 5 -5z m1110 -19
c-21 -21 -258 -116 -288 -116 -5 0 -9 -7 -9 -15 0 -11 6 -14 16 -9 55 23 246
93 248 90 16 -16 -192 -106 -245 -106 -7 0 -31 -9 -53 -19 l-40 -20 -19 32
c-19 30 -19 60 0 80 4 4 29 10 56 12 34 3 44 2 34 -5 -11 -7 -11 -10 -2 -10 7
0 10 -5 6 -11 -4 -7 -3 -10 2 -7 5 2 20 9 34 16 46 22 265 111 275 112 5 0 -2
-11 -15 -24z m-1093 -3 c-4 -3 -10 -3 -14 0 -3 4 0 7 7 7 7 0 10 -3 7 -7z
m-232 -85 l44 -40 -21 -18 c-21 -17 -23 -17 -54 4 -27 17 -32 25 -27 48 4 20
1 29 -12 34 -13 5 -14 9 -4 15 16 9 17 8 74 -43z m15 27 c0 -3 -2 -5 -5 -5 -3
0 -5 2 -5 5 0 3 2 5 5 5 3 0 5 -2 5 -5z m-90 -27 c0 -5 -6 -6 -12 -2 -10 5
-10 4 -1 -6 6 -7 9 -19 6 -26 -4 -11 -9 -10 -22 5 -11 13 -22 17 -30 11 -10
-6 2 -18 43 -46 69 -45 63 -67 -11 -42 -27 9 -63 20 -81 23 -39 8 -33 19 34
63 24 16 41 32 38 35 -3 3 3 3 15 0 12 -3 21 -10 21 -15z m140 -20 c0 -15 -15
-8 -28 12 -12 19 -11 20 8 8 11 -7 20 -16 20 -20z m1143 -41 c-32 -28 -58 -39
-153 -61 -63 -15 -120 -29 -127 -31 -7 -2 -10 2 -7 9 4 10 280 110 317 115 4
1 -10 -14 -30 -32z m-1533 2 c0 -5 4 -8 8 -5 19 11 35 -15 37 -57 l1 -45 -39
2 c-60 2 -88 56 -50 98 18 20 43 24 43 7z m300 -14 c0 -3 -2 -5 -5 -5 -3 0 -5
2 -5 5 0 3 2 5 5 5 3 0 5 -2 5 -5z m-200 -10 c0 -3 -2 -5 -5 -5 -3 0 -5 2 -5
5 0 3 2 5 5 5 3 0 5 -2 5 -5z m314 -27 c14 -11 15 -48 2 -48 -6 0 -4 -5 4 -10
8 -5 13 -10 10 -11 -3 0 -12 -2 -20 -4 -62 -12 -65 -12 -75 30 -5 22 -14 46
-19 54 -6 9 -5 12 0 8 6 -3 16 -2 24 3 12 8 54 -4 74 -22z m-269 -18 c1 0 5
-9 8 -20 6 -22 36 -27 55 -8 19 19 14 29 -8 16 -17 -11 -22 -10 -30 2 -11 18
-3 33 13 23 7 -4 17 -8 22 -9 6 0 16 -2 23 -2 21 -3 12 -26 -21 -52 -17 -14
-28 -20 -25 -14 5 7 -16 15 -58 23 -66 14 -70 19 -55 69 1 1 17 -5 37 -13 20
-8 38 -15 39 -15z m1298 -31 c-43 -40 -43 -40 -74 -23 -36 18 -89 13 -109 -11
-13 -16 -75 -21 -65 -6 8 14 95 37 244 66 13 2 26 7 29 10 3 3 8 5 11 5 3 0
-13 -19 -36 -41z m-1349 -37 c77 -17 78 -18 55 -34 -24 -15 -59 -16 -168 -2
l-43 6 23 24 c27 28 31 29 133 6z m1259 -15 c-3 -6 -1 -7 6 -3 21 13 45 -2 31
-19 -7 -8 -16 -13 -20 -10 -5 3 -6 -4 -3 -15 4 -14 0 -20 -11 -20 -9 0 -16 -4
-16 -10 0 -5 -9 -10 -20 -10 -12 0 -17 5 -14 14 3 8 1 17 -5 21 -6 3 -9 0 -6
-7 4 -10 -15 -12 -87 -10 -85 2 -91 1 -74 -13 14 -10 42 -15 95 -15 l74 0 -39
-35 c-31 -27 -47 -34 -76 -33 -32 2 -35 4 -27 20 21 40 -32 59 -65 24 -11 -13
-32 -25 -45 -29 -23 -6 -23 -5 4 23 16 17 37 32 47 36 10 3 16 9 13 14 -9 14
46 50 77 50 32 0 78 21 97 44 14 17 76 2 64 -17z m-973 8 c0 -3 -2 -5 -5 -5
-3 0 -5 2 -5 5 0 3 2 5 5 5 3 0 5 -2 5 -5z m777 -21 c-22 -23 -37 -23 -37 1 0
14 12 21 40 21 16 0 16 -2 -3 -22z m-1175 -26 c12 3 19 1 15 -5 -3 -5 17 -9
53 -9 55 1 58 0 43 -17 -10 -11 -24 -15 -37 -11 -17 4 -18 3 -6 -5 20 -14 3
-41 -61 -99 -44 -40 -51 -43 -164 -62 -65 -12 -119 -19 -121 -17 -2 2 9 16 25
31 25 24 37 27 117 32 106 6 142 13 127 22 -7 4 -13 19 -15 32 -5 38 -18 56
-29 39 -5 -8 -9 -9 -9 -3 0 6 7 17 15 24 8 7 15 20 14 29 0 12 -4 11 -16 -6
-8 -13 -25 -23 -37 -23 -12 0 -28 -6 -36 -12 -8 -7 -2 2 14 20 17 17 38 32 49
32 17 0 18 2 6 17 -13 16 -12 16 9 1 13 -9 33 -13 44 -10z m1158 -101 c0 -18
-6 -23 -31 -25 -26 -2 -28 0 -17 12 7 8 16 12 21 9 4 -2 7 5 7 17 0 12 5 18
10 15 6 -3 10 -16 10 -28z m-1201 12 c-10 -6 -10 -11 -1 -22 10 -12 2 -15 -49
-21 -34 -3 -73 -6 -87 -6 l-26 0 29 30 c27 28 35 30 88 29 32 -1 53 -5 46 -10z
m1247 -72 c2 -2 -10 -14 -27 -26 -30 -22 -32 -23 -68 -7 -20 9 -58 18 -84 19
l-48 2 24 21 c24 20 28 21 112 8 48 -7 89 -14 91 -17z m-1226 18 c0 -3 -2 -5
-5 -5 -3 0 -5 2 -5 5 0 3 2 5 5 5 3 0 5 -2 5 -5z m1250 0 c0 -3 -2 -5 -5 -5
-3 0 -5 2 -5 5 0 3 2 5 5 5 3 0 5 -2 5 -5z m-216 -65 c14 -5 26 -17 26 -25 0
-20 24 -29 44 -18 10 6 12 13 6 23 -7 10 -10 11 -10 3 0 -20 -17 -15 -23 6 -3
13 0 18 12 16 9 -2 19 -4 24 -4 4 -1 7 -9 7 -18 0 -15 2 -16 10 -3 9 13 10 13
10 0 0 -13 -40 -47 -48 -41 -2 1 -9 -5 -16 -15 -12 -16 -17 -15 -74 16 -52 29
-59 37 -51 52 11 20 44 23 83 8z m-1085 -26 c-14 -13 -237 -74 -272 -74 -6 0
0 11 14 25 20 21 46 29 130 44 139 25 148 25 128 5z m1211 11 c0 -3 -2 -5 -5
-5 -3 0 -5 2 -5 5 0 3 2 5 5 5 3 0 5 -2 5 -5z m-225 -52 c32 -15 47 -33 27
-33 -12 0 -11 -32 0 -47 10 -13 3 -33 -13 -33 -5 0 -9 7 -9 15 0 8 -4 15 -9
15 -4 0 -21 19 -36 41 -21 33 -24 43 -13 50 17 11 12 12 53 -8z m42 0 c-4 -3
-10 -3 -14 0 -3 4 0 7 7 7 7 0 10 -3 7 -7z m-1067 -18 c-11 -13 -158 -65 -200
-70 -8 -1 -26 -7 -40 -12 -14 -6 -36 -14 -49 -18 l-25 -7 25 30 c21 25 41 34
144 60 145 36 162 38 145 17z m955 -15 c10 -11 16 -20 13 -20 -3 0 -13 9 -23
20 -10 11 -16 20 -13 20 3 0 13 -9 23 -20z m165 -11 c0 -12 -42 -39 -51 -33
-5 2 -4 15 1 28 5 13 6 27 2 31 -4 4 5 1 21 -6 15 -7 27 -16 27 -20z m-157
-41 c28 -36 36 -53 28 -61 -8 -8 -11 -7 -11 5 0 27 -29 44 -50 30 -21 -13 -27
-8 -31 28 -3 25 6 50 19 49 4 0 24 -23 45 -51z m-998 13 c-15 -15 -305 -111
-305 -102 0 17 28 30 155 69 136 42 166 49 150 33z m912 -18 c-4 -3 -7 0 -7 7
0 7 3 10 7 7 3 -4 3 -10 0 -14z m110 0 c-4 -3 -7 0 -7 7 0 7 3 10 7 7 3 -4 3
-10 0 -14z m-113 -60 l17 -66 -28 -23 c-15 -13 -32 -23 -38 -23 -5 0 -4 3 3 6
14 6 16 74 3 120 -8 29 0 53 19 53 3 0 14 -30 24 -67z m140 41 c3 -8 2 -12 -4
-9 -6 3 -10 10 -10 16 0 14 7 11 14 -7z m-1071 -5 c-6 -6 -85 -43 -176 -83
-163 -72 -164 -72 -146 -42 16 26 38 37 166 82 163 56 172 59 156 43z m865 -6
c0 -10 3 -31 7 -46 7 -27 7 -28 -13 -16 -25 16 -38 42 -23 47 6 2 8 9 5 14 -4
7 -2 8 4 4 7 -4 12 -2 12 3 0 6 2 11 4 11 3 0 4 -8 4 -17z m82 12 c0 -3 -2 -5
-5 -5 -3 0 -5 2 -5 5 0 3 2 5 5 5 3 0 5 -2 5 -5z m64 -26 c-3 -5 0 -9 6 -9 14
0 -11 -37 -38 -55 -17 -13 -19 -12 -14 11 2 13 -1 30 -7 37 -6 8 -9 16 -7 18
9 8 65 6 60 -2z m-1014 -14 c0 -3 -2 -5 -5 -5 -3 0 -5 2 -5 5 0 3 2 5 5 5 3 0
5 -2 5 -5z m-20 -9 c0 -2 3 -13 6 -23 4 -13 3 -14 -4 -5 -7 10 -46 -4 -177
-67 -92 -45 -170 -81 -172 -81 -2 0 3 10 11 21 17 25 336 172 336 155z m-16
-49 c-2 -7 -17 -18 -32 -24 -15 -7 -96 -47 -179 -91 -113 -59 -148 -73 -135
-56 14 19 319 181 344 183 4 1 5 -5 2 -12z m816 8 c0 -3 -2 -5 -5 -5 -3 0 -5
2 -5 5 0 3 2 5 5 5 3 0 5 -2 5 -5z m-260 -27 c0 -5 4 -7 9 -3 13 7 29 -24 26
-48 -4 -25 -25 -48 -37 -41 -5 3 -8 0 -6 -7 1 -8 -17 -56 -41 -106 -38 -80
-50 -96 -84 -113 l-40 -21 18 28 c71 108 132 212 127 217 -8 9 -22 7 -20 -1 1
-5 -23 -46 -53 -93 -31 -47 -64 -100 -75 -118 -16 -29 -89 -80 -99 -70 -8 8
197 268 211 268 8 0 12 4 9 10 -3 5 -8 29 -11 52 -4 35 -3 41 7 31 7 -7 18
-13 23 -13 6 0 5 5 -2 12 -15 15 -16 32 -2 23 6 -3 10 -2 10 4 0 6 7 8 15 5 8
-4 15 -10 15 -16z m360 17 c0 -3 -2 -5 -5 -5 -3 0 -5 2 -5 5 0 3 2 5 5 5 3 0
5 -2 5 -5z m-909 -29 c-12 -15 -315 -189 -325 -187 -11 1 -70 -59 -63 -66 4
-3 13 1 20 9 6 9 77 53 157 98 80 45 162 93 183 106 21 14 36 19 35 12 -2 -7
-11 -17 -20 -23 -238 -144 -364 -215 -374 -211 -7 3 -12 14 -11 25 0 11 5 17
9 15 4 -3 12 6 17 19 7 19 53 48 188 118 98 51 180 96 182 101 1 5 6 7 8 4 3
-3 0 -12 -6 -20z m641 -36 c-10 -11 -36 -62 -57 -113 -29 -70 -46 -98 -67
-110 -35 -20 -35 -23 5 60 46 96 86 162 105 173 28 16 34 11 14 -10z m-619
-57 c-4 -11 -2 -14 5 -9 7 4 12 1 12 -8 0 -18 -15 -21 -25 -7 -3 6 -85 -42
-182 -106 -193 -125 -206 -133 -197 -110 5 15 196 137 213 137 5 0 11 4 13 8
2 5 36 28 77 52 41 24 69 46 64 47 -6 2 -93 -46 -193 -107 -140 -85 -185 -108
-191 -98 -8 11 -7 -12 0 -65 0 -5 6 -5 13 -1 8 5 9 0 6 -14 -4 -15 -2 -22 8
-22 7 0 21 -15 29 -32 14 -29 14 -31 0 -14 -8 11 -15 16 -15 11 0 -22 -48 44
-56 76 -10 46 -12 69 -5 70 30 4 62 20 213 110 95 57 179 102 187 100 8 -1 10
2 5 11 -6 11 -5 11 8 0 10 -8 14 -20 11 -29z m911 12 c10 -8 16 -21 13 -29 -4
-9 -1 -15 6 -13 14 2 10 -43 -5 -58 -8 -7 -8 -5 -3 5 6 12 5 13 -6 3 -24 -23
-69 -4 -75 31 -1 6 -3 16 -4 21 -4 18 1 50 7 38 3 -10 8 -9 20 2 18 18 23 18
47 0z m-899 -55 c18 15 66 -1 64 -22 0 -10 -2 -10 -5 -1 -3 7 -70 -43 -165
-123 -88 -75 -172 -142 -186 -149 l-27 -14 29 -11 c15 -6 26 -13 23 -16 -7 -7
-58 14 -58 24 0 4 6 15 12 24 16 20 319 258 329 258 4 0 10 7 13 16 4 10 2 13
-7 8 -18 -11 -255 -192 -309 -237 -43 -35 -68 -41 -68 -17 0 11 73 56 85 52 5
-2 7 0 3 4 -4 3 49 47 118 96 69 50 123 92 121 95 -3 2 -80 -47 -170 -111
-154 -108 -187 -128 -187 -108 1 16 354 241 361 230 6 -9 12 -8 24 2z m363
-22 c-14 -18 -57 -77 -97 -130 -63 -86 -84 -104 -113 -99 -5 0 -8 -4 -8 -9 0
-6 -5 -10 -10 -10 -9 0 56 79 206 253 34 38 52 34 22 -5z m-79 -35 c-23 -27
-75 -87 -116 -135 -44 -51 -87 -91 -104 -97 -23 -8 -1 21 103 134 73 79 139
144 146 144 8 1 -5 -20 -29 -46z m-199 32 c0 -3 -2 -5 -5 -5 -3 0 -5 2 -5 5 0
3 2 5 5 5 3 0 5 -2 5 -5z m0 -41 c-139 -143 -315 -294 -298 -256 3 6 115 110
280 260 63 56 74 54 18 -4z m12 -87 c-61 -62 -119 -122 -129 -134 -10 -12 -29
-24 -43 -28 -17 -5 23 41 125 144 83 82 152 146 154 140 1 -6 -47 -60 -107
-122z m144 102 c-79 -94 -225 -243 -251 -256 -31 -16 126 160 219 245 54 50
68 55 32 11z m-236 -47 c-35 -31 -105 -94 -154 -138 -60 -55 -95 -80 -107 -77
-20 6 284 272 311 273 8 0 -14 -26 -50 -58z m15 -81 c-77 -77 -151 -142 -165
-146 -22 -6 -23 -5 -10 7 8 8 76 74 151 146 75 73 143 132 150 132 8 0 -49
-63 -126 -139z m-455 44 c0 -3 -2 -5 -5 -5 -3 0 -5 2 -5 5 0 3 2 5 5 5 3 0 5
-2 5 -5z m100 -160 c0 -3 -2 -5 -5 -5 -3 0 -5 2 -5 5 0 3 2 5 5 5 3 0 5 -2 5
-5z m107 -42 c-4 -3 -10 -3 -14 0 -3 4 0 7 7 7 7 0 10 -3 7 -7z M2870 2355 c0
-3 2 -5 5 -5 3 0 5 2 5 5 0 3 -2 5 -5 5 -3 0 -5 -2 -5 -5z M2920 2335 c0 -3 2
-5 5 -5 3 0 5 2 5 5 0 3 -2 5 -5 5 -3 0 -5 -2 -5 -5z M2910 2305 c0 -3 2 -5 5
-5 3 0 5 2 5 5 0 3 -2 5 -5 5 -3 0 -5 -2 -5 -5z M2942 2305 c4 -4 3 -14 -4
-22 -6 -7 -8 -16 -5 -20 7 -6 -297 -216 -352 -244 -19 -9 -29 -19 -23 -23 6
-3 93 49 194 116 209 140 198 134 198 116 0 -7 -85 -66 -189 -132 -186 -117
-190 -119 -188 -152 2 -26 5 -30 16 -21 7 7 95 62 195 122 169 103 181 112
184 142 2 18 -2 41 -7 52 -8 14 -8 21 2 24 9 4 9 6 0 6 -7 1 -10 7 -7 15 3 8
-1 17 -8 22 -7 4 -10 4 -6 -1z m13 -126 c-3 -8 -83 -61 -177 -119 -174 -106
-222 -130 -183 -92 22 22 358 233 362 228 2 -2 1 -9 -2 -17z M2510 2035 c0 -3
2 -5 5 -5 3 0 5 2 5 5 0 3 -2 5 -5 5 -3 0 -5 -2 -5 -5z M2183 2043 c4 -3 10
-3 14 0 3 4 0 7 -7 7 -7 0 -10 -3 -7 -7z M2150 2035 c0 -3 2 -5 5 -5 3 0 5 2
5 5 0 3 -2 5 -5 5 -3 0 -5 -2 -5 -5z M2220 2030 c0 -7 3 -10 7 -7 3 4 3 10 0
14 -4 3 -7 0 -7 -7z M2184 1988 c-4 -7 -3 -8 4 -4 12 7 16 16 8 16 -3 0 -8 -5
-12 -12z M2195 1970 c-3 -6 1 -7 9 -4 18 7 21 14 7 14 -6 0 -13 -4 -16 -10z
M1764 1948 c-4 -7 -3 -8 4 -4 12 7 16 16 8 16 -3 0 -8 -5 -12 -12z M1660 1955
c0 -3 2 -5 5 -5 3 0 5 2 5 5 0 3 -2 5 -5 5 -3 0 -5 -2 -5 -5z M1530 1885 c0
-3 2 -5 5 -5 3 0 5 2 5 5 0 3 -2 5 -5 5 -3 0 -5 -2 -5 -5z M1603 1733 c4 -3
10 -3 14 0 3 4 0 7 -7 7 -7 0 -10 -3 -7 -7z M1630 1725 c0 -3 2 -5 5 -5 3 0 5
2 5 5 0 3 -2 5 -5 5 -3 0 -5 -2 -5 -5z M1600 1695 c0 -3 2 -5 5 -5 3 0 5 2 5
5 0 3 -2 5 -5 5 -3 0 -5 -2 -5 -5z M1630 1695 c0 -3 2 -5 5 -5 3 0 5 2 5 5 0
3 -2 5 -5 5 -3 0 -5 -2 -5 -5z M1630 1675 c0 -3 2 -5 5 -5 3 0 5 2 5 5 0 3 -2
5 -5 5 -3 0 -5 -2 -5 -5z M1610 1665 c0 -3 2 -5 5 -5 3 0 5 2 5 5 0 3 -2 5 -5
5 -3 0 -5 -2 -5 -5z M2393 1693 c4 -3 10 -3 14 0 3 4 0 7 -7 7 -7 0 -10 -3 -7
-7z M2380 1660 c0 -7 3 -10 7 -7 3 4 3 10 0 14 -4 3 -7 0 -7 -7z M1105 1620
c3 -5 8 -10 11 -10 3 0 2 5 -1 10 -3 6 -8 10 -11 10 -3 0 -2 -4 1 -10z M1150
1595 c0 -3 2 -5 5 -5 3 0 5 2 5 5 0 3 -2 5 -5 5 -3 0 -5 -2 -5 -5z M1080 1585
c0 -3 2 -5 5 -5 3 0 5 2 5 5 0 3 -2 5 -5 5 -3 0 -5 -2 -5 -5z M1100 1585 c0
-3 2 -5 5 -5 3 0 5 2 5 5 0 3 -2 5 -5 5 -3 0 -5 -2 -5 -5z M1090 1565 c0 -3 2
-5 5 -5 3 0 5 2 5 5 0 3 -2 5 -5 5 -3 0 -5 -2 -5 -5z M1110 1565 c0 -3 2 -5 5
-5 3 0 5 2 5 5 0 3 -2 5 -5 5 -3 0 -5 -2 -5 -5z M1530 1575 c0 -3 2 -5 5 -5 3
0 5 2 5 5 0 3 -2 5 -5 5 -3 0 -5 -2 -5 -5z M1480 1525 c0 -3 2 -5 5 -5 3 0 5
2 5 5 0 3 -2 5 -5 5 -3 0 -5 -2 -5 -5z M2503 1473 c4 -3 10 -3 14 0 3 4 0 7
-7 7 -7 0 -10 -3 -7 -7z M2380 1456 c0 -22 17 -28 24 -10 9 22 8 24 -9 24 -8
0 -15 -6 -15 -14z M2450 1435 c0 -3 2 -5 5 -5 3 0 5 2 5 5 0 3 -2 5 -5 5 -3 0
-5 -2 -5 -5z M2270 1485 c0 -3 2 -5 5 -5 3 0 5 2 5 5 0 3 -2 5 -5 5 -3 0 -5
-2 -5 -5z M2260 1465 c0 -3 2 -5 5 -5 3 0 5 2 5 5 0 3 -2 5 -5 5 -3 0 -5 -2
-5 -5z M1150 1345 c0 -3 2 -5 5 -5 3 0 5 2 5 5 0 3 -2 5 -5 5 -3 0 -5 -2 -5
-5z M1120 1335 c0 -3 2 -5 5 -5 3 0 5 2 5 5 0 3 -2 5 -5 5 -3 0 -5 -2 -5 -5z
M2090 1130 c0 -7 3 -10 7 -7 3 4 3 10 0 14 -4 3 -7 0 -7 -7z M2070 1105 c0 -3
2 -5 5 -5 3 0 5 2 5 5 0 3 -2 5 -5 5 -3 0 -5 -2 -5 -5z M1920 1015 c0 -3 2 -5
5 -5 3 0 5 2 5 5 0 3 -2 5 -5 5 -3 0 -5 -2 -5 -5z M1920 995 c0 -3 2 -5 5 -5
3 0 5 2 5 5 0 3 -2 5 -5 5 -3 0 -5 -2 -5 -5z M1473 913 c4 -3 10 -3 14 0 3 4
0 7 -7 7 -7 0 -10 -3 -7 -7z M1450 905 c0 -3 2 -5 5 -5 3 0 5 2 5 5 0 3 -2 5
-5 5 -3 0 -5 -2 -5 -5z M1470 895 c0 -3 2 -5 5 -5 3 0 5 2 5 5 0 3 -2 5 -5 5
-3 0 -5 -2 -5 -5z M920 855 c0 -3 2 -5 5 -5 3 0 5 2 5 5 0 3 -2 5 -5 5 -3 0
-5 -2 -5 -5z M553 523 c4 -3 10 -3 14 0 3 4 0 7 -7 7 -7 0 -10 -3 -7 -7z
M1810 845 c0 -3 2 -5 5 -5 3 0 5 2 5 5 0 3 -2 5 -5 5 -3 0 -5 -2 -5 -5z M1830
835 c0 -3 2 -5 5 -5 3 0 5 2 5 5 0 3 -2 5 -5 5 -3 0 -5 -2 -5 -5z M1780 825
c0 -3 2 -5 5 -5 3 0 5 2 5 5 0 3 -2 5 -5 5 -3 0 -5 -2 -5 -5z M1804 788 c-4
-7 -3 -8 4 -4 12 7 16 16 8 16 -3 0 -8 -5 -12 -12z M1824 778 c-4 -7 -3 -8 4
-4 12 7 16 16 8 16 -3 0 -8 -5 -12 -12z M740 685 c0 -3 2 -5 5 -5 3 0 5 2 5 5
0 3 -2 5 -5 5 -3 0 -5 -2 -5 -5z M1150 585 c0 -3 2 -5 5 -5 3 0 5 2 5 5 0 3
-2 5 -5 5 -3 0 -5 -2 -5 -5z M1742 2215 c-1 -5 -4 -24 -8 -42 -9 -45 42 -99
84 -88 37 9 52 26 62 69 4 21 6 35 3 32 -3 -3 -15 6 -25 20 -17 21 -27 24 -67
22 -26 -2 -48 -7 -49 -13z m99 -27 c43 -49 -7 -113 -61 -78 -8 5 -10 10 -5 10
6 0 4 4 -4 9 -17 11 -21 51 -7 68 17 19 57 15 77 -9z M1790 2195 c0 -3 2 -5 5
-5 3 0 5 2 5 5 0 3 -2 5 -5 5 -3 0 -5 -2 -5 -5z M1800 2135 c0 -3 2 -5 5 -5 3
0 5 2 5 5 0 3 -2 5 -5 5 -3 0 -5 -2 -5 -5z M1798 2113 c7 -3 16 -2 19 1 4 3
-2 6 -13 5 -11 0 -14 -3 -6 -6z M1990 2225 c0 -3 2 -5 5 -5 3 0 5 2 5 5 0 3
-2 5 -5 5 -3 0 -5 -2 -5 -5z M1567 2200 c-19 -16 -27 -31 -27 -54 0 -69 87
-103 129 -50 27 34 26 57 -1 88 -33 36 -68 42 -101 16z m79 -27 c6 -13 13 -21
15 -18 8 7 3 -40 -5 -53 -11 -18 -66 -15 -66 3 0 9 -6 18 -13 21 -14 5 -17 40
-5 59 12 20 62 11 74 -12z m-66 -58 c0 -3 -2 -5 -5 -5 -3 0 -5 2 -5 5 0 3 2 5
5 5 3 0 5 -2 5 -5z M1575 2180 c-2 -3 4 -6 13 -7 10 -1 22 -3 29 -5 6 -2 13 2
15 7 3 10 -51 15 -57 5z m55 -5 c0 -3 -2 -5 -5 -5 -3 0 -5 2 -5 5 0 3 2 5 5 5
3 0 5 -2 5 -5z M1623 2125 c-9 -10 -6 -12 14 -12 14 0 21 2 17 6 -5 3 -11 9
-14 13 -3 3 -10 0 -17 -7z M1460 2145 c0 -3 2 -5 5 -5 3 0 5 2 5 5 0 3 -2 5
-5 5 -3 0 -5 -2 -5 -5z M1385 2115 c-49 -48 -16 -125 53 -125 69 0 94 70 43
121 -36 35 -64 37 -96 4z m83 -25 c18 -23 20 -33 12 -55 -5 -14 -14 -24 -18
-21 -4 2 -14 1 -22 -4 -9 -5 -19 -5 -27 2 -17 13 -17 31 0 22 7 -4 9 -3 4 2
-5 5 -14 9 -20 9 -7 0 -13 12 -15 28 -2 20 1 27 13 27 9 0 14 4 11 8 -14 23
42 7 62 -18z M1426 2097 c3 -10 9 -15 12 -12 3 3 0 11 -7 18 -10 9 -11 8 -5
-6z M1393 2063 c4 -3 10 -3 14 0 3 4 0 7 -7 7 -7 0 -10 -3 -7 -7z M1454 2058
c-4 -7 -3 -8 4 -4 7 4 12 9 12 12 0 8 -9 4 -16 -8z M1460 2035 c0 -3 2 -5 5
-5 3 0 5 2 5 5 0 3 -2 5 -5 5 -3 0 -5 -2 -5 -5z M2010 2100 c0 -7 3 -10 7 -7
3 4 3 10 0 14 -4 3 -7 0 -7 -7z M2010 2075 c0 -3 2 -5 5 -5 3 0 5 2 5 5 0 3
-2 5 -5 5 -3 0 -5 -2 -5 -5z M1224 1984 c-20 -19 -24 -31 -19 -52 10 -40 44
-72 77 -72 63 0 91 78 43 125 -31 32 -69 32 -101 -1z m73 -13 c-10 -12 -9 -13
2 -7 16 10 31 -9 31 -40 0 -36 -63 -55 -91 -27 -13 13 -4 47 10 38 5 -3 12 -1
16 4 3 6 -6 8 -22 5 -19 -3 -24 -2 -14 5 8 5 10 14 5 22 -6 12 -5 12 9 0 15
-12 17 -11 17 3 0 11 8 15 24 14 21 -2 23 -5 13 -17z M1270 1970 c0 -7 3 -10
7 -7 3 4 3 10 0 14 -4 3 -7 0 -7 -7z M1290 1945 c0 -3 2 -5 5 -5 3 0 5 2 5 5
0 3 -2 5 -5 5 -3 0 -5 -2 -5 -5z M1310 1935 c0 -3 2 -5 5 -5 3 0 5 2 5 5 0 3
-2 5 -5 5 -3 0 -5 -2 -5 -5z M1246 1907 c3 -10 9 -15 12 -12 3 3 0 11 -7 18
-10 9 -11 8 -5 -6z M2100 1965 c0 -3 2 -5 5 -5 3 0 5 2 5 5 0 3 -2 5 -5 5 -3
0 -5 -2 -5 -5z M2028 1909 c-20 -11 -24 -54 -7 -64 37 -24 89 36 53 62 -21 15
-24 16 -46 2z m38 -31 c4 -6 3 -8 -4 -4 -5 3 -13 0 -15 -6 -3 -8 -6 -6 -6 5
-1 19 14 23 25 5z M2271 1894 c-24 -30 -24 -34 -11 -68 30 -79 140 -65 140 18
0 69 -87 103 -129 50z m100 -27 c-7 -7 -7 -15 0 -23 7 -9 7 -18 0 -31 -8 -14
-11 -15 -11 -3 0 12 -3 11 -11 -2 -5 -10 -19 -18 -30 -18 -11 0 -17 5 -14 10
3 6 1 10 -5 10 -6 0 -8 5 -5 10 3 6 1 10 -5 10 -7 0 -9 7 -6 16 3 8 2 12 -4 9
-13 -8 -13 1 0 25 6 11 18 17 30 15 11 -2 20 0 20 6 0 5 11 2 26 -7 17 -12 22
-20 15 -27z m9 -12 c0 -3 -2 -5 -5 -5 -3 0 -5 2 -5 5 0 3 2 5 5 5 3 0 5 -2 5
-5z M2290 1875 c0 -3 2 -5 5 -5 3 0 5 2 5 5 0 3 -2 5 -5 5 -3 0 -5 -2 -5 -5z
M2360 1875 c0 -3 2 -5 5 -5 3 0 5 2 5 5 0 3 -2 5 -5 5 -3 0 -5 -2 -5 -5z
M2324 1808 c-4 -7 -3 -8 4 -4 7 4 12 9 12 12 0 8 -9 4 -16 -8z M1123 1841
c-51 -42 -14 -131 54 -131 63 0 89 88 37 129 -33 26 -62 26 -91 2z m71 -17 c9
-8 21 -25 28 -37 10 -20 10 -21 -6 -8 -15 13 -16 12 -7 -13 6 -14 9 -26 8 -27
-1 0 -9 -2 -17 -4 -8 -2 -23 -6 -32 -10 -12 -5 -21 2 -32 24 -21 39 -20 47 4
71 24 24 34 25 54 4z M1164 1738 c-4 -7 -3 -8 4 -4 12 7 16 16 8 16 -3 0 -8
-5 -12 -12z M1200 1745 c0 -3 2 -5 5 -5 3 0 5 2 5 5 0 3 -2 5 -5 5 -3 0 -5 -2
-5 -5z M2132 1798 c-24 -24 -11 -59 25 -64 20 -3 45 33 38 55 -7 23 -44 28
-63 9z m46 -20 c-5 -15 -35 -19 -35 -4 0 7 9 13 19 13 11 1 18 -3 16 -9z
M2160 1775 c0 -3 2 -5 5 -5 3 0 5 2 5 5 0 3 -2 5 -5 5 -3 0 -5 -2 -5 -5z
M1902 1780 c-48 -45 -16 -124 49 -122 42 1 69 28 69 67 0 63 -73 97 -118 55z
m88 -32 c17 -32 8 -56 -27 -69 -51 -19 -85 54 -40 86 29 21 48 16 67 -17z
M1910 1735 c0 -3 2 -5 5 -5 3 0 5 2 5 5 0 3 -2 5 -5 5 -3 0 -5 -2 -5 -5z
M1910 1705 c0 -3 2 -5 5 -5 3 0 5 2 5 5 0 3 -2 5 -5 5 -3 0 -5 -2 -5 -5z
M1790 1785 c0 -3 2 -5 5 -5 3 0 5 2 5 5 0 3 -2 5 -5 5 -3 0 -5 -2 -5 -5z
M1810 1765 c0 -3 2 -5 5 -5 3 0 5 2 5 5 0 3 -2 5 -5 5 -3 0 -5 -2 -5 -5z
M2120 1725 c0 -3 2 -5 5 -5 3 0 5 2 5 5 0 3 -2 5 -5 5 -3 0 -5 -2 -5 -5z
M1710 1695 c0 -3 2 -5 5 -5 3 0 5 2 5 5 0 3 -2 5 -5 5 -3 0 -5 -2 -5 -5z
M2780 1685 c0 -3 2 -5 5 -5 3 0 5 2 5 5 0 3 -2 5 -5 5 -3 0 -5 -2 -5 -5z
M2212 1668 c-36 -36 10 -81 50 -48 19 15 21 22 12 37 -14 22 -45 28 -62 11z
m43 -29 c-8 -12 -35 -12 -35 0 0 11 22 20 33 14 4 -2 5 -9 2 -14z M2240 1645
c0 -3 2 -5 5 -5 3 0 5 2 5 5 0 3 -2 5 -5 5 -3 0 -5 -2 -5 -5z M2011 1634 c-30
-38 -22 -85 18 -109 57 -34 126 25 100 86 -22 55 -84 67 -118 23z m96 -7 c2
-3 -3 -7 -12 -11 -9 -3 -14 -2 -11 2 3 5 -1 9 -9 9 -11 0 -12 -4 -4 -13 6 -7
19 -11 30 -9 10 2 19 0 19 -6 0 -5 -6 -9 -12 -10 -10 0 -10 -2 -1 -5 18 -8 4
-34 -19 -34 -12 0 -17 4 -12 12 4 7 3 8 -5 4 -8 -5 -9 -12 -2 -20 7 -8 5 -12
-9 -13 -11 -1 -23 3 -26 9 -5 7 -2 8 7 3 12 -8 12 -6 0 8 -7 9 -17 14 -22 11
-5 -3 -5 6 1 20 5 14 7 26 3 26 -4 0 2 7 13 15 17 12 59 14 71 2z M2040 1585
c0 -3 2 -5 5 -5 3 0 5 2 5 5 0 3 -2 5 -5 5 -3 0 -5 -2 -5 -5z M2090 1565 c0
-3 2 -5 5 -5 3 0 5 2 5 5 0 3 -2 5 -5 5 -3 0 -5 -2 -5 -5z M1712 1619 c-122
-62 -103 -251 28 -290 56 -17 125 6 164 54 27 34 31 47 31 97 0 123 -115 194
-223 139z m113 -12 c11 -6 24 -10 29 -9 5 2 6 -5 2 -14 -6 -15 -4 -15 11 -3
11 9 14 10 9 2 -4 -8 -1 -13 8 -13 9 0 15 -3 14 -7 -1 -5 4 -21 10 -36 20 -48
6 -117 -20 -101 -7 4 -8 3 -4 -4 4 -7 2 -12 -5 -12 -8 0 -8 -5 2 -17 7 -10 9
-15 5 -11 -5 4 -14 0 -21 -9 -6 -8 -26 -16 -42 -17 -17 0 -29 -5 -26 -9 7 -12
-49 -5 -65 8 -7 6 -22 18 -32 27 -10 9 -20 14 -23 12 -2 -3 -11 16 -19 41 -13
37 -13 54 -4 85 12 40 55 89 73 83 6 -2 14 0 17 5 8 13 57 12 81 -1z M1750
1605 c0 -3 2 -5 5 -5 3 0 5 2 5 5 0 3 -2 5 -5 5 -3 0 -5 -2 -5 -5z M1790 1605
c0 -3 2 -5 5 -5 3 0 5 2 5 5 0 3 -2 5 -5 5 -3 0 -5 -2 -5 -5z M1870 1545 c0
-3 2 -5 5 -5 3 0 5 2 5 5 0 3 -2 5 -5 5 -3 0 -5 -2 -5 -5z M1670 1535 c0 -3 2
-5 5 -5 3 0 5 2 5 5 0 3 -2 5 -5 5 -3 0 -5 -2 -5 -5z M1850 1525 c0 -3 2 -5 5
-5 3 0 5 2 5 5 0 3 -2 5 -5 5 -3 0 -5 -2 -5 -5z M1670 1415 c0 -3 2 -5 5 -5 3
0 5 2 5 5 0 3 -2 5 -5 5 -3 0 -5 -2 -5 -5z M1845 1391 c-3 -5 -2 -12 3 -15 5
-3 9 1 9 9 0 17 -3 19 -12 6z M1930 1615 c0 -3 2 -5 5 -5 3 0 5 2 5 5 0 3 -2
5 -5 5 -3 0 -5 -2 -5 -5z M2015 1460 c-63 -69 39 -165 103 -97 23 24 29 71 12
82 -6 4 -7 11 -4 17 4 6 2 8 -4 4 -6 -3 -13 -2 -17 4 -11 18 -71 11 -90 -10z
m68 -24 c-4 -6 0 -6 9 2 13 10 17 10 22 -4 23 -60 -52 -104 -88 -52 -18 26
-21 52 -5 43 6 -4 9 0 7 11 -2 10 2 19 9 19 6 0 15 3 19 7 11 11 35 -12 27
-26z M2030 1445 c0 -3 2 -5 5 -5 3 0 5 2 5 5 0 3 -2 5 -5 5 -3 0 -5 -2 -5 -5z
M2050 1435 c0 -3 2 -5 5 -5 3 0 5 2 5 5 0 3 -2 5 -5 5 -3 0 -5 -2 -5 -5z
M2100 1415 c0 -3 2 -5 5 -5 3 0 5 2 5 5 0 3 -2 5 -5 5 -3 0 -5 -2 -5 -5z
M2080 1405 c0 -3 2 -5 5 -5 3 0 5 2 5 5 0 3 -2 5 -5 5 -3 0 -5 -2 -5 -5z
M1462 1420 c-51 -48 -11 -132 58 -122 57 8 77 68 39 116 -25 32 -66 34 -97 6z
m52 -12 c-6 -10 -4 -10 8 0 20 16 33 -9 15 -28 -9 -10 -9 -11 0 -6 6 3 14 2
17 -3 18 -28 -43 -72 -64 -46 -6 8 -9 19 -5 24 3 6 0 8 -8 5 -23 -9 -30 15
-13 41 17 25 64 37 50 13z m-44 -73 c0 -3 -2 -5 -5 -5 -3 0 -5 2 -5 5 0 3 2 5
5 5 3 0 5 -2 5 -5z M1483 1403 c4 -3 10 -3 14 0 3 4 0 7 -7 7 -7 0 -10 -3 -7
-7z M1530 1395 c0 -3 2 -5 5 -5 3 0 5 2 5 5 0 3 -2 5 -5 5 -3 0 -5 -2 -5 -5z
M1500 1385 c0 -3 2 -5 5 -5 3 0 5 2 5 5 0 3 -2 5 -5 5 -3 0 -5 -2 -5 -5z
M1480 1375 c0 -3 2 -5 5 -5 3 0 5 2 5 5 0 3 -2 5 -5 5 -3 0 -5 -2 -5 -5z
M1530 1345 c0 -3 2 -5 5 -5 3 0 5 2 5 5 0 3 -2 5 -5 5 -3 0 -5 -2 -5 -5z
M1504 1328 c-4 -7 -3 -8 4 -4 7 4 12 9 12 12 0 8 -9 4 -16 -8z M1930 1355 c0
-3 2 -5 5 -5 3 0 5 2 5 5 0 3 -2 5 -5 5 -3 0 -5 -2 -5 -5z M810 1335 c0 -3 2
-5 5 -5 3 0 5 2 5 5 0 3 -2 5 -5 5 -3 0 -5 -2 -5 -5z M1332 1318 c-32 -32 1
-79 44 -59 35 16 31 65 -6 69 -14 2 -31 -3 -38 -10z m48 -32 c0 -2 -8 -6 -18
-8 -12 -4 -18 1 -18 13 0 14 4 15 18 8 10 -5 18 -11 18 -13z M2416 1315 c3 -8
9 -14 12 -13 20 2 30 -5 41 -28 25 -55 -43 -100 -82 -54 -17 21 -24 45 -9 36
5 -3 9 1 9 9 0 8 -4 12 -9 9 -4 -3 -8 0 -8 6 0 6 -4 8 -10 5 -19 -12 -10 -56
16 -80 34 -31 74 -32 102 -2 29 31 28 68 -3 101 -26 28 -68 37 -59 11z M1573
1295 c-30 -21 -37 -60 -17 -95 22 -36 55 -45 93 -26 48 25 55 73 16 111 -27
28 -61 32 -92 10z m79 -22 c22 -20 23 -43 3 -69 -15 -19 -15 -19 -9 1 l5 20
-13 -20 c-18 -28 -44 -29 -62 -3 -20 29 -20 30 5 62 24 30 45 33 71 9z M1600
1275 c0 -3 2 -5 5 -5 3 0 5 2 5 5 0 3 -2 5 -5 5 -3 0 -5 -2 -5 -5z M1623 1273
c4 -3 10 -3 14 0 3 4 0 7 -7 7 -7 0 -10 -3 -7 -7z M1610 1255 c0 -3 2 -5 5 -5
3 0 5 2 5 5 0 3 -2 5 -5 5 -3 0 -5 -2 -5 -5z M1646 1247 c3 -10 9 -15 12 -12
3 3 0 11 -7 18 -10 9 -11 8 -5 -6z M1623 1233 c4 -3 10 -3 14 0 3 4 0 7 -7 7
-7 0 -10 -3 -7 -7z M1590 1195 c0 -3 2 -5 5 -5 3 0 5 2 5 5 0 3 -2 5 -5 5 -3
0 -5 -2 -5 -5z M2440 1285 c0 -3 2 -5 5 -5 3 0 5 2 5 5 0 3 -2 5 -5 5 -3 0 -5
-2 -5 -5z M1931 1264 c0 -11 3 -14 6 -6 3 7 2 16 -1 19 -3 4 -6 -2 -5 -13z
M1126 1248 c-49 -70 29 -156 102 -113 34 20 38 65 9 108 -23 36 -88 39 -111 5z
m85 -9 c17 -9 18 -13 7 -27 -11 -13 -11 -14 1 -7 11 6 13 4 8 -9 -4 -10 -7
-23 -7 -31 0 -7 -9 -15 -21 -18 -24 -6 -71 12 -63 24 3 5 0 9 -5 9 -6 0 -9 10
-7 23 3 12 5 25 5 29 1 7 24 15 49 17 7 0 22 -4 33 -10z M1174 1228 c-4 -7 -3
-8 4 -4 12 7 16 16 8 16 -3 0 -8 -5 -12 -12z M1144 1218 c-4 -7 -3 -8 4 -4 12
7 16 16 8 16 -3 0 -8 -5 -12 -12z M1210 1225 c0 -3 2 -5 5 -5 3 0 5 2 5 5 0 3
-2 5 -5 5 -3 0 -5 -2 -5 -5z M1170 1205 c0 -3 2 -5 5 -5 3 0 5 2 5 5 0 3 -2 5
-5 5 -3 0 -5 -2 -5 -5z M1140 1195 c0 -3 2 -5 5 -5 3 0 5 2 5 5 0 3 -2 5 -5 5
-3 0 -5 -2 -5 -5z M1150 1165 c0 -3 2 -5 5 -5 3 0 5 2 5 5 0 3 -2 5 -5 5 -3 0
-5 -2 -5 -5z M1200 1165 c0 -3 2 -5 5 -5 3 0 5 2 5 5 0 3 -2 5 -5 5 -3 0 -5
-2 -5 -5z M1180 1155 c0 -3 2 -5 5 -5 3 0 5 2 5 5 0 3 -2 5 -5 5 -3 0 -5 -2
-5 -5z M1755 1245 c-14 -13 -25 -36 -25 -50 0 -53 71 -93 111 -62 42 32 44 72
6 115 -27 29 -62 28 -92 -3z m85 -15 c25 -25 27 -55 4 -46 -14 5 -15 4 -5 -8
10 -12 8 -17 -8 -25 -28 -15 -51 -14 -51 4 0 10 -6 12 -17 8 -16 -6 -17 -5 -3
12 9 11 10 16 3 11 -23 -13 -14 32 9 48 30 21 44 20 68 -4z M1800 1235 c0 -3
2 -5 5 -5 3 0 5 2 5 5 0 3 -2 5 -5 5 -3 0 -5 -2 -5 -5z M1770 1225 c0 -3 2 -5
5 -5 3 0 5 2 5 5 0 3 -2 5 -5 5 -3 0 -5 -2 -5 -5z M1830 1225 c0 -3 2 -5 5 -5
3 0 5 2 5 5 0 3 -2 5 -5 5 -3 0 -5 -2 -5 -5z M1823 1163 c4 -3 10 -3 14 0 3 4
0 7 -7 7 -7 0 -10 -3 -7 -7z M1800 1155 c0 -3 2 -5 5 -5 3 0 5 2 5 5 0 3 -2 5
-5 5 -3 0 -5 -2 -5 -5z M1260 1255 c0 -3 2 -5 5 -5 3 0 5 2 5 5 0 3 -2 5 -5 5
-3 0 -5 -2 -5 -5z M770 1225 c0 -3 2 -5 5 -5 3 0 5 2 5 5 0 3 -2 5 -5 5 -3 0
-5 -2 -5 -5z M1416 1217 c-24 -18 -18 -61 9 -65 11 -1 29 4 40 12 17 12 18 17
7 40 -13 29 -29 33 -56 13z m44 -38 c0 -4 -8 -10 -17 -13 -10 -4 -14 -4 -10 0
4 4 1 14 -6 22 -9 13 -9 14 1 8 7 -4 12 -2 12 6 0 13 20 -9 20 -23z M1440
1185 c0 -3 2 -5 5 -5 3 0 5 2 5 5 0 3 -2 5 -5 5 -3 0 -5 -2 -5 -5z M2270 1133
c-26 -33 -20 -68 16 -100 31 -28 54 -29 88 -2 54 43 18 129 -55 129 -18 0 -35
-9 -49 -27z m106 -47 c-4 -40 -19 -54 -53 -49 -24 4 -30 9 -26 21 4 10 2 13
-6 8 -8 -6 -11 2 -9 28 1 19 4 33 6 31 3 -2 14 2 25 10 19 13 23 13 43 -6 12
-12 21 -31 20 -43z M2334 1118 c-4 -7 -3 -8 4 -4 12 7 16 16 8 16 -3 0 -8 -5
-12 -12z M2300 1100 c0 -7 3 -10 7 -7 3 4 3 10 0 14 -4 3 -7 0 -7 -7z M1518
1119 c-22 -12 -24 -58 -2 -66 23 -8 64 14 64 35 0 36 -29 50 -62 31z m32 -17
c0 -13 -12 -22 -22 -16 -10 6 -1 24 13 24 5 0 9 -4 9 -8z m10 -27 c0 -3 -2 -5
-5 -5 -3 0 -5 2 -5 5 0 3 2 5 5 5 3 0 5 -2 5 -5z M1530 1095 c0 -3 2 -5 5 -5
3 0 5 2 5 5 0 3 -2 5 -5 5 -3 0 -5 -2 -5 -5z M1246 1089 c-54 -42 -19 -129 51
-129 69 0 91 81 35 127 -34 28 -52 29 -86 2z m64 -9 c3 -2 10 -1 15 0 5 1 7
-2 3 -6 -4 -4 -4 -12 1 -18 23 -30 19 -56 -9 -71 -21 -11 -31 -12 -36 -3 -5 7
-3 8 6 3 9 -5 11 -4 6 4 -6 9 -11 9 -21 1 -9 -7 -16 -6 -25 5 -14 17 4 75 24
75 6 0 4 5 -4 10 -11 8 -9 9 10 6 14 -3 27 -5 30 -6z m-60 -15 c0 -3 -2 -5 -5
-5 -3 0 -5 2 -5 5 0 3 2 5 5 5 3 0 5 -2 5 -5z M1290 1070 c0 -7 3 -10 7 -7 3
4 3 10 0 14 -4 3 -7 0 -7 -7z M1270 1055 c0 -3 2 -5 5 -5 3 0 5 2 5 5 0 3 -2
5 -5 5 -3 0 -5 -2 -5 -5z M1290 1045 c0 -3 2 -5 5 -5 3 0 5 2 5 5 0 3 -2 5 -5
5 -3 0 -5 -2 -5 -5z M1313 1043 c4 -3 1 -13 -6 -22 -11 -14 -10 -14 5 -2 16
12 16 31 1 31 -4 0 -3 -3 0 -7z M1260 1025 c0 -3 2 -5 5 -5 3 0 5 2 5 5 0 3
-2 5 -5 5 -3 0 -5 -2 -5 -5z M1250 1005 c0 -3 2 -5 5 -5 3 0 5 2 5 5 0 3 -2 5
-5 5 -3 0 -5 -2 -5 -5z M1323 1003 c4 -3 10 -3 14 0 3 4 0 7 -7 7 -7 0 -10 -3
-7 -7z M1740 1105 c0 -3 2 -5 5 -5 3 0 5 2 5 5 0 3 -2 5 -5 5 -3 0 -5 -2 -5
-5z M2136 988 c-38 -54 1 -128 67 -128 27 0 61 36 63 68 5 69 -93 113 -130 60z
m88 -15 c30 -32 28 -63 -6 -82 -21 -12 -27 -12 -51 4 -15 9 -27 22 -27 29 0 6
5 4 11 -4 9 -12 10 -11 4 5 -15 45 -7 59 42 74 1 1 13 -11 27 -26z M2184 978
c-4 -7 -3 -8 4 -4 12 7 16 16 8 16 -3 0 -8 -5 -12 -12z M1970 925 c0 -3 2 -5
5 -5 3 0 5 2 5 5 0 3 -2 5 -5 5 -3 0 -5 -2 -5 -5z M2060 915 c0 -3 2 -5 5 -5
3 0 5 2 5 5 0 3 -2 5 -5 5 -3 0 -5 -2 -5 -5z M1965 890 c-60 -67 42 -173 105
-110 28 28 26 75 -5 105 -30 31 -75 33 -100 5z m85 -20 c46 -46 5 -109 -49
-76 -10 7 -12 5 -7 -5 4 -8 0 -5 -8 5 -46 57 13 127 64 76z M1990 875 c0 -3 2
-5 5 -5 3 0 5 2 5 5 0 3 -2 5 -5 5 -3 0 -5 -2 -5 -5z M2010 875 c0 -3 2 -5 5
-5 3 0 5 2 5 5 0 3 -2 5 -5 5 -3 0 -5 -2 -5 -5z M2030 855 c0 -3 2 -5 5 -5 3
0 5 2 5 5 0 3 -2 5 -5 5 -3 0 -5 -2 -5 -5z M1980 830 c0 -7 3 -10 7 -7 3 4 3
10 0 14 -4 3 -7 0 -7 -7z M2050 835 c0 -3 2 -5 5 -5 3 0 5 2 5 5 0 3 -2 5 -5
5 -3 0 -5 -2 -5 -5z M2050 805 c0 -3 2 -5 5 -5 3 0 5 2 5 5 0 3 -2 5 -5 5 -3
0 -5 -2 -5 -5z M1690 845 c0 -3 2 -5 5 -5 3 0 5 2 5 5 0 3 -2 5 -5 5 -3 0 -5
-2 -5 -5z M1590 815 c0 -3 2 -5 5 -5 3 0 5 2 5 5 0 3 -2 5 -5 5 -3 0 -5 -2 -5
-5z M1640 789 c0 -5 5 -7 10 -4 6 3 10 8 10 11 0 2 -4 4 -10 4 -5 0 -10 -5
-10 -11z"/>
</g>
</svg>
