<?xml version="1.0" standalone="no"?>
<!DOCTYPE svg PUBLIC "-//W3C//DTD SVG 20010904//EN"
 "http://www.w3.org/TR/2001/REC-SVG-20010904/DTD/svg10.dtd">
<svg version="1.0" xmlns="http://www.w3.org/2000/svg"
 width="171.000000pt" height="66.000000pt" viewBox="0 0 171.000000 66.000000"
 preserveAspectRatio="xMidYMid meet">

<g transform="translate(0.000000,66.000000) scale(0.100000,-0.100000)"
fill="#000000" stroke="none">
<path d="M347 486 c-83 -37 -192 -100 -242 -140 -25 -20 -28 -28 -19 -43 22
-37 267 -157 345 -169 39 -6 41 -6 37 17 -2 14 -25 41 -60 69 -48 38 -54 46
-40 54 27 15 750 12 952 -4 256 -20 262 -20 270 10 3 14 4 36 0 50 -7 30 -4
30 -335 11 -231 -14 -890 -11 -927 4 -14 6 -3 19 54 65 75 61 93 84 83 100
-10 17 -37 11 -118 -24z"/>
</g>
</svg>
