<?xml version="1.0" standalone="no"?>
<!DOCTYPE svg PUBLIC "-//W3C//DTD SVG 20010904//EN"
 "http://www.w3.org/TR/2001/REC-SVG-20010904/DTD/svg10.dtd">
<svg version="1.0" xmlns="http://www.w3.org/2000/svg"
 width="171.000000pt" height="66.000000pt" viewBox="0 0 171.000000 66.000000"
 preserveAspectRatio="xMidYMid meet">

<g transform="translate(0.000000,66.000000) scale(0.100000,-0.100000)"
fill="#000000" stroke="none">
<path d="M1242 509 c2 -14 25 -41 60 -69 48 -38 54 -46 40 -54 -27 -15 -750
-12 -952 4 -256 20 -263 20 -270 -10 -4 -14 -3 -36 0 -50 8 -30 4 -30 335 -11
231 14 890 11 927 -4 14 -6 3 -19 -54 -65 -39 -32 -75 -66 -80 -74 -14 -25 1
-39 34 -32 75 15 332 158 345 193 3 7 0 20 -7 28 -29 35 -272 150 -341 161
-39 6 -41 6 -37 -17z"/>
</g>
</svg>
