<?xml version="1.0" standalone="no"?>
<!DOCTYPE svg PUBLIC "-//W3C//DTD SVG 20010904//EN"
 "http://www.w3.org/TR/2001/REC-SVG-20010904/DTD/svg10.dtd">
<svg version="1.0" xmlns="http://www.w3.org/2000/svg"
 width="900.000000pt" height="520.000000pt" viewBox="0 0 900.000000 520.000000"
 preserveAspectRatio="xMidYMid meet">

<g transform="translate(0.000000,520.000000) scale(0.100000,-0.100000)"
fill="#668942" stroke="none">
<path d="M5470 5181 c0 -12 6 -21 16 -21 9 0 14 7 12 17 -5 25 -28 28 -28 4z"/>
<path d="M5380 5149 c0 -5 5 -7 10 -4 6 3 10 8 10 11 0 2 -4 4 -10 4 -5 0 -10
-5 -10 -11z"/>
<path d="M5430 5123 c-8 -3 -21 -12 -28 -21 -7 -10 -29 -16 -55 -17 -24 -1
-57 -9 -74 -17 -28 -14 -45 -15 -105 -4 -25 4 -27 2 -22 -20 7 -27 -10 -54
-33 -54 -8 0 -22 -7 -30 -16 -13 -13 -17 -13 -24 -2 -6 9 -9 10 -9 1 0 -7 -9
-17 -19 -22 -16 -9 -18 -8 -14 9 3 11 9 20 14 20 5 0 9 7 9 15 0 8 -8 15 -19
15 -10 0 -34 7 -54 15 -31 13 -36 13 -47 -1 -10 -12 -10 -14 1 -10 20 8 50
-19 43 -37 -4 -11 -14 -14 -38 -10 -27 4 -34 2 -38 -15 -4 -14 -2 -19 6 -16 7
3 13 -2 13 -11 0 -9 -9 -15 -22 -15 -13 0 -28 -7 -35 -15 -12 -14 -15 -14 -31
1 -16 15 -19 14 -36 -7 -10 -12 -39 -44 -64 -71 -90 -94 -85 -86 -63 -103 17
-13 17 -14 2 -15 -10 0 -18 -7 -18 -15 0 -8 -9 -15 -21 -15 -16 0 -19 4 -14
23 6 21 6 21 -9 3 -9 -11 -24 -20 -33 -21 -31 -2 -43 -15 -43 -45 0 -27 -2
-29 -25 -20 -18 7 -28 5 -39 -5 -22 -22 -29 -18 -23 12 5 26 4 26 -9 8 -8 -10
-14 -22 -14 -27 0 -4 -6 -8 -14 -8 -8 0 -18 -9 -21 -20 -3 -11 -10 -20 -15
-20 -5 0 -18 -10 -30 -22 -16 -17 -20 -19 -20 -6 0 9 4 18 8 20 9 4 66 78 60
78 -17 0 -73 -56 -90 -89 -12 -24 -27 -41 -37 -40 -12 0 -11 3 7 16 26 18 29
33 7 33 -14 0 -13 3 2 25 10 13 26 25 35 25 31 0 30 20 -1 20 -22 0 -31 -6
-37 -22 -3 -12 -13 -28 -21 -36 -12 -12 -17 -12 -38 2 -23 15 -24 14 -37 -14
-7 -17 -25 -34 -41 -40 -21 -7 -28 -14 -23 -26 9 -24 -12 -45 -39 -38 -28 7
-78 -34 -101 -81 -9 -19 -24 -37 -33 -40 -10 -3 -41 -28 -70 -56 -29 -28 -66
-55 -82 -61 -18 -6 -28 -16 -25 -23 2 -7 -3 -20 -13 -29 -15 -13 -24 -14 -46
-6 -23 9 -26 8 -21 -5 3 -8 9 -22 13 -32 4 -11 3 -14 -5 -9 -6 3 -15 -2 -21
-12 -5 -10 -22 -24 -38 -32 -38 -20 -50 -33 -45 -48 4 -14 -14 -16 -23 -2 -4
6 -11 8 -16 4 -5 -3 -7 -10 -4 -15 6 -8 -9 -13 -29 -10 -5 1 -13 -3 -17 -10
-5 -9 -14 -6 -35 10 -34 27 -41 21 -19 -17 17 -28 17 -29 -8 -56 -22 -23 -31
-27 -56 -21 -25 5 -31 3 -31 -10 0 -14 -6 -16 -35 -11 -39 8 -43 2 -18 -26 15
-16 15 -18 1 -13 -17 7 -27 -3 -33 -32 -6 -33 -35 -93 -44 -93 -16 0 -33 28
-21 35 15 9 12 25 -5 25 -8 0 -15 -5 -15 -10 0 -6 -3 -9 -7 -8 -5 1 -18 -4
-31 -11 l-23 -12 16 30 c8 17 22 31 30 31 21 0 7 27 -17 34 -17 4 -19 8 -9 20
9 11 9 16 0 21 -6 4 -15 2 -19 -5 -4 -7 -13 -9 -19 -6 -6 4 -11 0 -11 -8 0 -9
-9 -25 -20 -36 -11 -11 -20 -27 -20 -35 0 -8 -7 -15 -15 -15 -20 0 -19 19 2
42 27 30 5 34 -27 3 -24 -23 -28 -24 -24 -8 7 26 -32 38 -53 17 -22 -21 -36
-6 -18 19 8 12 15 31 15 42 -1 19 -1 19 -19 -2 -11 -13 -28 -23 -40 -23 -11 0
-23 -4 -26 -10 -10 -16 -28 -12 -21 5 4 12 0 14 -22 8 -25 -6 -26 -5 -12 11
13 17 12 18 -4 15 -11 -2 -20 -12 -22 -22 -3 -21 -14 -36 -14 -20 0 6 -16 21
-37 33 -36 21 -52 17 -53 -15 -1 -18 -51 -48 -62 -37 -7 7 -19 7 -35 1 -22 -8
-25 -7 -20 10 9 34 -41 36 -104 4 -30 -15 -57 -31 -60 -36 -3 -4 -13 -5 -23
-1 -11 4 -24 -2 -37 -17 -20 -23 -21 -23 -31 -5 -8 14 -12 15 -18 6 -5 -8 -13
-9 -21 -4 -22 13 -39 13 -39 0 0 -7 -6 -18 -12 -24 -7 -7 -13 -20 -13 -30 0
-10 -12 -21 -32 -26 -17 -6 -37 -20 -44 -33 -7 -13 -15 -23 -18 -23 -3 0 -26
-19 -51 -41 -71 -66 -105 -89 -132 -91 -14 -1 -24 -7 -22 -13 3 -6 -9 -18 -26
-28 -16 -10 -30 -22 -30 -28 0 -5 -4 -9 -9 -9 -5 0 -7 10 -3 22 3 14 2 19 -6
14 -7 -4 -12 -14 -12 -22 0 -17 -16 -18 -27 -1 -5 8 -9 2 -13 -17 -3 -20 -16
-34 -40 -47 -19 -10 -42 -28 -52 -39 -9 -11 -24 -20 -33 -20 -9 0 -13 -5 -9
-11 8 -13 -64 -89 -86 -89 -16 -1 -54 -66 -42 -73 4 -2 1 -2 -6 0 -13 3 -24
-4 -65 -43 -13 -11 -28 -19 -35 -16 -7 2 -37 -21 -68 -52 -31 -30 -61 -53 -68
-50 -9 4 3 22 36 55 27 27 51 49 53 49 3 0 24 21 47 47 57 63 95 100 105 104
11 5 49 66 62 102 9 23 8 27 -7 27 -10 0 -27 -7 -38 -16 -16 -13 -16 -15 -1
-10 24 7 22 -11 -3 -24 -15 -8 -20 -8 -20 2 0 7 -15 -3 -32 -22 -17 -19 -52
-58 -77 -85 -25 -28 -56 -63 -68 -79 -14 -17 -27 -25 -34 -20 -9 5 -10 2 -6
-9 4 -10 -3 -21 -19 -32 -14 -9 -22 -21 -18 -28 4 -7 4 -9 -1 -5 -8 8 -45 -28
-45 -44 0 -4 -9 -8 -20 -8 -23 0 -26 10 -8 28 9 9 9 12 1 12 -7 0 -23 -12 -37
-27 -14 -16 -74 -78 -133 -140 -122 -127 -163 -172 -163 -182 0 -4 -9 -13 -20
-21 -11 -8 -20 -20 -20 -27 0 -7 -4 -13 -9 -13 -5 0 -19 -17 -32 -37 l-23 -38
-7 40 c-4 22 -4 44 -2 49 12 19 -21 -2 -35 -22 -13 -19 -13 -22 1 -22 21 0 16
-52 -6 -59 -16 -6 -71 -74 -95 -117 -7 -13 -22 -24 -32 -24 -18 0 -43 -31 -46
-55 -2 -22 -19 -51 -46 -83 -28 -32 -35 -52 -20 -52 4 0 13 5 20 12 7 7 12 8
12 2 0 -6 -8 -19 -19 -28 -17 -16 -19 -16 -25 0 -5 12 -13 14 -34 9 -35 -9
-40 -14 -22 -25 12 -7 12 -12 -3 -28 -21 -23 -22 -41 -2 -48 19 -8 19 -41 0
-60 -8 -9 -15 -23 -15 -32 0 -9 -12 -25 -26 -35 -29 -22 -57 -16 -47 9 5 13 3
15 -13 6 -10 -6 -30 -22 -43 -36 -14 -14 -30 -26 -38 -26 -7 0 -13 -4 -13 -10
0 -13 6 -13 31 0 15 8 19 7 19 -4 0 -8 6 -17 13 -20 8 -3 6 -9 -8 -21 -27 -21
-47 -40 -63 -59 -7 -9 -22 -16 -33 -16 -31 0 -69 -33 -59 -51 7 -10 1 -20 -18
-36 -15 -11 -23 -25 -19 -30 5 -4 19 5 31 20 15 19 28 26 39 21 12 -4 17 -1
17 10 0 9 6 16 13 16 9 0 12 -11 9 -34 -4 -31 -2 -33 21 -29 16 3 26 -1 30
-11 4 -9 1 -16 -5 -16 -6 0 -8 -3 -5 -7 4 -3 -4 -16 -18 -28 -13 -13 -21 -25
-18 -28 3 -4 -9 -25 -27 -48 -27 -33 -30 -40 -15 -38 11 2 33 22 50 44 34 44
70 55 91 28 7 -10 14 -13 14 -7 0 7 15 15 34 18 20 4 41 16 50 31 9 14 21 25
28 25 15 0 3 -71 -14 -82 -12 -7 -4 -12 15 -9 4 0 7 -4 7 -9 0 -6 7 -10 15
-10 18 0 20 17 3 22 -7 3 -8 10 -3 17 6 11 10 10 17 -3 13 -23 38 -20 38 4 0
11 5 20 11 20 8 0 9 -15 4 -46 -6 -40 -4 -46 14 -51 17 -4 18 -8 8 -25 -9 -16
-9 -22 0 -25 7 -3 13 -11 13 -19 0 -14 21 -10 53 11 16 11 16 14 3 27 -11 11
-12 25 -5 62 5 26 8 50 7 54 -5 18 34 72 52 72 28 0 25 -28 -5 -42 -14 -6 -25
-15 -25 -20 0 -5 5 -6 10 -3 6 3 10 1 10 -6 0 -7 10 -9 25 -7 30 6 32 -2 5
-25 -29 -24 -26 -45 5 -39 19 3 25 0 25 -13 0 -12 -5 -15 -21 -10 -15 5 -19 4
-14 -5 4 -7 18 -9 35 -5 16 3 31 2 35 -4 12 -20 26 -11 20 12 -6 18 -5 20 6
10 20 -19 39 -15 39 8 0 15 5 19 18 15 13 -4 21 2 29 24 16 42 33 37 33 -10 0
-37 2 -40 23 -35 12 3 39 -1 59 -10 42 -17 61 -20 38 -5 -8 5 -15 17 -15 27 0
13 -7 17 -24 15 -19 -2 -22 2 -18 18 6 22 -18 29 -26 8 -5 -16 -46 30 -47 51
0 8 3 12 6 8 7 -7 54 46 54 60 0 6 9 18 20 28 11 10 20 26 20 35 0 10 7 23 15
30 12 10 15 10 15 0 0 -10 3 -10 15 0 11 9 15 9 15 1 0 -7 4 -10 9 -6 16 9 22
-12 7 -24 -9 -8 -16 -8 -20 -2 -7 11 -36 4 -36 -9 0 -5 16 -14 35 -21 19 -7
35 -17 35 -23 0 -5 8 -2 18 7 10 10 22 17 25 17 12 0 8 -35 -5 -48 -6 -6 -9
-15 -5 -18 3 -4 14 2 24 12 16 16 18 16 21 1 2 -9 -2 -26 -9 -39 -16 -30 -18
-88 -3 -88 6 0 17 7 25 16 10 12 10 20 1 35 -13 20 -6 24 15 11 10 -6 9 -14
-2 -35 -8 -15 -12 -33 -10 -40 7 -19 -22 -50 -40 -44 -10 4 -15 0 -15 -12 0
-25 29 -36 37 -13 4 9 17 31 29 47 12 17 29 49 37 72 13 38 13 42 -5 58 -14
11 -17 20 -9 29 6 6 9 21 7 32 -2 10 -1 13 1 7 6 -17 13 -16 29 5 16 20 18 36
4 27 -21 -13 -8 11 15 28 24 17 25 17 26 0 0 -11 3 -13 6 -5 7 17 43 36 43 22
0 -5 -7 -10 -15 -10 -19 0 -20 -16 -1 -23 8 -3 17 1 20 9 3 9 10 12 16 9 6 -4
1 -18 -11 -35 -12 -15 -18 -33 -15 -39 8 -12 -3 -27 -48 -72 -33 -31 -32 -50
1 -20 20 19 21 19 51 -1 21 -13 29 -25 26 -36 -4 -11 2 -9 16 7 25 29 60 38
60 16 0 -20 5 -19 34 8 17 16 22 27 15 34 -6 6 -3 18 11 35 25 32 25 34 -1 41
-15 4 -20 11 -15 22 3 9 6 26 6 37 0 15 5 19 20 15 10 -3 21 0 24 7 2 6 2 -4
-1 -22 -4 -25 -1 -36 13 -46 16 -12 17 -16 4 -32 -13 -16 -9 -15 22 4 28 16
38 18 38 8 0 -34 47 -25 51 9 7 57 7 65 -6 65 -9 0 -11 -8 -8 -22 5 -19 3 -21
-8 -11 -18 17 -34 16 -54 -3 -20 -21 -45 -4 -27 18 12 15 11 35 -2 56 -4 7 -5
16 -1 20 4 4 10 1 12 -6 7 -18 23 -4 23 19 0 20 17 24 58 13 22 -6 33 -36 11
-31 -6 1 -14 -4 -17 -12 -3 -11 2 -12 23 -7 34 9 65 -1 65 -21 0 -8 -9 -17
-20 -20 -13 -4 -20 -14 -20 -30 0 -13 4 -22 9 -19 5 3 12 -1 15 -10 7 -19 -19
-43 -46 -44 -12 0 -18 -8 -18 -25 0 -20 -5 -25 -25 -25 -28 0 -34 -17 -10 -26
9 -4 13 -13 10 -24 -3 -9 1 -23 10 -30 21 -17 20 -41 -2 -33 -11 4 -14 3 -9
-6 5 -8 1 -14 -13 -18 -12 -3 -21 -13 -21 -24 0 -15 -5 -17 -30 -13 -32 7 -43
-12 -14 -23 13 -5 13 -7 2 -14 -11 -7 -10 -9 1 -9 11 0 10 -5 -4 -20 -21 -23
-90 -29 -82 -7 2 6 10 13 18 13 39 4 42 6 15 14 -25 8 -32 6 -45 -13 -9 -12
-16 -24 -16 -27 0 -3 -3 -9 -6 -15 -3 -5 -5 -23 -4 -40 1 -16 0 -34 -4 -40 -3
-5 -6 -16 -8 -24 -4 -30 9 -30 37 1 16 18 27 34 24 37 -3 3 -11 -2 -18 -11
-17 -23 -24 -15 -18 21 3 24 11 31 36 37 17 4 35 7 40 6 4 -2 19 4 32 13 27
17 34 19 34 6 0 -23 -33 -42 -61 -36 -19 4 -29 3 -29 -5 0 -6 4 -9 9 -6 5 3
12 -2 16 -11 3 -10 1 -19 -4 -21 -17 -6 -13 -29 5 -36 21 -8 34 1 34 24 0 27
17 34 25 10 5 -15 12 -19 25 -15 22 7 38 -14 19 -25 -7 -5 -17 -6 -21 -4 -4 3
-5 -2 -2 -11 4 -9 13 -14 20 -11 8 3 14 1 14 -4 0 -16 -40 -51 -50 -45 -6 4
-10 -1 -10 -10 0 -9 -3 -14 -8 -11 -13 8 -43 -22 -40 -41 2 -12 -3 -18 -15
-17 -14 2 -15 -1 -6 -12 6 -8 20 -14 30 -14 10 0 21 -5 25 -11 4 -8 9 -7 15 2
6 10 9 8 9 -8 0 -24 30 -34 30 -10 0 6 5 4 11 -6 6 -10 9 -27 6 -38 -3 -10 -1
-19 4 -19 5 0 9 7 9 14 0 18 37 59 67 74 27 15 31 15 36 0 2 -7 3 -5 1 5 -2
16 7 40 30 76 8 12 11 11 17 -5 4 -12 1 -26 -10 -38 -15 -18 -15 -19 3 -13 15
6 17 3 13 -13 -4 -15 0 -20 14 -20 11 0 19 7 19 18 0 19 39 74 40 55 0 -15 20
-18 20 -3 0 6 -9 19 -20 30 -11 11 -15 22 -10 25 6 4 10 3 10 -2 0 -4 4 -1 10
7 7 11 11 9 19 -13 15 -40 14 -51 -9 -72 -12 -10 -18 -25 -16 -32 3 -7 0 -13
-7 -13 -9 0 -9 -2 0 -8 12 -8 12 -24 -2 -55 -4 -9 -3 -23 3 -30 11 -12 -4 -43
-21 -45 -17 -1 -16 -8 2 -19 25 -15 44 -1 45 35 l1 30 27 -31 c18 -22 26 -42
24 -62 -1 -16 4 -41 11 -55 11 -21 11 -27 -2 -36 -11 -8 -12 -13 -3 -22 7 -7
17 -12 23 -12 16 0 61 -41 68 -63 4 -9 11 -17 17 -17 13 0 13 17 -1 25 -7 5
-5 13 6 25 9 10 14 23 11 28 -5 9 14 31 39 45 14 7 11 -51 -3 -65 -20 -20 -14
-36 24 -62 33 -22 34 -25 15 -31 -18 -5 -19 -8 -7 -21 14 -14 11 -50 -5 -60
-13 -8 -11 -34 3 -34 6 0 8 3 5 7 -4 3 1 15 10 25 10 11 18 29 18 41 0 16 8
23 35 28 23 5 37 3 42 -4 5 -8 8 -6 8 6 0 20 13 22 28 4 6 -7 6 -21 1 -36 -8
-19 -14 -22 -37 -17 l-27 6 28 -16 c30 -16 57 -6 57 22 0 8 7 14 16 14 17 0
16 -22 -2 -65 -8 -19 -7 -20 19 -2 l27 17 1 -27 c1 -24 2 -22 8 9 15 76 91
147 91 85 0 -13 -4 -27 -9 -32 -12 -14 -23 -65 -13 -65 15 0 32 24 32 46 0 13
4 25 9 28 5 3 7 15 4 26 -3 11 0 20 6 20 6 0 11 -7 11 -15 0 -8 5 -15 10 -15
6 0 10 -8 10 -17 0 -15 -2 -16 -10 -3 -8 13 -10 13 -10 -1 0 -28 44 -29 70 -2
21 22 57 33 46 14 -3 -5 1 -14 9 -21 15 -12 21 -3 16 24 -1 5 2 12 8 15 5 3
11 22 13 41 3 23 10 36 22 38 15 3 16 1 7 -16 -15 -29 -14 -37 4 -22 9 7 18
11 20 8 10 -9 -6 -37 -23 -41 -15 -4 -15 -5 1 -6 20 -1 23 -21 5 -39 -18 -18
-5 -15 63 13 59 24 86 25 73 4 -3 -6 -13 -8 -21 -5 -10 4 -13 0 -11 -11 5 -27
24 -26 43 3 14 22 15 28 4 35 -11 7 -11 12 4 26 10 11 17 13 17 5 0 -7 7 -12
15 -12 9 0 15 9 15 24 0 27 24 53 35 36 4 -7 12 -7 25 0 15 8 18 7 15 -3 -3
-7 1 -21 9 -32 10 -13 15 -15 16 -6 0 11 3 11 15 1 8 -7 15 -8 15 -2 0 5 -6
15 -14 21 -18 15 -14 60 5 72 19 12 32 11 24 -1 -3 -5 -2 -10 4 -10 5 0 13 5
16 10 10 16 28 12 21 -5 -3 -9 0 -15 9 -15 8 0 15 -4 15 -10 0 -5 7 -10 15
-10 8 0 15 -7 15 -16 0 -9 5 -12 12 -8 8 5 9 2 5 -9 -7 -17 8 -24 17 -8 3 4
17 6 32 3 16 -3 29 1 35 9 11 17 12 42 1 35 -4 -2 -6 13 -4 35 5 46 22 53 22
9 0 -16 4 -30 8 -30 5 0 8 10 8 22 -1 13 5 23 13 23 8 0 16 6 19 13 2 6 -3 12
-12 12 -19 0 -22 20 -3 21 6 0 23 2 37 5 22 3 23 2 7 -7 -14 -8 -17 -18 -12
-36 3 -14 2 -30 -3 -36 -12 -15 -21 -67 -13 -67 4 0 12 5 19 12 9 9 12 8 12
-4 0 -9 -4 -20 -10 -23 -21 -13 -9 -27 17 -20 l27 6 -19 -23 c-11 -13 -43 -47
-73 -77 -50 -51 -62 -79 -35 -88 6 -2 21 5 31 17 33 37 36 39 78 78 22 20 43
45 47 54 4 11 12 15 22 12 13 -6 20 6 16 29 0 4 6 7 15 7 9 0 34 16 55 35 43
38 61 45 53 18 -4 -12 3 -8 20 10 14 15 30 27 36 27 15 0 13 20 -2 20 -8 1 -6
6 5 14 9 7 17 18 17 25 0 17 17 13 24 -5 9 -22 8 -24 -8 -18 -9 4 -16 -6 -20
-31 -8 -42 0 -58 17 -34 7 9 18 14 25 12 6 -3 12 2 12 10 0 9 6 18 13 21 8 3
5 11 -11 24 -12 11 -22 25 -22 31 0 6 -7 11 -15 11 -8 0 -15 5 -15 10 0 6 9
10 19 10 11 0 22 6 24 13 4 9 6 9 6 0 2 -21 21 -15 21 6 0 19 34 51 53 51 5 0
7 -9 4 -20 -3 -12 1 -24 11 -29 18 -10 18 -10 -16 -33 -24 -16 -23 -16 13 -13
28 3 35 1 26 -8 -6 -6 -11 -15 -11 -19 0 -12 48 -10 55 2 3 5 15 10 26 10 10
0 19 5 19 10 0 6 7 10 15 10 7 0 18 8 24 18 8 13 12 14 22 5 10 -10 7 -14 -14
-22 -15 -6 -27 -18 -27 -27 0 -9 -9 -27 -19 -41 -11 -13 -17 -31 -14 -39 3 -8
-1 -14 -11 -14 -18 0 -22 26 -5 32 7 2 6 8 -4 17 -13 10 -18 9 -28 -11 -7 -13
-19 -28 -28 -35 -12 -10 -13 -12 -2 -13 11 0 11 -3 1 -15 -19 -23 3 -45 28
-27 32 23 92 50 92 42 0 -4 9 -10 20 -13 15 -4 20 -14 20 -36 0 -34 11 -39 30
-16 7 8 25 15 41 15 16 0 33 8 42 20 8 11 17 17 20 13 4 -3 7 1 7 9 0 9 7 19
17 22 15 6 15 8 -1 19 -16 12 -16 14 -2 26 8 7 12 19 9 27 -6 15 13 44 29 44
6 0 6 -6 -1 -14 -17 -20 2 -30 42 -22 28 5 32 10 33 37 1 24 -1 28 -8 15 -12
-22 -52 -22 -44 0 3 9 6 18 6 20 0 2 10 4 23 5 l22 0 -22 16 c-27 18 -30 38
-7 47 28 11 37 7 23 -11 -11 -13 -11 -17 -1 -20 6 -3 12 -10 12 -16 0 -18 43
-43 48 -28 3 9 32 17 32 8 0 -13 -42 -79 -69 -107 -20 -21 -28 -36 -21 -38 7
-3 28 12 47 32 27 28 39 34 49 25 7 -6 18 -8 23 -5 13 8 61 -4 61 -15 0 -5 -7
-6 -15 -3 -18 7 -20 -3 -2 -20 22 -21 54 -16 66 11 7 14 17 23 25 20 12 -5 14
17 6 63 0 3 -10 -6 -21 -20 -14 -17 -22 -21 -26 -12 -7 17 -24 15 -17 -3 4 -8
1 -15 -5 -15 -17 0 -13 36 6 51 14 12 16 12 8 0 -6 -11 -4 -13 9 -8 10 4 20 7
22 7 3 0 2 5 -1 10 -8 14 23 63 35 55 10 -6 60 38 60 54 0 17 -11 13 -31 -11
-11 -11 -19 -16 -19 -10 0 21 39 52 64 52 14 0 28 5 31 11 4 6 13 8 21 5 8 -3
14 -1 14 4 0 6 8 10 18 10 24 0 42 19 35 36 -3 8 0 14 7 14 6 0 9 -3 7 -8 -2
-4 5 -16 16 -26 20 -19 20 -19 15 8 -4 18 -1 26 9 26 8 0 11 5 7 12 -4 7 -3 8
5 4 7 -5 19 1 29 12 9 11 24 29 33 39 8 10 27 27 42 38 15 11 27 24 27 30 0
13 36 45 51 45 6 0 9 7 5 15 -3 8 -2 15 3 15 5 0 12 -11 15 -25 4 -14 11 -25
17 -25 6 0 7 -5 3 -12 -12 -19 -15 -78 -4 -78 7 0 8 -6 0 -19 -5 -11 -10 -32
-10 -48 1 -24 2 -25 11 -10 5 9 7 21 4 27 -7 11 52 43 65 35 6 -3 10 1 10 9 0
9 9 25 20 36 11 11 18 20 15 20 -3 0 -1 9 5 20 6 11 18 20 27 20 12 0 14 3 6
11 -8 8 -6 19 4 40 11 22 12 33 4 43 -9 10 -7 21 6 45 27 46 47 37 22 -11 -19
-36 0 -32 36 8 37 43 43 57 20 48 -15 -6 -20 9 -16 53 1 13 -2 23 -8 23 -5 0
-11 7 -15 15 -3 9 0 15 10 15 8 0 18 -10 23 -22 5 -13 11 -22 15 -20 16 6 26
1 26 -13 0 -19 9 -19 34 0 28 21 36 19 36 -12 l1 -28 24 30 c14 17 23 36 20
43 -2 7 2 15 10 18 8 4 15 15 15 25 0 23 25 25 34 3 8 -22 8 -24 -8 -24 -16 0
-46 -42 -46 -65 0 -8 5 -15 11 -15 6 0 9 -7 5 -15 -3 -8 -1 -15 5 -15 6 0 8
-7 5 -16 -5 -13 -1 -15 19 -10 14 4 25 2 25 -4 0 -5 -5 -10 -10 -10 -6 0 -13
-8 -17 -17 -3 -10 -13 -26 -21 -36 -18 -20 -8 -34 27 -39 19 -2 26 3 32 23 3
15 16 36 28 48 17 17 21 29 16 50 -3 16 1 43 11 66 10 22 17 45 16 51 -1 6 8
10 20 10 18 -1 22 5 22 29 1 19 6 30 16 31 31 2 35 5 21 13 -11 7 -9 14 13 36
29 29 50 27 24 -2 -11 -12 -13 -25 -8 -38 7 -16 9 -17 9 -3 1 9 6 20 12 24 8
4 9 -1 4 -17 -5 -13 -8 -33 -9 -44 -1 -11 -18 -37 -38 -58 -21 -21 -38 -47
-38 -57 0 -11 -8 -23 -17 -29 -10 -5 -14 -13 -10 -17 4 -4 27 13 51 39 48 53
61 58 52 22 -5 -18 -3 -23 7 -19 18 6 16 -28 -2 -50 -9 -11 -10 -16 -2 -16 6
0 11 5 11 10 0 6 7 10 15 10 8 0 15 6 15 14 0 18 30 30 43 17 7 -7 5 -17 -6
-29 -9 -10 -17 -23 -17 -29 0 -6 -7 -14 -16 -17 -9 -4 -14 -9 -11 -12 3 -4 25
9 49 27 23 19 45 32 48 29 3 -3 9 10 15 28 5 17 15 32 22 32 7 0 13 6 13 14 0
7 7 19 16 27 13 11 14 9 9 -17 -4 -16 -11 -42 -16 -58 -5 -16 -9 -36 -9 -45 1
-35 30 23 30 59 0 26 8 46 25 65 14 15 28 39 31 54 5 23 11 28 35 28 33 0 41
-23 25 -74 -5 -17 -3 -23 7 -23 19 0 29 39 21 78 -3 17 -1 32 5 36 5 4 7 14 4
23 -4 10 2 8 18 -8 13 -13 23 -26 22 -29 -1 -3 -4 -13 -8 -22 -5 -13 -2 -15
14 -11 24 6 25 1 11 -27 -5 -11 -14 -28 -19 -38 -5 -11 -5 -25 0 -33 5 -8 9
-30 9 -49 l1 -35 17 28 c10 17 23 26 33 24 15 -4 15 -2 1 25 -11 23 -17 27
-23 17 -7 -11 -9 -11 -9 1 1 22 27 53 39 45 6 -3 11 -13 11 -21 0 -8 6 -17 14
-20 11 -4 12 -11 5 -28 -7 -15 -6 -30 2 -51 13 -30 13 -30 18 26 6 57 25 94
43 83 6 -4 5 2 -1 14 -13 25 -14 35 -2 28 4 -3 13 5 19 19 8 18 8 25 -1 28 -9
3 -9 8 1 19 10 13 10 17 0 20 -10 4 -10 8 1 21 18 23 31 21 31 -2 0 -11 9 -23
21 -26 24 -8 20 -30 -6 -30 -10 0 -21 -10 -26 -22 -5 -14 -5 -23 1 -23 6 0 10
9 10 20 0 22 19 28 22 8 2 -23 5 -33 13 -51 4 -9 4 -29 1 -43 -5 -20 -12 -25
-29 -22 -20 4 -22 0 -25 -41 -2 -27 -9 -49 -18 -54 -16 -9 -19 -47 -4 -47 11
0 28 38 37 85 4 17 16 37 27 45 21 15 26 17 59 19 25 2 21 27 -5 36 -17 5 -19
8 -8 12 30 11 42 26 28 34 -19 12 -2 22 40 26 20 1 32 -1 27 -5 -14 -9 -18
-62 -5 -62 6 0 10 -9 10 -19 0 -27 17 -36 37 -19 15 12 16 10 9 -15 -7 -31 -6
-31 47 6 16 11 26 25 23 33 -3 8 1 14 10 14 8 0 19 -12 25 -27 5 -16 12 -35
16 -43 5 -14 12 8 29 87 2 12 13 23 24 25 12 2 21 8 21 13 0 6 6 16 12 24 10
12 9 12 -10 2 -13 -6 -23 -9 -23 -7 0 3 10 16 23 29 12 13 34 38 49 55 29 35
56 42 58 14 2 -66 7 -86 19 -90 10 -3 12 0 8 11 -3 9 1 18 9 21 9 3 12 10 9
16 -4 6 -11 7 -17 4 -6 -4 -9 -1 -6 7 3 8 12 13 21 11 8 -1 18 2 22 7 3 6 12
8 20 4 10 -3 15 1 15 14 0 20 18 43 33 43 4 0 6 -4 3 -9 -8 -13 19 -32 37 -25
8 3 18 0 23 -7 4 -7 2 -15 -4 -17 -7 -2 -12 -17 -12 -32 0 -16 -5 -32 -12 -36
-7 -5 -9 -2 -5 9 4 11 2 14 -7 11 -7 -3 -16 2 -19 10 -4 11 -19 16 -43 16 -24
0 -34 -4 -31 -12 2 -7 9 -12 15 -11 5 1 12 -7 15 -18 4 -15 0 -23 -14 -26 -11
-3 -19 -14 -20 -27 0 -11 -3 -15 -6 -8 -6 14 -33 16 -33 2 0 -6 -11 -15 -24
-20 -16 -6 -25 -19 -28 -39 l-4 -30 28 21 29 20 37 -27 37 -27 -32 31 c-41 38
-41 45 -4 38 21 -5 35 0 52 15 l24 21 -27 -7 c-17 -4 -28 -2 -28 4 0 5 7 10
15 10 8 0 21 12 29 28 8 15 15 21 16 15 1 -42 83 26 93 76 6 27 9 28 52 26 25
-2 45 1 45 6 0 14 28 11 33 -3 2 -7 0 -23 -6 -35 -13 -29 -2 -53 23 -53 14 0
19 4 14 13 -6 10 -4 10 7 0 7 -7 27 -12 43 -12 24 1 26 3 9 6 -46 9 -21 22 35
20 53 -2 58 -4 54 -22 -4 -17 -2 -18 9 -7 8 7 14 20 14 30 0 11 8 17 25 18 30
0 41 18 14 23 -10 1 -27 10 -37 19 -14 13 -20 13 -26 4 -4 -7 -15 -10 -24 -6
-20 7 -21 16 -5 32 8 8 8 15 -1 25 -9 12 -7 16 8 20 14 3 32 -6 57 -30 33 -31
74 -43 63 -18 -2 6 -7 9 -11 8 -5 -2 -8 1 -8 5 0 12 70 10 70 -2 0 -6 7 -2 15
8 13 17 15 18 15 3 0 -12 8 -17 28 -16 15 0 21 3 15 6 -15 6 -17 33 -3 33 6 0
10 8 11 18 0 9 9 -2 19 -24 18 -40 51 -76 37 -41 -3 9 1 30 10 48 13 27 14 38
4 65 -7 19 -10 38 -7 42 3 5 -3 16 -13 24 -15 12 -22 13 -31 5 -10 -9 -12 -8
-6 6 3 10 6 21 6 24 0 3 15 -6 34 -21 19 -14 36 -26 38 -26 2 0 4 16 5 35 1
20 -3 35 -10 35 -8 0 -8 3 1 12 9 9 16 6 31 -11 10 -12 23 -21 27 -20 16 4 44
-13 38 -22 -3 -5 2 -9 11 -9 8 0 18 7 21 15 7 16 24 21 24 6 0 -5 -7 -16 -15
-24 -12 -13 -11 -15 11 -20 23 -4 25 -2 20 19 -4 14 -2 24 4 24 5 0 10 -4 10
-9 0 -13 42 -1 61 18 8 9 14 22 11 29 -6 18 26 15 36 -4 6 -10 12 -12 16 -6 7
12 -10 27 -41 36 -18 6 -23 3 -23 -11 -1 -17 -1 -17 -11 0 -6 10 -8 21 -5 25
3 3 -4 16 -16 29 -12 13 -17 23 -11 23 6 0 19 3 29 7 11 4 15 3 11 -4 -13 -22
4 -42 33 -40 18 1 25 6 19 12 -15 15 -10 25 14 25 20 0 20 2 -8 20 -16 11 -24
20 -16 20 8 0 11 6 7 15 -7 19 35 39 46 22 9 -14 22 38 14 58 -3 8 -1 15 4 15
14 0 43 -62 33 -69 -13 -8 -23 -51 -13 -51 5 0 10 5 12 12 3 7 13 5 31 -7 25
-16 27 -16 27 -1 0 10 5 14 10 11 6 -4 8 -10 5 -15 -3 -5 9 -13 27 -18 23 -6
32 -14 30 -25 -2 -10 1 -17 6 -17 6 0 13 15 16 34 5 26 11 34 25 31 9 -2 33 0
52 4 l34 8 -30 14 c-16 7 -57 14 -90 14 -56 0 -60 1 -57 22 2 12 -2 31 -8 43
-10 18 -8 21 20 26 37 8 46 20 30 39 -11 13 -7 14 21 9 19 -4 41 -14 49 -23 8
-9 23 -23 32 -30 15 -11 16 -9 9 16 -4 15 -14 28 -22 28 -8 0 -15 10 -15 23
-1 20 2 22 34 16 33 -6 35 -6 30 19 -6 29 19 47 34 25 6 -10 8 -9 8 4 0 11 10
18 32 20 41 4 47 24 11 40 -15 7 -29 13 -31 14 -2 1 6 12 18 24 13 13 19 28
15 40 -7 21 10 36 21 19 4 -8 9 -7 15 2 5 8 16 14 26 15 10 1 31 2 46 3 23 1
26 3 15 14 -16 15 -64 37 -82 37 -8 0 -16 -9 -19 -19 -3 -14 -1 -18 9 -14 8 3
14 0 14 -6 0 -15 -25 -14 -36 2 -16 21 -10 52 9 51 11 -1 17 5 17 18 0 14 5
18 15 15 21 -9 26 5 15 41 -7 26 -5 34 8 42 12 8 14 13 5 16 -23 10 -15 50 13
65 15 7 32 14 38 15 6 0 17 2 24 2 8 1 10 10 7 25 -5 18 -1 26 17 34 25 11 48
7 48 -8 0 -5 -11 -7 -25 -5 -28 5 -31 -1 -10 -28 8 -10 12 -24 8 -30 -3 -6 9
4 26 22 25 27 37 33 56 28 19 -5 28 -1 40 18 19 29 47 43 38 19 -5 -13 -2 -15
15 -11 15 4 22 2 22 -8 0 -8 5 -14 11 -14 6 0 9 -7 5 -15 -3 -9 0 -15 9 -15 8
0 15 6 15 13 0 7 9 18 20 25 11 7 20 8 20 4 0 -5 13 -7 29 -4 16 2 32 -1 35
-7 10 -16 26 -14 20 3 -13 34 -106 49 -122 20 -7 -13 -11 -14 -17 -4 -4 7 -2
16 6 21 17 10 15 12 -43 37 -27 12 -48 26 -48 33 0 8 -4 8 -13 1 -10 -9 -16
-4 -25 22 -14 37 -7 66 14 66 19 0 18 -9 -3 -33 -10 -11 -12 -17 -4 -12 8 4
17 2 23 -6 7 -10 7 -7 3 9 -4 13 -2 22 4 22 6 0 11 5 11 11 0 7 8 18 18 26 15
13 15 14 0 9 -9 -2 -22 2 -28 10 -7 8 -18 14 -25 14 -14 0 -31 57 -21 67 3 4
21 7 39 7 28 1 33 4 30 21 -3 12 -1 16 4 10 4 -6 18 -12 31 -12 36 -3 20 22
-16 25 -18 2 -32 7 -32 13 0 5 4 9 9 9 14 0 20 38 7 44 -7 3 -4 9 7 16 11 7
16 18 12 30 -3 10 -1 22 6 25 6 4 7 10 2 14 -4 3 -13 20 -18 36 -13 39 -55 49
-55 13 0 -18 2 -20 10 -8 7 12 10 11 15 -5 14 -41 14 -45 2 -46 -19 -2 -20 -2
-46 6 -18 6 -23 4 -18 -6 19 -48 19 -48 -2 -42 -12 3 -21 1 -21 -6 0 -6 7 -11
15 -11 8 0 15 -4 15 -10 0 -5 -4 -10 -9 -10 -6 0 -13 5 -16 10 -3 6 -15 10
-26 10 -22 0 -24 8 -5 29 7 9 16 28 20 43 6 25 4 28 -16 24 -15 -2 -33 7 -50
25 -34 33 -35 39 -5 39 21 1 21 1 3 12 -14 8 -24 8 -38 -1 -10 -6 -23 -9 -28
-6 -6 4 -10 1 -10 -5 0 -6 -7 -18 -15 -26 -8 -8 -19 -23 -24 -32 -12 -21 -16
-16 -25 27 -6 31 -5 33 19 29 25 -5 29 1 28 40 -1 6 3 12 9 12 5 0 6 4 3 10
-3 5 -1 18 5 29 7 13 7 22 0 26 -19 12 -11 45 10 45 21 0 27 15 10 25 -6 4 -4
12 5 21 21 22 19 37 -5 31 -11 -3 -20 -1 -20 4 0 5 5 9 12 9 9 0 9 3 0 12 -9
9 -18 5 -40 -19 -22 -25 -39 -33 -80 -39 -57 -7 -72 7 -27 28 37 17 31 27 -15
25 -30 -1 -40 -5 -40 -18 0 -10 6 -19 13 -22 6 -2 9 -7 6 -11 -3 -4 -19 -2
-34 4 -26 10 -27 12 -11 29 9 9 16 22 16 28 0 5 12 16 28 23 24 12 25 14 7 17
-42 9 -49 13 -37 25 20 20 13 28 -14 18 -33 -13 -33 -13 -30 7 2 9 8 19 14 21
7 2 12 8 12 13 0 6 -4 7 -10 4 -5 -3 -15 -3 -21 1 -6 3 7 14 31 25 23 11 39
23 35 29 -4 6 -34 11 -68 11 -34 0 -80 1 -102 4 -22 2 -48 4 -57 4 -10 1 -18
8 -18 16 0 12 -4 13 -19 5 -27 -14 -31 -13 -24 6 5 13 2 15 -15 10 -11 -4 -23
-2 -27 4 -5 8 -12 7 -23 -4 -15 -12 -20 -12 -36 -1 -18 13 -17 15 13 40 37 32
39 40 7 40 -13 0 -22 -3 -19 -7 7 -13 -32 -9 -51 5 -21 15 -19 16 55 20 20 2
43 7 50 13 31 24 43 28 36 11 -7 -20 7 -30 45 -31 25 -1 28 2 26 29 -1 17 -7
33 -13 38 -6 5 -3 11 9 18 17 11 17 12 -5 23 -15 8 -31 9 -41 4 -28 -14 -36
-9 -33 17 3 31 -8 40 -26 19 -19 -23 -48 -36 -62 -27 -6 4 -21 8 -32 8 -16 0
-20 6 -18 35 1 32 -9 49 -30 50 -5 0 -6 -8 -3 -18 7 -22 -11 -48 -41 -57 -16
-4 -23 -2 -24 7 0 7 -5 2 -10 -11 -13 -32 -4 -38 21 -16 18 16 20 17 26 1 4
-11 -1 -24 -15 -37 -17 -16 -21 -17 -21 -4 0 8 -4 15 -10 15 -5 0 -10 -4 -10
-10 0 -5 -9 -10 -21 -10 -20 0 -20 0 -1 28 12 18 17 35 12 52 l-6 25 -13 -23
c-9 -17 -16 -21 -25 -13 -7 6 -15 9 -18 6 -3 -3 -13 4 -23 15 -10 11 -29 20
-42 20 -33 0 -24 24 10 28 15 2 27 7 27 12 0 17 -38 20 -79 5 -37 -13 -46 -13
-63 -1 -19 13 -19 14 -1 19 10 3 -4 5 -31 6 -39 1 -47 4 -42 17 3 9 6 18 6 20
0 3 9 0 20 -6 25 -13 26 -2 3 16 -17 13 -17 14 4 20 20 5 20 7 5 25 -23 26
-29 24 -29 -11 0 -17 -5 -36 -12 -43 -10 -10 -12 -6 -11 18 3 51 1 55 -31 55
-18 0 -28 4 -24 10 4 6 16 10 28 8 17 -2 22 2 20 18 -2 17 5 23 27 28 49 9 34
21 -25 21 -60 -1 -74 12 -24 22 19 3 34 14 36 24 4 14 12 17 33 13 36 -8 44 7
19 34 -22 24 -18 66 7 76 9 4 13 15 10 31 -3 13 0 27 5 31 12 7 -20 33 -41 34
-12 0 -14 10 -12 45 3 28 0 45 -7 45 -6 0 -11 -10 -12 -22 0 -13 -3 -17 -6
-10 -7 18 -21 15 -25 -5 -3 -15 -14 -18 -61 -18 -31 0 -57 2 -57 5 0 3 -12 5
-27 4 -16 0 -43 -2 -62 -2 -25 -2 -32 -6 -27 -17 3 -10 -1 -15 -13 -15 -10 0
-21 -7 -25 -15 -4 -13 -9 -13 -25 -3 -11 7 -18 15 -15 19 9 16 -15 18 -42 4
-20 -10 -32 -11 -41 -3 -17 14 -17 32 1 25 14 -6 36 10 36 26 0 5 -12 6 -27 2
l-27 -6 19 21 c16 18 17 23 5 30 -20 13 -70 13 -70 0 0 -5 7 -10 16 -10 12 0
15 -7 12 -25 -3 -13 -1 -22 3 -19 5 3 9 -2 9 -10 0 -9 -6 -13 -13 -10 -10 3
-13 -4 -11 -28 2 -18 1 -25 -2 -15 -6 19 -34 24 -34 5 0 -6 -10 -2 -23 10 -29
27 -47 28 -47 2 0 -22 -15 -27 -24 -7 -3 9 -8 7 -16 -5 -6 -9 -17 -15 -25 -12
-10 4 -15 0 -15 -14 0 -16 -6 -20 -27 -17 -14 1 -32 10 -38 18 -7 10 -16 13
-25 7 -11 -7 -11 -12 -2 -23 10 -11 9 -17 -4 -28 -15 -12 -16 -11 -9 11 4 14
4 22 0 18 -5 -4 -14 -3 -22 3 -7 6 -13 8 -13 4 0 -4 -6 -3 -13 3 -8 7 -18 7
-27 2 -8 -6 -11 -10 -6 -10 5 0 1 -9 -9 -20 -9 -10 -15 -26 -12 -34 3 -8 -2
-16 -13 -19 -14 -3 -17 -1 -13 11 5 11 3 13 -7 7 -8 -5 -11 -3 -8 6 2 8 14 18
26 24 12 5 22 17 21 25 0 10 -2 11 -6 3 -2 -7 -9 -13 -14 -13 -16 0 -10 22 13
41 l21 19 -24 0 c-18 0 -21 2 -10 9 23 15 21 52 -3 61 -12 5 -16 9 -10 9 5 1
19 7 29 15 18 13 18 15 2 30 -9 10 -22 14 -28 11 -5 -4 -16 1 -23 11 -13 17
-15 17 -30 1 -22 -21 -22 -21 -22 3 0 11 4 20 8 20 4 0 8 7 8 15 0 10 -11 3
-30 -17 -17 -18 -27 -25 -24 -16 9 27 -6 42 -21 21 -16 -22 -33 -9 -19 15 6 9
9 23 7 30 -6 15 -33 16 -33 1 0 -6 -7 -9 -15 -5 -9 3 -24 -3 -35 -14 -20 -20
-20 -20 5 -26 33 -8 32 -29 -2 -59 -30 -26 -49 -33 -37 -13 5 8 0 9 -14 6 -15
-4 -22 -2 -22 9 0 8 -4 12 -9 9 -5 -3 -11 5 -13 19 -4 17 1 29 16 39 21 13 21
14 2 35 -22 24 -36 20 -31 -9 3 -15 -2 -20 -16 -20 -11 0 -29 -5 -40 -11 -15
-7 -24 -7 -33 0 -8 6 -21 9 -30 5 -9 -3 -16 -2 -16 4 0 5 20 18 45 29 53 21
57 30 15 31 -37 1 -80 -36 -95 -80 -7 -22 -17 -32 -32 -33 -27 -2 -29 7 -7 25
8 8 19 21 25 31 8 15 6 17 -6 12 -9 -3 -27 0 -40 7 -20 11 -27 11 -41 -1 -16
-13 -17 -12 -10 11 9 31 14 90 6 90 -13 -1 -40 -29 -40 -41 0 -12 2 -12 9 0 5
7 10 9 13 5 8 -16 3 -37 -8 -41 -14 -5 -54 57 -54 81 0 9 -12 21 -26 27 -27
10 -47 4 -28 -9 15 -9 28 -82 15 -82 -5 0 -12 14 -16 30 -6 28 -35 44 -35 19
0 -5 5 -7 10 -4 6 3 10 -1 10 -9 0 -18 -16 -21 -25 -6 -15 24 -25 7 -19 -30 4
-25 3 -40 -4 -40 -5 0 -8 9 -5 20 3 12 0 20 -6 20 -7 0 -10 4 -6 9 3 5 -7 11
-22 13 -18 2 -32 12 -38 26 -7 17 -16 22 -33 19 -24 -5 -43 18 -35 41 3 6 -3
12 -12 12 -10 0 -13 -5 -9 -12 5 -7 3 -8 -5 -4 -7 5 -10 14 -7 22 3 8 1 14 -5
14 -6 0 -13 -9 -16 -20 -4 -13 -14 -20 -30 -20 -13 0 -21 4 -18 10 3 6 13 10
21 10 8 0 14 5 14 10 0 6 -5 10 -12 10 -6 0 -3 7 8 15 20 15 19 17 -6 8z m-33
-95 c-3 -8 -6 -5 -6 6 -1 11 2 17 5 13 3 -3 4 -12 1 -19z m96 2 c-3 -11 -9
-17 -14 -14 -14 8 -10 34 5 34 9 0 12 -7 9 -20z m27 -27 c0 -14 -19 -38 -25
-32 -8 8 5 39 16 39 5 0 9 -3 9 -7z m40 -7 c0 -3 -4 -8 -10 -11 -5 -3 -10 -1
-10 4 0 6 5 11 10 11 6 0 10 -2 10 -4z m-582 -68 c-13 -9 -32 -18 -42 -18 -17
0 -16 4 9 30 23 24 31 27 42 18 12 -10 11 -15 -9 -30z m628 5 c-11 -11 -19 6
-11 24 8 17 8 17 12 0 3 -10 2 -21 -1 -24z m221 -48 c-2 -5 -12 -8 -22 -7 -11
2 -26 -6 -37 -20 -14 -18 -18 -19 -18 -6 0 26 11 48 25 48 7 0 16 8 20 18 6
16 7 16 21 -3 8 -10 13 -24 11 -30z m-367 19 c0 -8 -5 -12 -10 -9 -6 4 -8 11
-5 16 9 14 15 11 15 -7z m827 0 c-3 -3 -12 -4 -19 -1 -8 3 -5 6 6 6 11 1 17
-2 13 -5z m-1362 -14 c-3 -5 -11 -10 -16 -10 -6 0 -7 5 -4 10 3 6 11 10 16 10
6 0 7 -4 4 -10z m902 -65 c0 -8 -4 -12 -9 -9 -5 3 -6 10 -3 15 9 13 12 11 12
-6z m363 -55 c0 -5 -5 -10 -11 -10 -5 0 -7 5 -4 10 3 6 8 10 11 10 2 0 4 -4 4
-10z m-263 -27 c-9 -9 -20 -13 -24 -9 -4 4 -1 11 7 16 25 16 35 11 17 -7z
m166 0 c-7 -3 -13 -11 -13 -19 0 -9 -5 -12 -11 -9 -7 5 -4 14 7 26 9 11 20 16
23 13 3 -4 0 -9 -6 -11z m-307 -52 c-4 -6 -12 -11 -18 -11 -7 0 -7 4 1 13 6 8
9 16 7 19 -1 3 1 2 7 -2 5 -5 6 -13 3 -19z m-98 7 c-2 -5 -8 -9 -13 -9 -5 0
-11 4 -13 9 -1 5 4 9 13 9 9 0 14 -4 13 -9z m1452 0 c0 -23 -30 -45 -55 -40
-14 2 -22 8 -20 13 3 4 12 6 19 3 9 -3 17 3 21 15 7 22 35 29 35 9z m-143 -14
c-3 -3 -12 -4 -19 -1 -8 3 -5 6 6 6 11 1 17 -2 13 -5z m-609 -36 c1 -32 1 -32
-12 -7 -13 24 -12 39 3 39 4 0 8 -14 9 -32z m172 -4 c0 -8 -5 -12 -10 -9 -6 4
-8 11 -5 16 9 14 15 11 15 -7z m827 -3 c10 -16 8 -22 -12 -35 -25 -17 -69 -13
-81 6 -8 12 26 37 42 31 7 -2 15 0 19 6 9 16 19 13 32 -8z m-2787 5 c0 -3 -4
-8 -10 -11 -5 -3 -10 -1 -10 4 0 6 5 11 10 11 6 0 10 -2 10 -4z m1940 -60 c0
-3 -4 -8 -10 -11 -5 -3 -10 -1 -10 4 0 6 5 11 10 11 6 0 10 -2 10 -4z m826
-53 c-10 -10 -19 5 -10 18 6 11 8 11 12 0 2 -7 1 -15 -2 -18z m-1726 -13 c0
-5 -5 -10 -11 -10 -5 0 -7 5 -4 10 3 6 8 10 11 10 2 0 4 -4 4 -10z m645 -50
c3 -5 1 -10 -4 -10 -6 0 -11 5 -11 10 0 6 2 10 4 10 3 0 8 -4 11 -10z m1015
-60 c-7 -4 -9 -13 -6 -19 5 -7 -2 -11 -18 -11 -14 0 -28 -4 -31 -10 -9 -15
-22 -12 -29 6 -4 11 -2 15 8 11 10 -4 13 -1 9 9 -4 12 0 14 22 8 19 -5 26 -3
21 4 -3 6 0 12 6 15 19 6 32 -4 18 -13z m30 -81 c0 -8 -26 -19 -46 -19 -8 0
-14 6 -14 13 0 7 13 12 30 12 17 0 30 -3 30 -6z m-90 -43 c0 -2 -7 -7 -16 -10
-8 -3 -12 -2 -9 4 6 10 25 14 25 6z m-40 -30 c0 -3 -4 -8 -10 -11 -5 -3 -10
-1 -10 4 0 6 5 11 10 11 6 0 10 -2 10 -4z m222 -78 c-7 -7 -12 -8 -12 -2 0 14
12 26 19 19 2 -3 -1 -11 -7 -17z m99 -28 c10 -6 19 -17 19 -25 0 -18 -4 -19
-31 -2 -17 10 -22 9 -35 -7 -8 -11 -14 -15 -14 -8 0 11 30 52 38 52 2 0 12 -5
23 -10z m249 -34 c0 -2 -7 -7 -16 -10 -8 -3 -12 -2 -9 4 6 10 25 14 25 6z m63
-38 c4 -12 5 -22 4 -23 -1 0 -17 -10 -34 -23 -30 -21 -33 -21 -33 -4 0 25 19
42 39 34 13 -5 14 -3 4 10 -7 8 -10 18 -6 21 12 12 21 7 26 -15z m-403 -17 c0
-12 -20 -25 -27 -18 -7 7 6 27 18 27 5 0 9 -4 9 -9z m60 -1 c0 -5 -5 -10 -11
-10 -5 0 -7 5 -4 10 3 6 8 10 11 10 2 0 4 -4 4 -10z m497 -33 c-7 -21 -32 -13
-35 11 -3 21 -1 22 18 12 12 -6 19 -17 17 -23z m-260 -63 c-3 -3 -12 -4 -19
-1 -8 3 -5 6 6 6 11 1 17 -2 13 -5z m203 -132 c-1 -26 -1 -26 -16 -7 -8 11
-20 19 -25 17 -6 -1 -8 1 -6 6 3 4 15 8 26 9 17 1 21 -4 21 -25z m-260 -12 c0
-5 -4 -10 -10 -10 -5 0 -10 5 -10 10 0 6 5 10 10 10 6 0 10 -4 10 -10z m-4725
-34 c-11 -8 -16 -19 -12 -30 4 -10 1 -16 -8 -16 -8 0 -15 -4 -15 -9 0 -5 -6
-11 -13 -14 -9 -3 -12 4 -11 22 2 40 3 41 23 41 11 0 23 5 26 10 3 6 11 10 18
10 6 0 2 -6 -8 -14z m-425 -25 c0 -6 -4 -13 -10 -16 -5 -3 -10 1 -10 9 0 9 5
16 10 16 6 0 10 -4 10 -9z m640 -57 c0 -8 -4 -12 -10 -9 -5 3 -10 10 -10 16 0
5 5 9 10 9 6 0 10 -7 10 -16z m-218 -16 c-7 -7 -12 -8 -12 -2 0 6 3 14 7 17 3
4 9 5 12 2 2 -3 -1 -11 -7 -17z m-105 -20 c-3 -8 -6 -5 -6 6 -1 11 2 17 5 13
3 -3 4 -12 1 -19z m137 -13 c-4 -9 0 -15 7 -15 9 0 7 -4 -4 -11 -24 -14 -31
-6 -17 20 12 24 22 28 14 6z m-68 -30 c-9 -9 -16 -13 -16 -8 0 12 22 34 28 28
2 -2 -3 -11 -12 -20z m5204 -6 c0 -6 8 -8 18 -5 14 5 14 4 -2 -9 -28 -21 -45
-19 -39 5 6 21 23 28 23 9z m-5186 -34 c3 -8 1 -15 -3 -15 -5 0 -11 7 -15 15
-3 8 -1 15 3 15 5 0 11 -7 15 -15z m5295 -19 c10 -11 6 -17 -19 -29 -16 -9
-30 -12 -30 -7 0 4 7 10 15 14 8 3 15 12 15 21 0 19 4 19 19 1z m94 -17 c20
-36 20 -36 -13 -39 -39 -3 -43 -1 -25 16 17 17 15 41 -4 37 -6 -2 -11 2 -11 7
0 22 36 8 53 -21z m52 21 c3 -5 1 -10 -4 -10 -6 0 -11 5 -11 10 0 6 2 10 4 10
3 0 8 -4 11 -10z m-255 -31 c0 -11 -2 -19 -4 -19 -2 0 -12 -3 -22 -7 -11 -4
-15 -3 -11 4 4 6 2 13 -5 15 -6 2 -9 11 -5 20 8 22 47 11 47 -13z m-70 11 c0
-5 -4 -10 -10 -10 -5 0 -10 5 -10 10 0 6 5 10 10 10 6 0 10 -4 10 -10z m-5450
-21 c0 -5 -4 -9 -10 -9 -5 0 -10 7 -10 16 0 8 5 12 10 9 6 -3 10 -10 10 -16z
m40 -9 c0 -5 -5 -10 -11 -10 -5 0 -7 5 -4 10 3 6 8 10 11 10 2 0 4 -4 4 -10z
m5275 0 c-3 -5 -11 -10 -16 -10 -6 0 -7 5 -4 10 3 6 11 10 16 10 6 0 7 -4 4
-10z m-5110 -28 c-8 -2 -15 -11 -15 -20 0 -11 -3 -13 -11 -5 -8 8 -6 17 7 32
13 15 20 17 26 8 4 -7 2 -13 -7 -15z m5455 7 c0 -5 -4 -9 -10 -9 -5 0 -10 7
-10 16 0 8 5 12 10 9 6 -3 10 -10 10 -16z m-5426 -24 c-4 -8 -11 -15 -16 -15
-6 0 -5 6 2 15 7 8 14 15 16 15 2 0 1 -7 -2 -15z m-90 -11 c3 -8 2 -12 -4 -9
-6 3 -10 10 -10 16 0 14 7 11 14 -7z m40 -29 c-4 -8 -11 -12 -16 -9 -6 4 -5
10 3 15 19 12 19 11 13 -6z m5502 -50 c-3 -8 0 -15 7 -16 7 0 2 -4 -10 -9 -13
-6 -23 -18 -23 -30 0 -11 -6 -20 -14 -20 -23 0 -28 17 -11 33 8 9 15 22 15 30
0 14 13 24 34 26 4 1 6 -6 2 -14z m67 -27 c6 -21 2 -36 -7 -27 -10 11 -16 49
-8 49 5 0 12 -10 15 -22z m-28 -8 c-3 -5 -11 -10 -16 -10 -6 0 -7 5 -4 10 3 6
11 10 16 10 6 0 7 -4 4 -10z m150 0 c-3 -5 -2 -10 3 -10 20 0 20 -30 -1 -71
-24 -48 -32 -38 -25 32 2 22 -1 39 -7 39 -5 0 -3 5 5 10 20 13 33 13 25 0z
m75 -70 c0 -5 -4 -10 -10 -10 -5 0 -10 5 -10 10 0 6 5 10 10 10 6 0 10 -4 10
-10z m60 -137 c0 -23 -4 -33 -9 -27 -9 8 -4 64 5 64 2 0 4 -17 4 -37z m-20
-53 c-8 -5 -19 -10 -25 -10 -5 0 -3 5 5 10 8 5 20 10 25 10 6 0 3 -5 -5 -10z
m-130 -10 c0 -5 -5 -10 -11 -10 -5 0 -7 5 -4 10 3 6 8 10 11 10 2 0 4 -4 4
-10z m-7257 -143 c6 -17 -48 -88 -91 -117 -35 -25 -49 -22 -37 7 5 10 9 20 9
23 4 16 42 70 49 70 5 0 2 -11 -7 -25 -9 -13 -16 -30 -16 -37 1 -7 8 -1 16 15
8 15 22 27 30 27 10 0 14 6 11 14 -5 13 10 36 24 36 4 0 9 -6 12 -13z m7407
-57 c0 -5 -5 -10 -11 -10 -5 0 -7 5 -4 10 3 6 8 10 11 10 2 0 4 -4 4 -10z
m-55 -10 c3 -5 -1 -10 -10 -10 -9 0 -13 5 -10 10 3 6 8 10 10 10 2 0 7 -4 10
-10z m40 -20 c3 -5 1 -10 -4 -10 -6 0 -11 5 -11 10 0 6 2 10 4 10 3 0 8 -4 11
-10z m-7549 -89 c-1 -20 -4 -26 -12 -20 -6 5 -13 7 -15 4 -3 -2 -5 4 -5 15 0
10 4 17 7 14 4 -2 10 0 14 6 10 16 12 12 11 -19z m-76 -83 c0 -7 -13 -28 -30
-46 -27 -31 -29 -32 -28 -10 2 37 58 91 58 56z m7397 -93 c0 -8 -4 -15 -9 -15
-4 0 -8 7 -8 15 0 8 4 15 8 15 5 0 9 -7 9 -15z m-7537 -65 c0 -5 -4 -10 -10
-10 -5 0 -10 5 -10 10 0 6 5 10 10 10 6 0 10 -4 10 -10z m7230 -185 c-7 -8
-17 -15 -22 -15 -11 0 14 29 26 30 5 0 3 -7 -4 -15z m-40 1 c0 -3 -4 -8 -10
-11 -5 -3 -10 -1 -10 4 0 6 5 11 10 11 6 0 10 -2 10 -4z m28 -54 c2 -7 -6 -12
-17 -12 -21 0 -27 11 -14 24 9 9 26 2 31 -12z m-28 -112 c0 -5 -2 -10 -4 -10
-3 0 -8 5 -11 10 -3 6 -1 10 4 10 6 0 11 -4 11 -10z m-115 -30 c3 -5 1 -10 -4
-10 -6 0 -11 5 -11 10 0 6 2 10 4 10 3 0 8 -4 11 -10z m-5765 -54 c0 -3 -4 -8
-10 -11 -5 -3 -10 -1 -10 4 0 6 5 11 10 11 6 0 10 -2 10 -4z m5690 -16 c0 -5
-2 -10 -4 -10 -3 0 -8 5 -11 10 -3 6 -1 10 4 10 6 0 11 -4 11 -10z m-5800
-113 c0 -6 -9 -2 -20 8 -11 10 -17 22 -13 28 6 10 33 -19 33 -36z m-184 -3
c-4 -9 -9 -15 -11 -12 -3 3 -3 13 1 22 4 9 9 15 11 12 3 -3 3 -13 -1 -22z
m144 -10 c0 -7 -4 -24 -10 -39 -8 -22 -12 -24 -29 -13 -18 11 -18 13 -3 26 16
13 16 13 0 8 -23 -7 -23 12 -1 36 12 14 19 15 30 7 7 -6 13 -17 13 -25z
m-1613 -55 c2 -8 -1 -21 -7 -29 -8 -13 -12 -13 -27 4 -10 10 -12 16 -5 12 8
-5 12 0 12 14 0 24 23 23 27 -1z m1523 6 c-7 -8 -19 -15 -27 -15 -13 0 -13 3
-3 15 7 8 19 15 27 15 13 0 13 -3 3 -15z m5910 -6 c0 -5 -4 -9 -10 -9 -5 0
-10 7 -10 16 0 8 5 12 10 9 6 -3 10 -10 10 -16z m-5980 -8 c0 -5 -7 -11 -15
-15 -9 -3 -15 0 -15 9 0 8 7 15 15 15 8 0 15 -4 15 -9z m-280 -5 c0 -2 -7 -6
-15 -10 -8 -3 -15 -1 -15 4 0 6 7 10 15 10 8 0 15 -2 15 -4z m103 -11 c4 -8 2
-17 -3 -20 -6 -4 -10 3 -10 14 0 25 6 27 13 6z m267 -10 c0 -11 -29 -11 -33
-1 -4 10 1 12 14 9 10 -3 19 -7 19 -8z m-66 -24 c12 -13 14 -21 6 -26 -7 -4
-14 1 -17 13 -3 12 -12 23 -22 25 -14 4 -14 5 0 6 9 0 24 -8 33 -18z m-210
-12 c-8 -14 -24 -10 -24 6 0 9 6 12 15 9 8 -4 12 -10 9 -15z m196 -24 c0 -7
-29 2 -44 14 -29 24 -17 33 14 11 17 -12 30 -23 30 -25z m-1615 8 c-5 -23 -4
-25 9 -14 20 17 20 2 1 -23 -12 -16 -15 -17 -15 -4 0 9 -5 18 -11 20 -9 3 -9
10 0 26 16 30 25 28 16 -5z m1035 12 c0 -8 0 -18 1 -22 0 -4 -4 -9 -9 -11 -5
-1 -9 9 -9 23 0 14 3 25 8 25 5 0 9 -7 9 -15z m6140 -16 c0 -6 -4 -7 -10 -4
-5 3 -10 11 -10 16 0 6 5 7 10 4 6 -3 10 -11 10 -16z m-5730 1 c0 -5 -7 -10
-15 -10 -8 0 -15 5 -15 10 0 6 7 10 15 10 8 0 15 -4 15 -10z m5874 -14 c-3 -9
-10 -16 -15 -16 -14 0 -11 28 4 33 16 6 19 3 11 -17z m-5826 -16 c-7 -10 -14
-18 -15 -16 -6 6 9 36 18 36 5 0 4 -9 -3 -20z m-1413 0 c3 -5 -3 -10 -14 -10
-12 0 -21 -5 -21 -12 0 -6 -3 -8 -6 -5 -8 7 14 37 27 37 4 0 11 -4 14 -10z
m7145 0 c0 -5 -7 -7 -15 -4 -8 4 -15 8 -15 10 0 2 7 4 15 4 8 0 15 -4 15 -10z
m-6112 -36 c1 -14 -2 -23 -8 -19 -12 7 -14 45 -2 45 4 0 9 -11 10 -26z m6041
-10 c3 -16 1 -17 -13 -5 -19 16 -21 34 -3 29 6 -3 14 -13 16 -24z m-604 6 c3
-5 1 -10 -4 -10 -6 0 -11 5 -11 10 0 6 2 10 4 10 3 0 8 -4 11 -10z m539 -5
c-6 -16 -24 -21 -24 -7 0 11 11 22 21 22 5 0 6 -7 3 -15z m156 -16 c0 -5 -4
-9 -10 -9 -5 0 -10 7 -10 16 0 8 5 12 10 9 6 -3 10 -10 10 -16z m-7236 -14
c-15 -23 -34 -34 -34 -19 0 16 23 44 36 44 12 0 12 -4 -2 -25z m6912 -17 c1
-2 -6 -9 -16 -16 -14 -8 -20 -9 -20 -1 0 6 -8 8 -20 4 -14 -4 -20 -2 -20 8 0
11 9 14 36 12 20 -2 38 -5 40 -7z m-6871 -8 c3 -5 -1 -10 -9 -10 -8 0 -18 5
-21 10 -3 6 1 10 9 10 8 0 18 -4 21 -10z m210 1 c3 -5 1 -12 -5 -16 -5 -3 -10
1 -10 9 0 18 6 21 15 7z m6262 -23 c-3 -7 -5 -2 -5 12 0 14 2 19 5 13 2 -7 2
-19 0 -25z m193 19 c0 -8 -7 -14 -15 -14 -25 0 -17 17 13 26 1 1 2 -5 2 -12z
m273 -7 c4 -17 0 -20 -33 -20 -22 0 -42 5 -45 10 -4 6 7 10 24 10 17 0 31 5
31 10 0 18 18 10 23 -10z m-5873 6 c0 -3 -4 -8 -10 -11 -5 -3 -10 -1 -10 4 0
6 5 11 10 11 6 0 10 -2 10 -4z m4640 -10 c0 -8 -5 -18 -11 -22 -6 -3 -9 -17
-6 -30 4 -23 4 -23 -27 -7 -36 18 -49 29 -23 20 10 -4 17 -2 17 5 0 14 30 48
42 48 4 0 8 -6 8 -14z m720 -21 c-20 -24 -31 -18 -18 10 8 17 15 22 21 16 7
-7 6 -15 -3 -26z m-5393 -7 c-3 -8 -6 -5 -6 6 -1 11 2 17 5 13 3 -3 4 -12 1
-19z m4240 -10 c-3 -7 -5 -2 -5 12 0 14 2 19 5 13 2 -7 2 -19 0 -25z m-5142
12 c3 -5 1 -10 -4 -10 -6 0 -11 5 -11 10 0 6 2 10 4 10 3 0 8 -4 11 -10z m935
-16 c0 -8 -5 -12 -10 -9 -6 4 -8 11 -5 16 9 14 15 11 15 -7z m5790 -10 c0 -8
-4 -14 -10 -14 -5 0 -10 9 -10 21 0 11 5 17 10 14 6 -3 10 -13 10 -21z m-990
-15 c0 -5 -4 -9 -10 -9 -5 0 -10 7 -10 16 0 8 5 12 10 9 6 -3 10 -10 10 -16z
m467 -6 c-4 -28 -31 -53 -44 -40 -4 5 -3 11 3 15 6 4 14 17 18 30 10 31 27 28
23 -5z m-5817 -3 c0 -5 -4 -10 -10 -10 -5 0 -10 5 -10 10 0 6 5 10 10 10 6 0
10 -4 10 -10z m5540 -14 c0 -2 -7 -6 -15 -10 -8 -3 -15 -1 -15 4 0 6 7 10 15
10 8 0 15 -2 15 -4z m-195 -37 c-4 -10 -2 -19 3 -19 6 0 12 -7 15 -15 4 -10
-4 -17 -26 -24 -18 -5 -40 -12 -49 -16 -13 -5 -18 -2 -18 9 0 15 12 21 34 17
4 -1 16 1 26 4 15 5 16 9 7 29 -11 23 -12 23 -25 5 -19 -27 -32 -23 -19 6 18
38 64 42 52 4z m-4470 11 c-3 -5 -10 -10 -16 -10 -5 0 -9 5 -9 10 0 6 7 10 16
10 8 0 12 -4 9 -10z m4127 -32 c-8 -8 -9 -4 -5 13 4 13 8 18 11 10 2 -7 -1
-18 -6 -23z m638 8 c0 -25 -12 -46 -33 -57 -17 -10 -19 -9 -12 7 4 11 9 28 10
39 2 11 4 21 4 23 3 9 31 -1 31 -12z m-664 -71 c-3 -8 -10 -15 -16 -15 -14 0
-12 37 3 43 15 5 21 -8 13 -28z m519 25 c3 -5 -1 -10 -9 -10 -9 0 -16 5 -16
10 0 6 4 10 9 10 6 0 13 -4 16 -10z m236 -17 c-12 -20 -14 -14 -5 12 4 9 9 14
11 11 3 -2 0 -13 -6 -23z m-828 3 c3 -8 3 -24 0 -35 -3 -12 -1 -21 6 -21 6 0
14 12 17 26 5 19 9 22 15 12 14 -22 10 -55 -11 -79 l-19 -24 -1 25 c0 14 -9
31 -20 38 -15 9 -20 9 -20 0 0 -9 -3 -9 -12 0 -9 9 -10 15 -2 20 6 4 14 17 18
30 8 25 21 29 29 8z m-4092 -37 c-11 -9 -17 -20 -13 -24 4 -4 0 -6 -8 -3 -8 2
-16 13 -18 24 -2 16 3 20 28 19 30 0 31 0 11 -16z m3829 -47 c0 -15 -16 -30
-37 -36 -17 -6 -23 -3 -23 9 0 9 4 14 9 10 6 -3 15 4 21 15 10 18 30 20 30 2z
m-3880 -116 c0 -2 -7 -9 -15 -16 -12 -10 -15 -10 -15 4 0 9 7 16 15 16 8 0 15
-2 15 -4z m114 -47 c-3 -6 -15 -9 -25 -6 -11 3 -19 1 -19 -5 0 -20 -33 -2 -37
21 -3 20 0 23 21 19 14 -3 31 -1 38 3 15 9 33 -15 22 -32z m2530 16 c-6 -16
-24 -21 -24 -7 0 11 11 22 21 22 5 0 6 -7 3 -15z m-2304 -45 c0 -5 -4 -10 -10
-10 -5 0 -10 5 -10 10 0 6 5 10 10 10 6 0 10 -4 10 -10z m2720 -60 c0 -5 -7
-10 -16 -10 -8 0 -12 5 -9 10 3 6 10 10 16 10 5 0 9 -4 9 -10z m-380 -9 c0 -6
-4 -13 -10 -16 -5 -3 -10 1 -10 9 0 9 5 16 10 16 6 0 10 -4 10 -9z m-2460 -31
c0 -5 -4 -10 -10 -10 -5 0 -10 5 -10 10 0 6 5 10 10 10 6 0 10 -4 10 -10z
m130 -13 c0 -8 -11 -24 -25 -37 -30 -28 -33 -45 -6 -30 11 5 22 10 25 10 12 0
6 -32 -9 -46 -8 -8 -12 -21 -9 -29 7 -18 -12 -20 -19 -2 -4 9 -8 9 -15 -2 -7
-9 -10 2 -10 38 0 28 4 51 9 51 4 0 16 14 26 30 18 32 33 39 33 17z m2330 1
c0 -19 -18 -43 -25 -36 -4 3 -2 16 5 27 12 24 20 27 20 9z m373 -22 c0 -11 4
-15 13 -12 22 8 -25 -51 -63 -80 -26 -20 -33 -22 -33 -10 0 9 7 16 15 16 8 0
14 3 13 8 -1 4 6 21 15 39 9 18 17 39 17 48 0 9 6 15 13 12 6 -2 11 -12 10
-21z m-3088 -16 c3 -5 1 -10 -4 -10 -6 0 -11 5 -11 10 0 6 2 10 4 10 3 0 8 -4
11 -10z m2599 -13 c-3 -9 -12 -13 -20 -10 -19 7 -18 21 4 25 22 5 24 4 16 -15z
m428 1 c-7 -7 -12 -8 -12 -2 0 14 12 26 19 19 2 -3 -1 -11 -7 -17z m-362 -3
c-7 -9 -15 -13 -17 -11 -7 7 7 26 19 26 6 0 6 -6 -2 -15z m-240 -55 c0 -5 -2
-10 -4 -10 -3 0 -8 5 -11 10 -3 6 -1 10 4 10 6 0 11 -4 11 -10z m120 -50 c0
-5 -2 -10 -4 -10 -3 0 -8 5 -11 10 -3 6 -1 10 4 10 6 0 11 -4 11 -10z m-213
-16 c4 -10 -1 -22 -12 -30 -15 -11 -20 -10 -35 9 -13 16 -15 24 -7 29 20 13
47 9 54 -8z m-117 -4 c0 -5 -2 -10 -4 -10 -3 0 -8 5 -11 10 -3 6 -1 10 4 10 6
0 11 -4 11 -10z m-257 -37 c-7 -3 -13 -12 -14 -21 0 -11 -2 -13 -6 -4 -6 15
17 46 26 36 3 -4 0 -9 -6 -11z m317 -13 c0 -5 -4 -10 -10 -10 -5 0 -10 5 -10
10 0 6 5 10 10 10 6 0 10 -4 10 -10z m538 -20 c-7 -10 -15 -16 -18 -11 -3 4
-12 11 -20 15 -8 3 -5 4 8 2 12 -2 22 0 22 5 0 5 5 9 10 9 6 0 5 -8 -2 -20z
m72 10 c0 -5 -4 -10 -10 -10 -5 0 -10 5 -10 10 0 6 5 10 10 10 6 0 10 -4 10
-10z m-985 -40 c-20 -23 -29 -21 -19 4 3 9 13 16 22 16 13 0 12 -3 -3 -20z
m-175 -10 c0 -5 -5 -10 -11 -10 -5 0 -7 5 -4 10 3 6 8 10 11 10 2 0 4 -4 4
-10z m230 0 c0 -5 -5 -10 -11 -10 -5 0 -7 5 -4 10 3 6 8 10 11 10 2 0 4 -4 4
-10z m360 0 c0 -5 -4 -10 -10 -10 -5 0 -10 5 -10 10 0 6 5 10 10 10 6 0 10 -4
10 -10z m-270 -15 c-7 -9 -15 -13 -17 -11 -7 7 7 26 19 26 6 0 6 -6 -2 -15z
m470 -11 c0 -7 -5 -16 -11 -19 -6 -4 -8 -13 -5 -20 4 -12 -44 -55 -64 -55 -18
0 -11 22 15 46 29 27 31 39 9 48 -25 10 -7 23 26 18 16 -2 30 -10 30 -18z
m-1084 4 c4 -6 2 -14 -4 -16 -21 -7 -13 -21 16 -25 l27 -4 -32 -8 c-20 -4 -33
-14 -33 -24 0 -12 -2 -13 -8 -3 -5 7 -15 10 -23 7 -10 -4 -15 1 -15 14 0 11 3
18 6 16 8 -5 41 21 39 31 -4 26 14 33 27 12z m524 -14 c0 -7 -14 -24 -30 -38
l-30 -25 22 -15 c18 -13 20 -18 9 -28 -11 -10 -14 -10 -18 0 -8 20 -25 14 -60
-20 -27 -26 -33 -28 -33 -14 0 12 -5 16 -15 12 -19 -7 -19 -8 5 48 15 32 27
46 40 46 11 0 20 7 20 15 0 9 9 15 25 15 14 0 25 4 25 8 0 4 9 8 20 8 11 0 20
-6 20 -12z m-1446 -9 c-4 -8 -8 -15 -10 -15 -2 0 -4 7 -4 15 0 8 4 15 10 15 5
0 7 -7 4 -15z m1146 -15 c0 -5 -4 -10 -10 -10 -5 0 -10 5 -10 10 0 6 5 10 10
10 6 0 10 -4 10 -10z m730 -10 c0 -5 -7 -10 -16 -10 -8 0 -12 5 -9 10 3 6 10
10 16 10 5 0 9 -4 9 -10z m-1625 -44 c20 -21 22 -25 8 -30 -8 -4 -22 -1 -30 5
-7 7 -17 8 -21 4 -4 -4 -1 -10 6 -12 6 -3 12 -10 12 -16 0 -8 -3 -8 -11 0 -17
17 -51 3 -46 -18 4 -15 -1 -17 -32 -15 -29 3 -37 8 -39 27 -3 20 -2 21 11 10
13 -10 20 -9 41 4 28 19 33 31 14 38 -7 2 -10 8 -5 12 4 5 13 1 20 -8 8 -12
16 -14 27 -7 8 5 11 10 7 10 -9 0 1 20 9 20 3 0 16 -11 29 -24z m-120 -15 c3
-5 1 -12 -5 -16 -5 -3 -10 1 -10 9 0 18 6 21 15 7z m1870 -10 c-3 -6 -11 -11
-17 -11 -6 0 -6 6 2 15 14 17 26 13 15 -4z m-38 -11 c1 -11 -4 -20 -13 -20
-14 0 -19 21 -7 33 11 12 19 7 20 -13z m-1517 -11 c0 -14 -5 -19 -17 -17 -23
4 -28 25 -6 31 10 3 19 5 21 6 1 0 2 -8 2 -20z m330 17 c0 -2 -7 -9 -15 -16
-12 -10 -15 -10 -15 4 0 9 7 16 15 16 8 0 15 -2 15 -4z m-430 -37 c0 -3 -6 -6
-14 -6 -8 0 -11 8 -8 20 4 14 7 16 13 5 5 -7 9 -16 9 -19z m390 -19 c-6 -11
-15 -18 -21 -14 -6 4 -6 11 2 20 17 21 31 17 19 -6z"/>
<path d="M5620 5116 c0 -9 5 -16 10 -16 6 0 10 4 10 9 0 6 -4 13 -10 16 -5 3
-10 -1 -10 -9z"/>
<path d="M5500 5109 c0 -5 5 -7 10 -4 6 3 10 8 10 11 0 2 -4 4 -10 4 -5 0 -10
-5 -10 -11z"/>
<path d="M5057 5073 c-4 -3 -7 -11 -7 -17 0 -6 5 -5 12 2 6 6 9 14 7 17 -3 3
-9 2 -12 -2z"/>
<path d="M5825 5040 c3 -5 13 -10 21 -10 8 0 12 5 9 10 -3 6 -13 10 -21 10 -8
0 -12 -4 -9 -10z"/>
<path d="M5875 5030 c4 -6 11 -8 16 -5 14 9 11 15 -7 15 -8 0 -12 -5 -9 -10z"/>
<path d="M5907 5010 c-4 -16 0 -20 20 -20 25 0 26 0 8 20 -10 11 -19 20 -20
20 -2 0 -5 -9 -8 -20z"/>
<path d="M6075 4990 c3 -5 8 -10 11 -10 2 0 4 5 4 10 0 6 -5 10 -11 10 -5 0
-7 -4 -4 -10z"/>
<path d="M6040 4980 c0 -5 5 -10 11 -10 5 0 7 5 4 10 -3 6 -8 10 -11 10 -2 0
-4 -4 -4 -10z"/>
<path d="M6207 4943 c-12 -12 -7 -22 8 -17 8 4 15 10 15 15 0 11 -14 12 -23 2z"/>
<path d="M7050 4890 c0 -5 5 -10 10 -10 6 0 10 5 10 10 0 6 -4 10 -10 10 -5 0
-10 -4 -10 -10z"/>
<path d="M6200 4870 c0 -5 4 -10 9 -10 6 0 13 5 16 10 3 6 -1 10 -9 10 -9 0
-16 -4 -16 -10z"/>
<path d="M6816 4755 c-3 -8 -1 -15 4 -15 6 0 10 7 10 15 0 8 -2 15 -4 15 -2 0
-6 -7 -10 -15z"/>
<path d="M7012 4748 c2 -6 10 -14 16 -16 7 -2 10 2 6 12 -7 18 -28 22 -22 4z"/>
<path d="M6567 4714 c3 -9 0 -20 -8 -25 -8 -5 -9 -9 -3 -9 5 0 19 6 29 14 18
13 18 14 -3 25 -18 10 -21 9 -15 -5z"/>
<path d="M7560 4680 c-9 -6 -10 -10 -3 -10 6 0 15 5 18 10 8 12 4 12 -15 0z"/>
<path d="M7490 4510 c0 -5 7 -10 15 -10 8 0 15 5 15 10 0 6 -7 10 -15 10 -8 0
-15 -4 -15 -10z"/>
<path d="M7453 4485 c6 -7 15 -11 20 -8 13 8 7 19 -13 20 -16 1 -17 -1 -7 -12z"/>
<path d="M7533 4488 c-13 -6 -23 -14 -23 -19 0 -12 38 2 44 17 3 8 4 14 3 13
-1 0 -12 -5 -24 -11z"/>
<path d="M7360 4469 c0 -22 35 -27 43 -6 4 9 7 9 14 0 6 -8 14 -9 23 -3 8 6
11 10 5 10 -5 0 -27 4 -47 9 -34 8 -38 7 -38 -10z"/>
<path d="M7636 4331 c-4 -7 -5 -15 -2 -18 9 -9 19 4 14 18 -4 11 -6 11 -12 0z"/>
<path d="M7692 4281 c14 -23 33 -23 33 0 0 8 -10 15 -23 17 -21 3 -22 2 -10
-17z"/>
<path d="M7635 4260 c3 -5 8 -10 11 -10 2 0 4 5 4 10 0 6 -5 10 -11 10 -5 0
-7 -4 -4 -10z"/>
<path d="M7660 4234 c0 -8 5 -12 10 -9 6 3 10 10 10 16 0 5 -4 9 -10 9 -5 0
-10 -7 -10 -16z"/>
<path d="M7802 4230 c-22 -18 -20 -32 4 -23 8 3 14 0 14 -6 0 -15 35 -14 48 2
25 30 -32 54 -66 27z"/>
<path d="M8010 4233 c0 -6 12 -18 26 -28 21 -14 25 -22 20 -46 l-6 -29 30 22
31 22 -28 14 c-16 8 -38 24 -50 35 -13 11 -23 16 -23 10z"/>
<path d="M3694 4219 c-11 -18 11 -32 25 -16 9 12 8 16 -3 20 -9 4 -18 1 -22
-4z"/>
<path d="M7905 4200 c3 -5 8 -10 11 -10 2 0 4 5 4 10 0 6 -5 10 -11 10 -5 0
-7 -4 -4 -10z"/>
<path d="M7605 4190 c3 -5 12 -10 20 -10 8 0 17 5 20 10 4 6 -5 10 -20 10 -15
0 -24 -4 -20 -10z"/>
<path d="M7690 4190 c0 -5 7 -10 15 -10 8 0 15 5 15 10 0 6 -7 10 -15 10 -8 0
-15 -4 -15 -10z"/>
<path d="M7795 4151 c-3 -5 4 -13 16 -16 23 -8 34 -1 24 14 -8 13 -32 14 -40
2z"/>
<path d="M8020 4106 c32 -41 63 -67 69 -58 3 5 15 12 26 15 15 3 13 5 -8 6
-16 0 -45 13 -65 28 -25 19 -32 21 -22 9z"/>
<path d="M3551 4064 c0 -11 3 -14 6 -6 3 7 2 16 -1 19 -3 4 -6 -2 -5 -13z"/>
<path d="M8034 4025 c1 -53 16 -62 46 -30 l23 24 -27 10 c-14 6 -26 17 -26 26
0 8 -4 15 -9 15 -4 0 -8 -20 -7 -45z"/>
<path d="M8160 4031 c0 -5 5 -13 10 -16 6 -3 10 -2 10 4 0 5 -4 13 -10 16 -5
3 -10 2 -10 -4z"/>
<path d="M8221 4008 c5 -18 9 -35 9 -37 0 -3 4 -1 9 5 13 13 1 64 -14 64 -11
0 -11 -8 -4 -32z"/>
<path d="M8110 4005 c-12 -22 -12 -28 1 -40 9 -10 19 -11 29 -5 13 9 13 10 0
10 -11 0 -12 2 -3 8 12 8 7 52 -6 52 -4 0 -14 -11 -21 -25z"/>
<path d="M7910 3980 c0 -5 5 -10 11 -10 5 0 7 5 4 10 -3 6 -8 10 -11 10 -2 0
-4 -4 -4 -10z"/>
<path d="M7945 3960 c3 -5 8 -10 11 -10 2 0 4 5 4 10 0 6 -5 10 -11 10 -5 0
-7 -4 -4 -10z"/>
<path d="M3350 3950 c0 -5 4 -10 9 -10 6 0 13 5 16 10 3 6 -1 10 -9 10 -9 0
-16 -4 -16 -10z"/>
<path d="M8145 3930 c-3 -6 1 -7 9 -4 18 7 21 14 7 14 -6 0 -13 -4 -16 -10z"/>
<path d="M2840 3885 c0 -19 24 -30 41 -19 9 5 7 11 -6 21 -24 17 -35 17 -35
-2z"/>
<path d="M2940 3882 c0 -12 19 -26 26 -19 2 2 -2 10 -11 17 -9 8 -15 8 -15 2z"/>
<path d="M2235 3790 c3 -5 8 -10 11 -10 2 0 4 5 4 10 0 6 -5 10 -11 10 -5 0
-7 -4 -4 -10z"/>
<path d="M8300 3700 c0 -5 5 -10 10 -10 6 0 10 5 10 10 0 6 -4 10 -10 10 -5 0
-10 -4 -10 -10z"/>
<path d="M8420 3696 c0 -9 5 -16 10 -16 6 0 10 4 10 9 0 6 -4 13 -10 16 -5 3
-10 -1 -10 -9z"/>
<path d="M8544 3615 c40 -38 46 -41 46 -25 0 17 -47 60 -66 60 -12 0 -6 -10
20 -35z"/>
<path d="M8718 3473 c7 -3 16 -2 19 1 4 3 -2 6 -13 5 -11 0 -14 -3 -6 -6z"/>
<path d="M8450 3440 c0 -5 5 -10 10 -10 6 0 10 5 10 10 0 6 -4 10 -10 10 -5 0
-10 -4 -10 -10z"/>
<path d="M1582 3380 c0 -14 2 -19 5 -12 2 6 2 18 0 25 -3 6 -5 1 -5 -13z"/>
<path d="M8546 3384 c-9 -22 -8 -26 6 -22 7 3 20 -4 29 -15 9 -12 21 -17 28
-13 8 6 9 12 2 20 -6 7 -8 16 -5 19 4 4 -5 11 -20 17 -34 13 -33 13 -40 -6z"/>
<path d="M8535 3340 c3 -5 8 -10 11 -10 2 0 4 5 4 10 0 6 -5 10 -11 10 -5 0
-7 -4 -4 -10z"/>
<path d="M8700 3201 c0 -6 8 -11 18 -11 14 0 15 -2 2 -10 -18 -11 -7 -25 15
-17 16 7 21 37 6 37 -5 0 -16 3 -25 6 -9 3 -16 1 -16 -5z"/>
<path d="M8698 3074 c-8 -7 3 -44 13 -44 10 0 -1 -32 -14 -41 -13 -9 0 -29 19
-29 8 0 14 -7 14 -15 0 -8 -4 -15 -10 -15 -5 0 -10 -7 -10 -15 0 -12 7 -9 25
9 14 14 32 23 40 20 8 -4 15 -2 15 4 0 6 14 15 32 21 l32 11 -35 24 c-23 16
-38 21 -46 14 -19 -15 -53 9 -53 37 0 24 -10 32 -22 19z m45 -101 c-7 -2 -21
-2 -30 0 -10 3 -4 5 12 5 17 0 24 -2 18 -5z"/>
<path d="M8895 2960 c3 -5 21 -12 40 -16 19 -3 35 -10 35 -15 0 -5 5 -9 11 -9
19 0 -2 20 -38 35 -41 17 -57 19 -48 5z"/>
<path d="M8660 2911 c0 -5 7 -11 15 -15 9 -3 15 0 15 9 0 8 -7 15 -15 15 -8 0
-15 -4 -15 -9z"/>
<path d="M8765 2880 c-3 -6 1 -7 9 -4 18 7 21 14 7 14 -6 0 -13 -4 -16 -10z"/>
<path d="M8845 2750 c-3 -5 -1 -10 4 -10 6 0 11 5 11 10 0 6 -2 10 -4 10 -3 0
-8 -4 -11 -10z"/>
<path d="M830 2730 c0 -5 5 -10 10 -10 6 0 10 5 10 10 0 6 -4 10 -10 10 -5 0
-10 -4 -10 -10z"/>
<path d="M8453 2713 c-17 -6 -16 -21 0 -36 23 -22 36 -17 35 13 -1 29 -9 34
-35 23z"/>
<path d="M8930 2710 c0 -5 7 -10 15 -10 8 0 15 5 15 10 0 6 -7 10 -15 10 -8 0
-15 -4 -15 -10z"/>
<path d="M735 2664 c-9 -9 -13 -19 -9 -23 4 -3 9 0 11 7 3 6 8 10 13 7 4 -3
13 2 20 10 18 22 -13 20 -35 -1z"/>
<path d="M8496 2635 c-8 -8 -24 -15 -36 -15 -15 0 -20 -5 -17 -14 3 -8 -5 -25
-18 -38 -14 -13 -25 -27 -25 -33 0 -5 5 -3 11 5 8 12 9 9 5 -11 -5 -24 -3 -25
26 -21 33 5 62 25 51 36 -4 3 1 6 9 6 15 0 33 42 29 68 -1 6 3 12 9 12 6 0 8
5 5 10 -9 15 -31 12 -49 -5z m-16 -76 c0 -11 -4 -18 -10 -14 -5 3 -7 12 -3 20
7 21 13 19 13 -6z"/>
<path d="M8608 2621 c11 -7 10 -10 -3 -15 -9 -3 -21 -4 -26 0 -5 3 -9 -4 -9
-15 0 -12 -7 -21 -15 -21 -8 0 -15 -5 -15 -10 0 -6 11 -8 27 -4 15 4 34 7 41
7 8 0 19 11 25 24 11 24 -1 43 -28 43 -5 0 -4 -4 3 -9z"/>
<path d="M8650 2609 c0 -18 2 -19 15 -5 8 8 15 17 15 20 0 3 -7 6 -15 6 -9 0
-15 -9 -15 -21z"/>
<path d="M570 2471 c-12 -24 -13 -41 -1 -41 5 0 11 14 13 30 5 35 3 37 -12 11z"/>
<path d="M8480 2470 c0 -6 7 -10 15 -10 8 0 15 2 15 4 0 2 -7 6 -15 10 -8 3
-15 1 -15 -4z"/>
<path d="M8538 2463 c6 -2 12 -14 12 -25 0 -16 -3 -18 -13 -10 -7 6 -18 7 -26
3 -14 -9 -14 -9 48 -26 15 -4 18 -1 16 19 -4 34 -13 46 -33 45 -11 0 -12 -3
-4 -6z"/>
<path d="M8327 2394 c-11 -12 4 -24 29 -24 13 0 24 5 24 11 0 5 -5 7 -10 4 -6
-4 -17 -2 -24 4 -7 6 -16 8 -19 5z"/>
<path d="M8600 2390 c0 -6 7 -13 16 -17 13 -5 12 -9 -7 -29 -24 -25 -25 -24
29 -40 6 -2 12 3 12 11 0 13 3 13 20 3 16 -10 22 -10 32 0 20 20 -16 44 -47
32 -20 -8 -23 -6 -22 10 1 11 6 20 12 21 5 0 1 4 -10 9 -27 12 -35 12 -35 0z"/>
<path d="M8777 2353 c-10 -18 -18 -67 -10 -58 16 18 33 65 23 65 -5 0 -11 -3
-13 -7z"/>
<path d="M8398 2323 c7 -3 16 -2 19 1 4 3 -2 6 -13 5 -11 0 -14 -3 -6 -6z"/>
<path d="M8316 2215 c4 -8 12 -15 20 -15 20 0 17 7 -6 20 -16 9 -18 8 -14 -5z"/>
<path d="M8255 1970 c-3 -5 -1 -10 4 -10 6 0 11 5 11 10 0 6 -2 10 -4 10 -3 0
-8 -4 -11 -10z"/>
<path d="M7890 1940 c-8 -5 -4 -9 11 -13 13 -4 27 -3 32 2 11 11 -27 21 -43
11z"/>
<path d="M8021 1891 c12 -35 27 -34 24 1 -1 13 -9 24 -18 26 -14 3 -15 -1 -6
-27z"/>
<path d="M8060 1889 c0 -5 5 -7 10 -4 6 3 10 8 10 11 0 2 -4 4 -10 4 -5 0 -10
-5 -10 -11z"/>
<path d="M7894 1799 c-3 -6 1 -18 10 -27 9 -10 16 -12 16 -5 0 7 -5 15 -12 19
-8 5 -6 10 8 15 16 6 16 8 2 8 -9 1 -20 -4 -24 -10z"/>
<path d="M7603 1765 c1 -13 7 -28 12 -32 4 -4 5 -3 2 4 -4 6 -2 13 4 15 12 4
1 38 -12 38 -6 0 -8 -11 -6 -25z"/>
<path d="M1221 1694 c0 -11 3 -14 6 -6 3 7 2 16 -1 19 -3 4 -6 -2 -5 -13z"/>
<path d="M12 1605 c2 -24 9 -40 18 -42 13 -4 13 -3 0 6 -10 7 -11 11 -2 11 17
0 15 35 -4 51 -14 11 -15 8 -12 -26z"/>
<path d="M7379 1638 c-8 -27 -5 -36 9 -30 10 4 12 7 4 10 -7 2 -10 8 -6 13 3
5 3 9 0 9 -3 0 -6 -1 -7 -2z"/>
<path d="M868 1605 c-6 -30 -2 -32 12 -6 6 11 6 22 1 25 -5 3 -11 -5 -13 -19z"/>
<path d="M6999 1597 c-14 -9 -14 -12 3 -29 23 -23 26 -21 19 13 -5 21 -9 24
-22 16z"/>
<path d="M6675 1590 c3 -5 8 -10 11 -10 2 0 4 5 4 10 0 6 -5 10 -11 10 -5 0
-7 -4 -4 -10z"/>
<path d="M6866 1577 c3 -10 9 -15 12 -12 3 3 0 11 -7 18 -10 9 -11 8 -5 -6z"/>
<path d="M7400 1569 c0 -5 5 -7 10 -4 6 3 10 8 10 11 0 2 -4 4 -10 4 -5 0 -10
-5 -10 -11z"/>
<path d="M1442 1537 l-22 -23 21 -1 c12 -1 19 1 16 4 -4 3 4 14 16 24 16 13
18 18 7 18 -8 0 -25 -10 -38 -22z"/>
<path d="M6687 1554 c-4 -4 -4 -18 -1 -31 4 -16 0 -31 -11 -43 -10 -11 -13
-20 -8 -20 18 0 35 28 39 65 3 33 -4 43 -19 29z"/>
<path d="M6975 1541 c-3 -5 -1 -12 5 -16 5 -3 10 1 10 9 0 18 -6 21 -15 7z"/>
<path d="M7205 1540 c-3 -5 -1 -10 4 -10 6 0 11 5 11 10 0 6 -2 10 -4 10 -3 0
-8 -4 -11 -10z"/>
<path d="M1011 1520 c0 -22 26 -53 38 -45 14 8 14 25 0 25 -7 0 -18 8 -25 18
-11 14 -13 14 -13 2z"/>
<path d="M1257 1513 c-13 -12 -7 -41 8 -47 12 -4 13 -2 7 12 -5 9 -7 23 -5 30
5 13 0 16 -10 5z"/>
<path d="M165 1490 c7 -21 -4 -52 -16 -45 -4 3 -20 3 -35 -1 -22 -6 -24 -8
-10 -16 9 -5 25 -6 36 -3 16 5 20 2 20 -15 0 -31 18 -15 43 39 12 25 23 48 24
52 2 3 -13 5 -32 6 -30 1 -35 -2 -30 -17z"/>
<path d="M7325 1500 c-3 -5 -2 -17 3 -26 8 -14 10 -12 10 9 0 29 -3 33 -13 17z"/>
<path d="M1301 1483 c0 -4 4 -17 9 -28 8 -19 9 -19 9 2 1 12 -3 25 -9 28 -5 3
-10 3 -9 -2z"/>
<path d="M7115 1480 c3 -5 8 -10 11 -10 2 0 4 5 4 10 0 6 -5 10 -11 10 -5 0
-7 -4 -4 -10z"/>
<path d="M426 1445 c-3 -9 -6 -22 -5 -28 0 -7 5 -1 10 12 5 13 8 26 5 28 -2 2
-6 -3 -10 -12z"/>
<path d="M671 1443 c-1 -13 -10 -28 -21 -35 -11 -7 -20 -21 -20 -30 0 -25 31
-23 37 2 6 23 24 26 53 8 23 -14 26 -12 35 25 6 21 4 27 -9 27 -9 0 -16 -5
-16 -11 0 -8 -4 -8 -14 0 -11 9 -16 9 -22 -1 -6 -9 -10 -6 -15 12 -7 24 -7 24
-8 3z"/>
<path d="M1370 1435 c0 -14 5 -25 10 -25 6 0 10 11 10 25 0 14 -4 25 -10 25
-5 0 -10 -11 -10 -25z"/>
<path d="M437 1376 c-7 -19 11 -32 24 -19 6 6 5 14 -4 22 -12 9 -16 8 -20 -3z"/>
<path d="M5836 1381 c-4 -7 -5 -15 -2 -18 9 -9 19 4 14 18 -4 11 -6 11 -12 0z"/>
<path d="M6707 1373 c-4 -3 -7 -20 -7 -36 0 -24 3 -27 14 -18 7 6 14 23 14 36
0 25 -8 31 -21 18z"/>
<path d="M6675 1360 c-7 -12 -4 -132 4 -124 5 5 9 134 4 134 -1 0 -4 -4 -8
-10z"/>
<path d="M386 1341 c-9 -13 4 -41 19 -41 15 0 14 42 -2 47 -6 2 -14 0 -17 -6z"/>
<path d="M590 1341 c0 -6 4 -13 10 -16 6 -3 7 1 4 9 -7 18 -14 21 -14 7z"/>
<path d="M6127 1331 c-4 -17 -3 -21 5 -13 5 5 8 16 6 23 -3 8 -7 3 -11 -10z"/>
<path d="M6356 1341 c-4 -7 -5 -15 -2 -18 9 -9 19 4 14 18 -4 11 -6 11 -12 0z"/>
<path d="M5242 1308 c-15 -15 -16 -45 -2 -53 6 -3 10 -1 10 4 0 6 6 11 14 11
9 0 13 10 12 25 -1 27 -15 32 -34 13z"/>
<path d="M5165 1290 c-2 -3 5 -11 16 -18 16 -10 19 -9 19 6 0 17 -26 26 -35
12z"/>
<path d="M6485 1290 c-3 -5 -1 -10 4 -10 6 0 11 5 11 10 0 6 -2 10 -4 10 -3 0
-8 -4 -11 -10z"/>
<path d="M495 1280 c4 -6 11 -8 16 -5 14 9 11 15 -7 15 -8 0 -12 -5 -9 -10z"/>
<path d="M5683 1263 c-14 -29 -9 -43 8 -26 6 6 9 20 7 32 -3 19 -4 19 -15 -6z"/>
<path d="M7242 1270 c0 -14 2 -19 5 -12 2 6 2 18 0 25 -3 6 -5 1 -5 -13z"/>
<path d="M6079 1259 c-13 -26 -6 -35 11 -14 7 8 19 15 26 15 22 0 16 16 -6 17
-11 1 -25 -7 -31 -18z"/>
<path d="M720 1254 c0 -8 5 -12 10 -9 6 3 10 10 10 16 0 5 -4 9 -10 9 -5 0
-10 -7 -10 -16z"/>
<path d="M5760 1261 c0 -6 6 -11 14 -11 7 0 19 -7 26 -15 14 -16 30 -20 30 -7
0 8 -14 16 -62 40 -5 2 -8 -1 -8 -7z"/>
<path d="M640 1245 c-8 -9 -8 -15 -2 -15 12 0 26 19 19 26 -2 2 -10 -2 -17
-11z"/>
<path d="M5567 1253 c-4 -3 -7 -11 -7 -17 0 -6 5 -5 12 2 6 6 9 14 7 17 -3 3
-9 2 -12 -2z"/>
<path d="M5139 1247 c-1 -4 -2 -13 -3 -19 -1 -7 -7 -12 -14 -10 -7 1 -12 -6
-12 -15 0 -10 -7 -31 -15 -47 -19 -36 -19 -46 0 -46 10 0 15 10 15 28 0 18 11
38 30 57 25 24 30 26 30 11 0 -22 24 -16 28 7 2 11 -3 17 -15 17 -11 0 -24 5
-31 12 -7 7 -13 9 -13 5z"/>
<path d="M5281 1212 c-8 -18 -11 -35 -8 -38 8 -9 29 35 25 54 -2 12 -8 7 -17
-16z"/>
<path d="M5077 1196 c-4 -10 -1 -13 9 -9 7 3 14 9 14 14 0 14 -17 10 -23 -5z"/>
<path d="M6042 1198 c-7 -7 -12 -19 -12 -27 0 -8 -6 -22 -14 -30 -18 -21 -29
-71 -16 -71 5 0 10 6 10 13 1 21 36 88 43 80 4 -3 7 -1 7 5 0 5 3 17 6 26 7
19 -7 21 -24 4z"/>
<path d="M710 1186 c0 -8 5 -18 10 -21 6 -3 10 3 10 14 0 12 -4 21 -10 21 -5
0 -10 -6 -10 -14z"/>
<path d="M6138 1195 c-3 -5 -9 -26 -13 -45 -3 -19 -9 -44 -12 -55 -5 -17 -4
-18 11 -6 9 7 16 20 16 28 0 7 7 16 15 19 10 4 12 10 6 18 -5 6 -11 20 -13 31
-2 11 -6 16 -10 10z"/>
<path d="M5761 1171 c-14 -25 -14 -44 -1 -36 17 11 31 43 21 50 -6 3 -15 -3
-20 -14z"/>
<path d="M6740 1179 c0 -5 5 -7 10 -4 6 3 10 8 10 11 0 2 -4 4 -10 4 -5 0 -10
-5 -10 -11z"/>
<path d="M1290 1160 c19 -13 30 -13 30 0 0 6 -10 10 -22 10 -19 0 -20 -2 -8
-10z"/>
<path d="M1295 1120 c3 -5 8 -10 11 -10 2 0 4 5 4 10 0 6 -5 10 -11 10 -5 0
-7 -4 -4 -10z"/>
<path d="M1430 1120 c0 -5 5 -10 10 -10 6 0 10 5 10 10 0 6 -4 10 -10 10 -5 0
-10 -4 -10 -10z"/>
<path d="M5065 1091 c-3 -5 -1 -12 5 -16 5 -3 10 1 10 9 0 18 -6 21 -15 7z"/>
<path d="M5056 1044 c-4 -9 -4 -19 -1 -22 2 -3 7 3 11 12 4 9 4 19 1 22 -2 3
-7 -3 -11 -12z"/>
<path d="M5770 1014 c0 -8 5 -12 10 -9 6 4 8 11 5 16 -9 14 -15 11 -15 -7z"/>
<path d="M5026 979 c-8 -41 0 -49 15 -15 9 18 9 30 2 37 -7 7 -12 0 -17 -22z"/>
<path d="M1288 993 c7 -3 16 -2 19 1 4 3 -2 6 -13 5 -11 0 -14 -3 -6 -6z"/>
<path d="M1436 992 c-7 -12 7 -27 27 -28 21 -2 21 3 3 22 -17 16 -23 17 -30 6z"/>
<path d="M4690 960 c0 -11 2 -20 4 -20 2 0 6 9 9 20 3 11 1 20 -4 20 -5 0 -9
-9 -9 -20z"/>
<path d="M1437 919 c-4 -16 0 -29 13 -42 11 -10 20 -16 20 -15 0 2 -6 20 -14
42 -12 34 -14 36 -19 15z"/>
<path d="M1760 921 c0 -10 -7 -24 -15 -31 -8 -7 -15 -18 -15 -24 0 -8 2 -8 8
0 4 6 14 13 22 16 15 5 23 58 8 58 -4 0 -8 -8 -8 -19z"/>
<path d="M4703 914 c-7 -7 -13 -16 -13 -19 0 -3 -12 -17 -27 -31 -14 -13 -28
-36 -29 -49 -5 -45 31 -22 38 25 2 14 9 24 15 23 6 -1 16 12 22 29 13 36 11
42 -6 22z"/>
<path d="M4565 909 c-11 -17 1 -21 15 -4 8 9 8 15 2 15 -6 0 -14 -5 -17 -11z"/>
<path d="M1487 893 c-9 -9 -9 -43 1 -43 4 0 7 11 7 25 0 14 0 25 -1 25 0 0 -4
-3 -7 -7z"/>
<path d="M1635 856 c-16 -12 -17 -17 -7 -24 8 -5 13 -18 11 -28 -1 -11 5 -35
14 -54 l17 -35 -5 39 c-2 21 0 47 6 57 6 12 6 19 0 19 -5 0 -11 9 -13 21 -3
18 -5 19 -23 5z"/>
<path d="M1390 835 c0 -15 4 -24 10 -20 6 3 10 12 10 20 0 8 -4 17 -10 20 -6
4 -10 -5 -10 -20z"/>
<path d="M1607 803 c-4 -3 -7 -11 -7 -17 0 -6 5 -5 12 2 6 6 9 14 7 17 -3 3
-9 2 -12 -2z"/>
<path d="M1825 800 c3 -5 8 -10 11 -10 2 0 4 5 4 10 0 6 -5 10 -11 10 -5 0 -7
-4 -4 -10z"/>
<path d="M4650 764 c-24 -23 -42 -45 -39 -48 3 -3 25 14 49 39 57 58 49 66
-10 9z"/>
<path d="M4580 784 c0 -9 5 -14 12 -12 18 6 21 28 4 28 -9 0 -16 -7 -16 -16z"/>
<path d="M1813 763 c-3 -10 -8 -22 -11 -28 -3 -5 4 -1 16 9 24 20 28 36 12 36
-6 0 -13 -8 -17 -17z"/>
<path d="M1572 724 c-13 -47 -10 -66 7 -48 13 13 25 94 14 94 -5 0 -14 -21
-21 -46z"/>
<path d="M4075 700 c-3 -5 -2 -10 4 -10 5 0 13 5 16 10 3 6 2 10 -4 10 -5 0
-13 -4 -16 -10z"/>
<path d="M3701 679 c-15 -16 -21 -18 -21 -8 -1 14 -90 -78 -90 -93 0 -15 21
-8 54 17 18 14 38 25 44 25 7 0 12 5 12 10 0 14 -23 12 -39 -2 -11 -11 -13
-10 -9 2 3 8 14 16 25 18 23 3 60 39 51 48 -3 3 -15 -5 -27 -17z"/>
<path d="M3547 646 c-3 -8 -3 -24 0 -36 4 -15 0 -26 -11 -32 -22 -13 -20 -35
5 -43 26 -9 35 0 20 19 -9 11 -10 20 -2 35 13 24 14 58 2 65 -5 3 -11 0 -14
-8z"/>
<path d="M4076 645 c-3 -8 -1 -15 3 -15 5 0 11 7 15 15 3 8 1 15 -3 15 -5 0
-11 -7 -15 -15z"/>
<path d="M4115 649 c-11 -17 1 -21 15 -4 8 9 8 15 2 15 -6 0 -14 -5 -17 -11z"/>
<path d="M4252 638 c-6 -6 -12 -26 -11 -42 l1 -31 14 34 c17 38 15 58 -4 39z"/>
<path d="M1950 610 c0 -5 5 -10 11 -10 5 0 7 5 4 10 -3 6 -8 10 -11 10 -2 0
-4 -4 -4 -10z"/>
<path d="M3205 600 c-3 -5 -1 -10 4 -10 6 0 11 5 11 10 0 6 -2 10 -4 10 -3 0
-8 -4 -11 -10z"/>
<path d="M4280 599 c0 -5 5 -7 10 -4 6 3 10 8 10 11 0 2 -4 4 -10 4 -5 0 -10
-5 -10 -11z"/>
<path d="M1930 586 c0 -9 5 -16 10 -16 6 0 10 4 10 9 0 6 -4 13 -10 16 -5 3
-10 -1 -10 -9z"/>
<path d="M1998 540 c-5 -35 7 -41 16 -7 8 30 7 37 -3 37 -5 0 -11 -13 -13 -30z"/>
<path d="M4069 543 c-5 -14 -8 -34 -6 -42 4 -13 5 -13 6 2 0 9 6 17 12 17 5 0
8 4 5 9 -3 5 1 12 10 15 8 3 12 10 9 16 -11 18 -25 11 -36 -17z"/>
<path d="M2620 539 c0 -5 5 -7 10 -4 6 3 10 8 10 11 0 2 -4 4 -10 4 -5 0 -10
-5 -10 -11z"/>
<path d="M2937 544 c-14 -14 -7 -25 13 -22 12 2 21 8 21 13 0 12 -24 18 -34 9z"/>
<path d="M3120 520 c0 -5 5 -10 10 -10 6 0 10 5 10 10 0 6 -4 10 -10 10 -5 0
-10 -4 -10 -10z"/>
<path d="M3624 491 c5 -8 56 -3 56 5 0 2 -14 4 -31 4 -16 0 -28 -4 -25 -9z"/>
<path d="M2455 451 c5 -28 3 -46 -4 -50 -7 -5 -4 -13 9 -23 18 -16 19 -16 25
3 4 11 3 25 -2 32 -5 7 -10 23 -11 36 0 13 -6 29 -13 35 -8 8 -9 0 -4 -33z"/>
<path d="M3530 464 c0 -8 4 -13 9 -10 5 4 11 0 14 -6 2 -7 7 -10 11 -7 10 10
-5 39 -20 39 -8 0 -14 -7 -14 -16z"/>
<path d="M3621 453 c-1 -13 4 -23 9 -23 6 0 10 -8 10 -17 0 -14 2 -15 13 -4
10 10 9 15 -4 24 -9 7 -18 19 -22 27 -4 10 -6 8 -6 -7z"/>
<path d="M2073 443 c-18 -7 -16 -20 2 -20 8 0 15 6 15 14 0 7 -1 13 -2 12 -2
0 -9 -3 -15 -6z"/>
<path d="M2650 405 c0 -16 6 -25 15 -25 21 0 31 30 14 41 -23 14 -29 11 -29
-16z"/>
<path d="M3480 400 c-11 -21 -8 -23 28 -14 18 5 20 9 11 20 -16 19 -26 17 -39
-6z"/>
<path d="M2562 359 c2 -7 10 -15 17 -17 8 -3 12 1 9 9 -2 7 -10 15 -17 17 -8
3 -12 -1 -9 -9z"/>
<path d="M2671 351 c-12 -8 -13 -12 -1 -26 10 -13 15 -13 21 -3 20 30 8 46
-20 29z"/>
<path d="M3995 349 c-12 -19 5 -23 22 -6 16 16 16 17 1 17 -9 0 -20 -5 -23
-11z"/>
<path d="M2093 319 c-7 -7 -13 -22 -13 -33 0 -19 1 -19 16 -4 9 8 14 23 12 32
-2 14 -5 15 -15 5z"/>
<path d="M3663 308 c-6 -7 -13 -31 -17 -53 l-6 -40 20 49 c20 51 21 67 3 44z"/>
<path d="M3985 309 c-4 -6 -5 -12 -2 -15 2 -3 7 2 10 11 7 17 1 20 -8 4z"/>
<path d="M2675 280 c-3 -5 -1 -10 4 -10 6 0 11 5 11 10 0 6 -2 10 -4 10 -3 0
-8 -4 -11 -10z"/>
<path d="M2851 274 c0 -11 3 -14 6 -6 3 7 2 16 -1 19 -3 4 -6 -2 -5 -13z"/>
<path d="M2356 244 c-4 -10 -1 -14 6 -12 15 5 23 28 10 28 -5 0 -13 -7 -16
-16z"/>
<path d="M3804 179 c-19 -22 -19 -22 4 -8 12 8 22 17 22 21 0 12 -6 9 -26 -13z"/>
</g>
</svg>
